<svg id="logo-bp-icon" xmlns="http://www.w3.org/2000/svg" viewBox="0 0 200 140.5656"><defs><style>.cls-1{fill:#009ff7;}.cls-2{fill:#f0f;}.cls-3{fill:#67d700;}.cls-4{fill:#d6e000;}</style></defs><g id="c-celeste"><ellipse class="cls-1" cx="19.64" cy="121.6584" rx="16.8574" ry="16.125"/><path class="cls-1" d="M1676.5758,1308.9374c7.7606,0,14.0743,5.9852,14.0743,13.342s-6.3137,13.3419-14.0743,13.3419-14.0745-5.9852-14.0745-13.3419,6.3139-13.342,14.0745-13.342m0-5.5652c-10.8467,0-19.64,8.4651-19.64,18.9072s8.7929,18.9071,19.64,18.9071,19.64-8.4651,19.64-18.9071-8.7929-18.9072-19.6395-18.9072Z" transform="translate(-1656.9362 -1200.6209)"/></g><g id="c-rosado"><ellipse class="cls-2" cx="180.3607" cy="121.6584" rx="16.8574" ry="16.125"/><path class="cls-2" d="M1837.2966,1308.9374c7.7607,0,14.0744,5.9852,14.0744,13.342s-6.3137,13.3419-14.0744,13.3419-14.0744-5.9852-14.0744-13.3419,6.3138-13.342,14.0744-13.342m0-5.5652c-10.8466,0-19.64,8.4651-19.64,18.9072s8.793,18.9071,19.64,18.9071,19.64-8.4651,19.64-18.9071-8.793-18.9072-19.64-18.9072Z" transform="translate(-1656.9362 -1200.6209)"/></g><g id="c-verde"><ellipse class="cls-3" cx="126.7572" cy="121.6584" rx="16.8574" ry="16.125"/><path class="cls-3" d="M1783.6934,1308.9374c7.7606,0,14.0744,5.9852,14.0744,13.342s-6.3138,13.3419-14.0744,13.3419-14.0744-5.9852-14.0744-13.3419,6.3137-13.342,14.0744-13.342m0-5.5652c-10.8466,0-19.64,8.4651-19.64,18.9072s8.793,18.9071,19.64,18.9071,19.64-8.4651,19.64-18.9071-8.793-18.9072-19.64-18.9072Z" transform="translate(-1656.9362 -1200.6209)"/></g><g id="c-amarillo"><ellipse class="cls-4" cx="73.1986" cy="121.6584" rx="16.8574" ry="16.125"/><path class="cls-4" d="M1730.1345,1308.9374c7.7606,0,14.0745,5.9852,14.0745,13.342s-6.3139,13.3419-14.0745,13.3419-14.0743-5.9852-14.0743-13.3419,6.3137-13.342,14.0743-13.342m0-5.5652c-10.8465,0-19.6395,8.4651-19.6395,18.9072s8.793,18.9071,19.64,18.9071,19.64-8.4651,19.64-18.9071-8.793-18.9072-19.64-18.9072Z" transform="translate(-1656.9362 -1200.6209)"/></g><g id="ala-i"><path class="cls-4" d="M1690.146,1241.2519c7.4825,6.9727,52.0992,52.89,48.9376,50.019-37.3651-33.927-43.5055-38.4827-52.518-47.8531-8.8887-9.2417-17.4069-20.4874-15.8385-19.2419A195.9269,195.9269,0,0,1,1690.146,1241.2519Z" transform="translate(-1656.9362 -1200.6209)"/><path class="cls-4" d="M1670.5638,1224.0809c-.5286,0,7.57,10.57,16.0019,19.3369,9.0124,9.37,15.1528,13.9261,52.5179,47.8531a.8306.8306,0,0,0,.1581.129c.3362,0-41.84-43.3864-49.0957-50.1481a195.9455,195.9455,0,0,0-19.4189-17.0759.3756.3756,0,0,0-.1633-.095Z" transform="translate(-1656.9362 -1200.6209)"/></g><g id="ala-c"><path class="cls-4" d="M1722.1377,1211.322c9.2152,9.8044,35.8146,42.0275,29.2729,35.2644-22.16-22.91-25.7566-25.8648-31.1543-32.334-5.3236-6.38-10.5314-14.3931-9.6092-13.5733C1718.44,1207.6062,1719.3394,1208.3449,1722.1377,1211.322Z" transform="translate(-1656.9362 -1200.6209)"/><path class="cls-4" d="M1710.5563,1200.621c-.3333,0,4.6307,7.556,9.7,13.6314,5.3977,6.4692,8.9942,9.4239,31.1543,32.334a4.9069,4.9069,0,0,0,1.0075.9248c.7026,0-21.9285-27.3034-30.28-36.1892-2.7982-2.9772-3.6974-3.7158-11.4906-10.6429-.0441-.0392-.0741-.0583-.0908-.0581Z" transform="translate(-1656.9362 -1200.6209)"/></g><g id="ala-d"><path class="cls-4" d="M1795.3545,1275.7773c2.5566-4.4111,4.6787-7.8364,6.3721-10.5693l1.0214-1.6514c1.8194-2.9531,6.5577-9.94,12.001-17.8173-6.18,11.2793-10.581,18.5678-13.9306,23.1738C1799.1484,1271.209,1797.2646,1273.5464,1795.3545,1275.7773Z" transform="translate(-1656.9362 -1200.6209)"/><path class="cls-4" d="M1836.175,1210.8787c-.6354.0037-30.6417,42.8549-35.7963,51.2179-3.378,5.48-8.9179,14.149-16.6332,29.212-.0618.1206-.0623.1783-.0069.1783.7634,0,12.1222-11.0271,19.33-20.9372,6.1477-8.4531,15.7535-25.7434,33.0325-59.4489.0769-.15.1005-.2223.0743-.2221Z" transform="translate(-1656.9362 -1200.6209)"/></g></svg>