<svg id="logo" xmlns="http://www.w3.org/2000/svg" viewBox="0 0 2120.5218 2039.7129"><defs><style>.cls-1{fill:#009ff7;}.cls-2{fill:#f0f;}.cls-3{fill:#67d700;}.cls-4{fill:#d6e000;}.cls-5{font-size:320px;fill:#0000f9;stroke:#0000f9;stroke-miterlimit:10;stroke-width:14.2704px;font-family:Calibri;}.cls-6{letter-spacing:-0.0117em;}.cls-7{letter-spacing:-0.0088em;}.cls-8{letter-spacing:0em;}</style></defs><g id="c-celeste"><ellipse class="cls-1" cx="208.231" cy="1289.8965" rx="205.4482" ry="197.6826"/><path class="cls-1" d="M727.1205,1338.2032a208.33,208.33,0,0,1,78.954,15.3427,202.6231,202.6231,0,0,1,64.4277,41.8163,194.02,194.02,0,0,1,43.39,61.9493,188.6582,188.6582,0,0,1,0,151.5829,194.0224,194.0224,0,0,1-43.39,61.95,202.6208,202.6208,0,0,1-64.4277,41.8161,210.8214,210.8214,0,0,1-157.9081,0,202.6215,202.6215,0,0,1-64.4276-41.8161,194.0208,194.0208,0,0,1-43.39-61.95,188.6571,188.6571,0,0,1,0-151.5829,194.0189,194.0189,0,0,1,43.39-61.9493,202.6237,202.6237,0,0,1,64.4276-41.8163,208.3312,208.3312,0,0,1,78.9541-15.3427m0-5.5651c-115.0028,0-208.2309,89.7512-208.2309,200.4649s93.2281,200.4649,208.2309,200.4649,208.2309-89.7512,208.2309-200.4649-93.2282-200.4649-208.2309-200.4649Z" transform="translate(-518.8896 -243.2061)"/></g><g id="c-rosado"><ellipse class="cls-2" cx="1912.2908" cy="1289.8965" rx="205.449" ry="197.6826"/><path class="cls-2" d="M2431.18,1338.2032a208.33,208.33,0,0,1,78.9541,15.3427,202.6224,202.6224,0,0,1,64.4278,41.8163,194.0186,194.0186,0,0,1,43.39,61.9493,188.6571,188.6571,0,0,1,0,151.5829,194.0205,194.0205,0,0,1-43.39,61.95,202.62,202.62,0,0,1-64.4278,41.8161,210.8217,210.8217,0,0,1-157.9082,0,202.621,202.621,0,0,1-64.4275-41.8161,194.0237,194.0237,0,0,1-43.39-61.95,188.6571,188.6571,0,0,1,0-151.5829,194.0218,194.0218,0,0,1,43.39-61.9493,202.6233,202.6233,0,0,1,64.4275-41.8163,208.3316,208.3316,0,0,1,78.9541-15.3427m0-5.5651c-115.0027,0-208.2307,89.7512-208.2307,200.4649s93.228,200.4649,208.2307,200.4649,208.231-89.7512,208.231-200.4649-93.2281-200.4649-208.231-200.4649Z" transform="translate(-518.8896 -243.2061)"/></g><g id="c-verde"><ellipse class="cls-3" cx="1343.9573" cy="1289.8965" rx="205.4485" ry="197.6826"/><path class="cls-3" d="M1862.8468,1338.2032a208.3312,208.3312,0,0,1,78.9541,15.3427,202.6226,202.6226,0,0,1,64.4276,41.8163,194.02,194.02,0,0,1,43.39,61.9493,188.6571,188.6571,0,0,1,0,151.5829,194.0224,194.0224,0,0,1-43.39,61.95,202.62,202.62,0,0,1-64.4276,41.8161,210.8217,210.8217,0,0,1-157.9082,0,202.6215,202.6215,0,0,1-64.4276-41.8161,194.0205,194.0205,0,0,1-43.39-61.95,188.6571,188.6571,0,0,1,0-151.5829,194.0186,194.0186,0,0,1,43.39-61.9493,202.6237,202.6237,0,0,1,64.4276-41.8163,208.3316,208.3316,0,0,1,78.9541-15.3427m0-5.5651c-115.0027,0-208.2308,89.7512-208.2308,200.4649s93.2281,200.4649,208.2308,200.4649,208.2308-89.7512,208.2308-200.4649-93.228-200.4649-208.2308-200.4649Z" transform="translate(-518.8896 -243.2061)"/></g><g id="c-amarillo"><ellipse class="cls-4" cx="776.0942" cy="1289.8965" rx="205.4481" ry="197.6826"/><path class="cls-4" d="M1294.9836,1338.2032a208.3312,208.3312,0,0,1,78.9541,15.3427,202.6242,202.6242,0,0,1,64.4277,41.8163,194.02,194.02,0,0,1,43.39,61.9493,188.6571,188.6571,0,0,1,0,151.5829,194.0221,194.0221,0,0,1-43.39,61.95,202.6219,202.6219,0,0,1-64.4277,41.8161,210.8217,210.8217,0,0,1-157.9082,0,202.6226,202.6226,0,0,1-64.4276-41.8161,194.0221,194.0221,0,0,1-43.39-61.95,188.6571,188.6571,0,0,1,0-151.5829,194.02,194.02,0,0,1,43.39-61.9493,202.6248,202.6248,0,0,1,64.4276-41.8163,208.3316,208.3316,0,0,1,78.9541-15.3427m0-5.5651c-115.0026,0-208.2308,89.7512-208.2308,200.4649s93.2282,200.4649,208.2308,200.4649,208.2309-89.7512,208.2309-200.4649-93.2282-200.4649-208.2309-200.4649Z" transform="translate(-518.8896 -243.2061)"/></g><text class="cls-5" transform="translate(49.1104 1932.5781) scale(1.0784 1)">BR<tspan class="cls-6" x="347.8124" y="0">E</tspan><tspan class="cls-7" x="500.3127" y="0">C</tspan><tspan class="cls-8" x="668.1253" y="0">OMPERU</tspan></text><g id="ala-i"><path class="cls-4" d="M1343.4839,1158.5132C1209.2,1036.8916,1117.4116,955.0913,1048.46,893.6426,937.5825,794.83,891.6885,753.93,835.0444,695.0361c-73.14-76.0449-142.7031-163.4067-163.1806-193.1552,101.2324,80.7109,134.1909,112.9775,166.1,144.2153,10.0605,9.8491,19.5635,19.1518,31.14,29.9394,32.689,30.462,139.4605,138.0415,285.6138,287.7754C1230.4214,1041.3706,1300.0889,1113.269,1343.4839,1158.5132Z" transform="translate(-518.8896 -243.2061)"/><path class="cls-4" d="M686.4788,517.1468c88.45,71.134,119.4626,101.495,149.5379,130.9378,9.63,9.4275,19.588,19.1761,31.1893,29.9869,32.5531,30.3352,138.8826,137.4637,284.4315,286.5686,48.759,49.95,95.1638,97.7067,133.6807,137.5295-102.4458-92.4678-176.85-158.7757-235.0075-210.6052C939.49,792.8022,893.62,751.9234,837.05,693.1072c-49.3837-51.3448-93.0175-103.6148-114.6318-130.2025-15.1466-18.6318-27.1409-34.027-35.94-45.7579m-23.1-25.2043c-5.6052.0013,80.26,112.0719,169.66,205.0225,95.5555,99.3505,160.66,147.6522,556.8275,507.3669a8.8183,8.8183,0,0,0,1.6763,1.3679c3.5634,0-443.61-460.0084-520.543-531.7-49.9363-46.534-65.3712-69.4609-205.8908-181.05a3.9838,3.9838,0,0,0-1.73-1.0075Z" transform="translate(-518.8896 -243.2061)"/></g><g id="ala-c"><path class="cls-4" d="M1512.4106,718.1328c-89.8071-92.7568-149.3828-153.084-193.3076-197.5625-65.65-66.4785-92.8242-93.9951-126.7182-134.6177-41.1514-49.3193-80.9888-106.894-96.085-131.3579q7.7345,6.8709,14.56,12.93c60.1015,53.3667,70.9316,62.9829,97.3091,91.0464C1284.5884,439.8774,1458.3457,648.4653,1512.4106,718.1328Z" transform="translate(-518.8896 -243.2061)"/><path class="cls-4" d="M1109.8827,270.3788c59.2567,52.6167,70.0947,62.2624,96.2578,90.0982,45.0818,47.9639,127.48,144.4977,189.5609,218.8454,31.9545,38.2688,58.5663,70.6391,79.2483,96.1988-68.3623-70.3236-116.7141-119.2852-153.8655-156.9052-65.5932-66.42-92.7433-93.9127-126.5631-134.4461-33.9778-40.7224-65.8578-85.5292-84.6384-113.7911m-22.48-27.1727c-3.5342.0057,49.0983,80.1137,102.8449,144.5292,57.23,68.59,95.3614,99.9178,330.3168,342.8245,6.4983,6.7181,9.911,9.8049,10.6811,9.8049,7.45,0-232.499-289.4866-321.05-383.6992-29.6687-31.5655-39.2017-39.3975-121.83-112.8429-.4673-.4153-.7858-.6168-.9631-.6165Z" transform="translate(-518.8896 -243.2061)"/></g><g id="ala-d"><path class="cls-4" d="M1869.3564,1198.4121c60.3018-117.3379,85.6778-156.3262,110.2374-194.0576,7.68-11.8,14.9335-22.9443,23.2353-36.4141,47.43-76.9511,328.4395-490.8193,401.0723-591.9985-206.8438,403.6645-268.7149,492.4644-340.128,594.9526-3.997,5.7373-8.0244,11.5176-12.1093,17.3994C1987.5889,1080.541,1895.6025,1176.1426,1869.3564,1198.4121Z" transform="translate(-518.8896 -243.2061)"/><path class="cls-4" d="M2383.5771,409.4221C2191.02,783.4088,2130.75,869.9069,2061.49,969.3063c-3.9978,5.7372-8.0259,11.5182-12.1113,17.4-40.444,58.2272-90.0292,114.5375-115.9868,142.9209-22.496,24.5985-41.5,43.8927-54.3832,56.1426,55.1166-106.4572,79.3926-143.7544,102.916-179.8955,7.3514-11.295,14.9532-22.9743,23.2737-36.4734,28.2092-45.7677,132.4154-200.885,223.1751-334.3115,65.3467-96.0667,120.4856-176.1849,155.2041-225.6673m35.6446-57.97c-6.1565.0149-363.8313,525.9087-418.7615,615.029-35.8144,58.1065-55.2613,77.7454-137.0637,237.4524-.6784,1.3242-.7078,1.9595-.1475,1.9595,7.4359,0,118.5764-112.1752,190.7-216.0114,78.6373-113.2145,136-189,364.5494-636.3595.7129-1.3954.9441-2.0706.7234-2.07Z" transform="translate(-518.8896 -243.2061)"/></g></svg>