<?xml version="1.0" encoding="UTF-8" standalone="no"?>
<!DOCTYPE svg PUBLIC "-//W3C//DTD SVG 1.1//EN" "http://www.w3.org/Graphics/SVG/1.1/DTD/svg11.dtd">
<svg version="1.1" xmlns="http://www.w3.org/2000/svg" xmlns:xlink="http://www.w3.org/1999/xlink" preserveAspectRatio="xMidYMid meet" viewBox="0 0 640 640" width="640" height="640"><defs><path d="M614.9 440.87C614.9 534.89 482.86 611.11 319.97 611.11C157.09 611.11 25.05 534.89 25.05 440.87C25.05 346.85 157.09 270.63 319.97 270.63C482.86 270.63 614.9 346.85 614.9 440.87Z" id="a20hHO20o2"></path><path d="M388.29 582.13C391.84 583.92 396.03 583.92 399.58 582.13C415.4 573 541.94 499.92 557.76 490.79C560.88 489 560.88 486.08 557.76 484.28C528.7 467.5 296.26 333.27 267.2 316.49C263.65 314.7 259.46 314.7 255.91 316.49C240.09 325.63 113.55 398.7 97.73 407.83C94.6 409.6 94.6 412.54 97.73 414.35C155.84 447.91 359.23 565.35 388.29 582.13Z" id="a35WTqQDO7"></path><path d="M540.41 197.08C540.48 196.5 540.51 195.92 540.52 195.34C540.52 194.93 540.52 191.64 540.52 191.22C540.1 183.15 536.02 175.76 529.53 171.35C527.61 170 525.25 169.53 522.99 170.04C521.99 159.64 515.08 147.87 506.67 142.81C497.6 137.34 490.26 141.77 490.26 152.72C490.26 153.34 490.26 158.26 490.26 158.88C490.29 161.87 490.76 164.83 491.64 167.67C490.51 166.99 481.49 161.55 480.36 160.87C477 158.84 474.27 160.49 474.27 164.55C474.5 169.03 476.76 173.12 480.36 175.57C487.72 180.01 546.66 215.5 554.03 219.93C557.38 221.96 560.1 220.31 560.1 216.26C559.86 211.79 557.61 207.71 554.03 205.27C551.3 203.63 541.77 197.9 540.41 197.08Z" id="d1NkgJg5Gf"></path><path d="M408.68 96.54C408.68 89.55 408.68 85.67 408.68 84.89C408.68 75.65 416.05 73.43 424.04 78.05C424.04 78.05 424.04 78.05 424.04 78.05C432.04 82.68 438.53 93.9 438.53 103.13C438.53 103.3 438.53 104.66 438.53 104.83C440.35 104.1 442.69 104.38 445.25 105.87C445.25 105.87 445.25 105.87 445.25 105.87C451 109.18 455.67 117.26 455.67 123.92C455.67 123.97 455.67 124.22 455.67 124.68C460.09 127.23 462.55 128.65 463.04 128.93C467.09 131.58 469.64 136 469.9 140.83C469.9 145.2 466.83 146.97 463.04 144.78C457.08 141.34 409.36 113.79 403.39 110.35C399.34 107.7 396.79 103.29 396.53 98.46C396.53 94.09 399.6 92.31 403.39 94.5C404.1 94.77 405.86 95.45 408.68 96.54Z" id="c3mJXrUIq"></path><path d="M509.61 453.12C509.61 453.12 505.15 426.64 509.29 403.38C515.1 370.69 537.65 359.86 545.7 363.23C553.75 366.59 555.47 376.38 540.45 395.06C531.6 406.09 520.03 429.52 519.68 459.97C517.67 458.6 510.61 453.8 509.61 453.12Z" id="aM7Fw2ejd"></path><path d="M509.61 453.12C509.61 453.12 505.15 426.64 509.29 403.38C515.1 370.69 537.65 359.86 545.7 363.23C553.75 366.59 555.47 376.38 540.45 395.06C531.6 406.09 520.03 429.52 519.68 459.97C517.67 458.6 510.61 453.8 509.61 453.12Z" id="gd8Ut4BR3"></path><path d="M516.34 446.86C516.74 446.81 517.03 446.45 516.98 446.05C516.98 446.05 516.98 446.05 516.98 446.04C513.33 415.26 526.34 381.86 540.47 368.56C540.75 368.28 540.74 367.81 540.46 367.53C540.18 367.27 539.76 367.25 539.47 367.5C525.07 381.03 511.82 414.98 515.53 446.22C515.57 446.58 515.87 446.86 516.24 446.86C516.26 446.86 516.33 446.86 516.34 446.86Z" id="c8K4D6j3jU"></path><path d="M546.18 477.82C547.79 478.78 552.47 475.26 553.77 474.47C555.99 473.02 557.81 471.02 559.04 468.66C560.41 465.98 560.92 462.95 560.5 459.97C560.26 458.39 559.92 456.84 559.48 455.31C559.08 453.81 558.68 452.3 558.27 450.79C557.78 449.33 557.58 447.78 557.71 446.25C558.16 443.17 560.92 441.13 563.44 439.26C566.23 437.26 569.14 434.6 569.19 430.9C569.05 428.02 567.96 425.27 566.08 423.08C563.33 419.46 560.52 416.6 561.31 411.66C561.99 408.68 563.01 405.79 564.34 403.05C564.88 401.86 565.24 400.6 565.43 399.31C565.87 394.9 562.66 390.96 558.25 390.51C557.82 390.47 557.38 390.46 556.94 390.49C554.83 390.71 552.8 391.38 550.98 392.46C545.24 395.51 541.76 403.44 535.1 404.28C532.94 404.54 530.74 404.44 528.58 404.72C526.39 404.88 524.32 405.78 522.71 407.28C517.66 412.71 523.53 419.81 521.43 425.79C519.92 430.05 515.71 431.62 513.29 435.44C512.31 437.14 511.89 439.1 512.09 441.05C512.23 444.34 512.97 447.57 514.28 450.6C515.77 453.71 517.44 456.74 519.3 459.65C524.67 463.28 540.8 474.19 546.18 477.82Z" id="a2owdm1akA"></path><path d="M546.18 477.82C547.79 478.78 552.47 475.26 553.77 474.47C555.99 473.02 557.81 471.02 559.04 468.66C560.41 465.98 560.92 462.95 560.5 459.97C560.26 458.39 559.92 456.84 559.48 455.31C559.08 453.81 558.68 452.3 558.27 450.79C557.78 449.33 557.58 447.78 557.71 446.25C558.16 443.17 560.92 441.13 563.44 439.26C566.23 437.26 569.14 434.6 569.19 430.9C569.05 428.02 567.96 425.27 566.08 423.08C563.33 419.46 560.52 416.6 561.31 411.66C561.99 408.68 563.01 405.79 564.34 403.05C564.88 401.86 565.24 400.6 565.43 399.31C565.87 394.9 562.66 390.96 558.25 390.51C557.82 390.47 557.38 390.46 556.94 390.49C554.83 390.71 552.8 391.38 550.98 392.46C545.24 395.51 541.76 403.44 535.1 404.28C532.94 404.54 530.74 404.44 528.58 404.72C526.39 404.88 524.32 405.78 522.71 407.28C517.66 412.71 523.53 419.81 521.43 425.79C519.92 430.05 515.71 431.62 513.29 435.44C512.31 437.14 511.89 439.1 512.09 441.05C512.23 444.34 512.97 447.57 514.28 450.6C515.77 453.71 517.44 456.74 519.3 459.65C524.67 463.28 540.8 474.19 546.18 477.82Z" id="bayhBDXe2n"></path><path d="M530.65 468.29C531.05 468.29 531.37 467.97 531.37 467.57C531.37 467.56 531.37 467.55 531.37 467.55C530.73 438.46 545.04 406.64 555.17 397.5C555.47 397.24 555.5 396.77 555.23 396.47C554.96 396.17 554.5 396.15 554.2 396.42C543.86 405.73 529.25 438.08 529.88 467.57C529.89 467.97 530.22 468.3 530.62 468.29C530.63 468.29 530.64 468.29 530.65 468.29C530.65 468.29 530.65 468.29 530.65 468.29Z" id="a5rd8wU3P"></path><path d="M536.23 432.86C543.15 431.09 550.25 430.08 557.39 429.86C557.79 429.85 558.11 429.52 558.11 429.12C558.11 428.72 557.79 428.4 557.39 428.4C557.38 428.4 557.36 428.4 557.35 428.4C550.08 428.63 542.86 429.65 535.82 431.45C535.43 431.56 535.2 431.96 535.31 432.35C535.39 432.66 535.68 432.88 536.01 432.88C536.01 432.88 536.21 432.86 536.23 432.86Z" id="b2anjoxjEy"></path><path d="M131.25 390.94C131.25 390.94 136.37 367.54 136.37 349.03C136.45 323.01 122.93 290.33 102.35 295.6C81.77 300.88 108.07 330.04 112.29 352.54C116.52 375.04 119.55 396.21 119.55 396.21C121.89 395.16 130.08 391.46 131.25 390.94Z" id="cNtaKBpZx"></path><path d="M131.25 390.94C131.25 390.94 136.37 367.54 136.37 349.03C136.45 323.01 122.93 290.33 102.35 295.6C81.77 300.88 108.07 330.04 112.29 352.54C116.52 375.04 119.55 396.21 119.55 396.21C121.89 395.16 130.08 391.47 131.25 390.94Z" id="b7WTQ69Ty8"></path><path d="M125.64 394.11C125.27 394.06 125.02 393.72 125.07 393.34C125.07 393.34 125.07 393.34 125.07 393.34C132.75 336.29 107.15 304.63 106.94 304.31C106.67 304.05 106.66 303.62 106.91 303.35C107.17 303.07 107.6 303.06 107.87 303.32C107.91 303.35 107.95 303.4 107.98 303.45C108.25 303.77 134.21 335.9 126.4 393.54C126.35 393.9 126.02 394.16 125.66 394.11C125.65 394.11 125.65 394.11 125.64 394.11C125.64 394.11 125.64 394.11 125.64 394.11Z" id="catAnan3w"></path><path d="M120.52 395.74C120.52 395.74 123.51 379.64 117.54 359.09C112.35 341.17 96.58 325.21 87.62 327.33C78.66 329.46 78.26 335.62 81.83 342.48C85.4 349.34 109.52 367.27 112.2 399.49C113.87 398.74 119.69 396.11 120.52 395.74Z" id="d4td3QiMZn"></path><path d="M120.52 395.74C120.52 395.74 123.51 379.64 117.54 359.09C112.35 341.17 96.58 325.21 87.62 327.33C78.66 329.46 78.26 335.62 81.83 342.48C85.4 349.34 109.52 367.27 112.2 399.49C113.87 398.74 119.69 396.11 120.52 395.74Z" id="d9UMBWN52"></path><path d="M116.48 398.18C116.11 398.14 115.84 397.81 115.88 397.44C119.72 361.25 88.18 333.36 87.86 333.08C87.58 332.84 87.55 332.41 87.8 332.13C88.04 331.86 88.46 331.83 88.74 332.07C89.06 332.35 121.1 360.72 117.21 397.58C117.18 397.95 116.85 398.22 116.49 398.18C116.48 398.18 116.48 398.18 116.48 398.18C116.48 398.18 116.48 398.18 116.48 398.18Z" id="bUCOiTdTX"></path><path d="M405.34 567.23C401 569.73 395.68 569.83 391.26 567.49C364.06 551.78 146.45 426.15 119.24 410.44C114.97 407.97 111.49 402.44 111.49 398.09C111.49 393.74 114.96 388.21 119.24 385.73C132.71 377.96 240.39 315.79 253.85 308.02C258.73 305.56 264.48 305.56 269.36 308.02C296.47 323.67 513.32 448.87 540.43 464.52C544.72 467 548.19 472.54 548.19 476.89C548.19 481.24 544.72 486.77 540.43 489.24C513.41 504.84 418.85 559.43 405.34 567.23Z" id="bjgtKEnv"></path><path d="M119.24 385.73C114.96 388.21 111.49 393.74 111.49 398.09C111.49 402.44 114.97 407.97 119.24 410.44C146.44 426.15 364.03 551.78 391.23 567.49C393.32 568.56 395.63 569.13 397.98 569.16C397.98 556.71 397.98 494.41 397.98 382.28C320.81 337.74 277.94 312.99 269.36 308.04C264.49 305.58 258.73 305.57 253.85 308.02C226.93 323.56 132.71 377.96 119.24 385.73Z" id="b1NsfKo0ny"></path><path d="M540.43 489.24C544.72 486.77 548.19 481.24 548.19 476.89C548.19 472.54 544.72 467 540.43 464.52C530.93 459.04 483.45 431.63 397.98 382.28C397.98 494.41 397.98 556.71 397.98 569.16C400.56 569.2 403.1 568.53 405.34 567.23C432.36 551.63 526.92 497.04 540.43 489.24Z" id="dz5FOwjLF"></path><path d="M402.12 553.33C397.82 555.51 392.74 555.51 388.44 553.33C361.52 537.79 146.14 413.44 119.22 397.9C113.42 394.56 113.42 389.08 119.22 385.74C132.68 377.97 240.38 315.79 253.84 308.02C258.72 305.56 264.47 305.56 269.35 308.02C296.46 323.67 513.31 448.87 540.42 464.52C544.69 467 544.69 471.01 540.42 473.48C512.76 489.45 429.78 537.36 402.12 553.33Z" id="f3IFcOs8Y"></path><path d="M402.12 553.33C397.82 555.51 392.74 555.51 388.44 553.33C361.52 537.79 146.14 413.44 119.22 397.9C113.42 394.56 113.42 389.08 119.22 385.74C132.68 377.97 240.38 315.79 253.84 308.02C258.72 305.56 264.47 305.56 269.35 308.02C296.46 323.67 513.31 448.87 540.42 464.52C544.69 467 544.69 471.01 540.42 473.48C512.76 489.45 429.78 537.36 402.12 553.33Z" id="a1SjZwbZXm"></path><path d="M389.04 537.68C384.41 540.03 378.93 540.03 374.3 537.68C351.13 524.3 165.79 417.3 142.62 403.93C138.55 401.57 138.55 397.77 142.62 395.42C155.28 388.11 256.6 329.63 269.26 322.32C273.9 319.97 279.37 319.97 284.01 322.32C307.17 335.69 492.52 442.69 515.69 456.06C519.74 458.41 519.74 462.23 515.69 464.58C490.36 479.2 414.37 523.06 389.04 537.68Z" id="b19a9pcdTK"></path><path d="M276.2 320.58C273.79 320.58 271.41 321.18 269.29 322.32C256.62 329.63 155.31 388.11 142.64 395.42C138.57 397.77 138.57 401.57 142.64 403.93C144.32 404.9 152.68 409.73 167.74 418.42L276.2 349.16C276.2 333.91 276.2 324.39 276.2 320.58Z" id="kND8DAc7L"></path><path d="M284.08 327.85C279.45 325.5 273.98 325.5 269.34 327.85C256.68 335.16 155.37 393.64 142.71 400.95C141.99 401.36 141.33 401.88 140.78 402.5C141.32 403.06 141.94 403.55 142.62 403.93C165.79 417.3 351.13 524.3 374.3 537.68C378.93 540.03 384.41 540.03 389.04 537.68C401.7 530.37 502.95 471.94 515.61 464.64C516.33 464.24 516.97 463.73 517.52 463.12C516.99 462.54 516.38 462.04 515.7 461.66C469.38 434.9 330.41 354.61 284.08 327.85Z" id="a2EyB3j3wX"></path><path d="M211.38 348.26C212.66 347.49 212.79 346.28 211.52 345.55C210.03 344.83 208.29 344.87 206.82 345.64C204.58 346.93 186.63 357.3 184.38 358.59C183.04 359.37 182.98 360.59 184.23 361.31C185.72 362.03 187.46 362 188.93 361.23C193.42 358.64 209.13 349.56 211.38 348.26Z" id="d5LwDLGesy"></path><path d="M228.35 337.26C228.21 336.85 227.88 336.52 227.47 336.38C226.04 335.65 224.35 335.65 222.92 336.38C222.2 336.62 221.81 337.41 222.05 338.13C222.19 338.55 222.51 338.87 222.92 339.01C224.36 339.72 226.04 339.72 227.47 339.01C228.19 338.77 228.59 337.99 228.35 337.26Z" id="c1VwEMOXy8"></path><path d="M237.45 332C237.31 331.59 236.98 331.26 236.57 331.12C235.14 330.39 233.45 330.39 232.03 331.12C230.75 331.84 230.75 333.02 232.03 333.75C233.45 334.48 235.14 334.48 236.57 333.75C237.29 333.51 237.69 332.72 237.45 332Z" id="i1OYBI4xS"></path><path d="M164.72 374.02C164.58 373.61 164.25 373.28 163.84 373.15C162.41 372.42 160.71 372.42 159.28 373.15C158.56 373.39 158.17 374.17 158.41 374.89C158.54 375.31 158.87 375.63 159.28 375.77C160.71 376.5 162.41 376.5 163.84 375.77C164.56 375.53 164.96 374.75 164.72 374.02Z" id="bOUjMI7DM"></path><path d="M173.63 368.71C173.49 368.36 173.22 368.09 172.88 367.95C171.45 367.22 169.76 367.22 168.33 367.95C167.63 368.24 167.29 369.04 167.57 369.75C167.72 370.1 167.99 370.37 168.33 370.51C169.76 371.24 171.45 371.24 172.88 370.51C173.58 370.22 173.92 369.41 173.63 368.71Z" id="a14tT36Xam"></path><path d="M204.57 450.8C205.97 451.69 206.86 453.18 206.99 454.84C207.05 455.39 206.79 455.94 206.32 456.24C206.03 456.41 204.93 457.08 204.62 457.24C204.04 457.48 203.38 457.41 202.88 457.04C199.73 455.22 174.49 440.64 171.34 438.82C169.93 437.96 169.02 436.46 168.91 434.8C168.86 434.27 169.09 433.74 169.52 433.42C169.82 433.23 170.97 432.56 171.28 432.4C171.86 432.15 172.52 432.23 173.03 432.6C179.34 436.24 198.26 447.16 204.57 450.8Z" id="bqanpghX0"></path><path d="M204.57 450.8C205.97 451.69 206.86 453.18 206.99 454.84C207.05 455.39 206.79 455.94 206.32 456.24C206.03 456.41 204.93 457.08 204.62 457.24C204.04 457.48 203.38 457.41 202.88 457.04C199.73 455.22 174.49 440.64 171.34 438.82C169.93 437.96 169.02 436.46 168.91 434.8C168.86 434.27 169.09 433.74 169.52 433.42C169.82 433.23 170.97 432.56 171.28 432.4C171.86 432.15 172.52 432.23 173.03 432.6C179.34 436.24 198.26 447.16 204.57 450.8Z" id="dAKa0GXED"></path><path d="M171.34 433.63C170 432.86 168.91 433.41 168.91 434.91C169.02 436.56 169.93 438.06 171.34 438.92C174.49 440.75 199.73 455.32 202.88 457.14C204.16 457.92 205.3 457.37 205.3 455.86C205.18 454.21 204.28 452.72 202.88 451.84C196.57 448.2 174.49 435.45 171.34 433.63Z" id="a29mTtiOBX"></path><path d="M171.34 433.63C170 432.86 168.91 433.41 168.91 434.91C169.02 436.56 169.93 438.06 171.34 438.92C174.49 440.75 199.73 455.32 202.88 457.14C204.16 457.92 205.3 457.37 205.3 455.86C205.18 454.21 204.28 452.72 202.88 451.84C196.57 448.2 174.49 435.45 171.34 433.63Z" id="c2QOfFwNjG"></path><path d="M162.34 426.43C163.76 427.3 164.67 428.8 164.77 430.46C164.83 431.02 164.57 431.56 164.11 431.87C163.94 431.97 162.58 432.76 162.41 432.86C161.83 433.11 161.16 433.03 160.65 432.67C159.17 431.81 147.28 424.94 145.79 424.08C144.37 423.21 143.47 421.7 143.36 420.04C143.3 419.51 143.54 418.99 143.97 418.68C144.27 418.48 145.42 417.82 145.73 417.65C146.31 417.4 146.97 417.48 147.48 417.84C150.45 419.56 159.37 424.71 162.34 426.43Z" id="b6qkoOjXV"></path><path d="M162.34 426.43C163.76 427.3 164.67 428.8 164.77 430.46C164.83 431.02 164.57 431.56 164.11 431.87C163.94 431.97 162.58 432.76 162.41 432.86C161.83 433.11 161.16 433.03 160.65 432.67C159.17 431.81 147.28 424.94 145.79 424.08C144.37 423.21 143.47 421.7 143.36 420.04C143.3 419.51 143.54 418.99 143.97 418.68C144.27 418.48 145.42 417.82 145.73 417.65C146.31 417.4 146.97 417.48 147.48 417.84C150.45 419.56 159.37 424.71 162.34 426.43Z" id="aWu6CDabg"></path><path d="M145.79 418.83C144.45 418.05 143.36 418.6 143.36 420.11C143.47 421.77 144.37 423.27 145.79 424.14C147.28 424.99 159.17 431.79 160.65 432.64C161.93 433.41 163.08 432.86 163.08 431.36C162.94 429.73 162.04 428.27 160.65 427.4C157.68 425.69 147.28 419.69 145.79 418.83Z" id="a187sM7k5U"></path><path d="M145.79 418.83C144.45 418.05 143.36 418.6 143.36 420.11C143.47 421.77 144.37 423.27 145.79 424.14C147.28 424.99 159.17 431.79 160.65 432.64C161.93 433.41 163.08 432.86 163.08 431.36C162.94 429.73 162.04 428.27 160.65 427.4C157.68 425.69 147.28 419.69 145.79 418.83Z" id="f4H7JPegI"></path><path d="M348.33 444.79C359.85 438.14 365.58 429.43 365.56 420.74C365.56 420.13 365.56 415.32 365.56 414.72C365.56 414.72 359.63 403.2 348.33 396.71C325.36 383.45 288.17 383.45 265.13 396.71C253.77 403.26 247.9 414.72 247.9 414.72C247.9 415.32 247.9 420.12 247.9 420.72C247.9 429.47 253.64 438.16 265.13 444.79C288.17 458.05 325.35 458.05 348.33 444.79Z" id="i2JOjVUJxf"></path><path d="M365.56 414.77C365.56 433.53 339.22 448.73 306.73 448.73C274.24 448.73 247.9 433.53 247.9 414.77C247.9 396.02 274.24 380.81 306.73 380.81C339.22 380.81 365.56 396.02 365.56 414.77Z" id="bcukOhYir"></path><path d="M341.04 434.06C350.53 428.58 355.26 421.4 355.25 414.22C355.25 412.17 355.25 395.79 355.25 393.74C351.86 387.66 346.97 382.54 341.04 378.88C322.09 367.95 291.35 367.95 272.41 378.88C266.47 382.53 261.58 387.65 258.19 393.74C258.19 395.79 258.19 412.17 258.19 414.22C258.19 421.41 262.92 428.58 272.41 434.06C291.35 444.99 322.09 444.99 341.04 434.06Z" id="a5tfZCZIa"></path><path d="M341.04 434.06C350.53 428.58 355.26 421.4 355.25 414.22C355.25 412.17 355.25 395.79 355.25 393.74C351.86 387.66 346.97 382.54 341.04 378.88C322.09 367.95 291.35 367.95 272.41 378.88C266.47 382.53 261.58 387.65 258.19 393.74C258.19 395.79 258.19 412.17 258.19 414.22C258.19 421.41 262.92 428.58 272.41 434.06C291.35 444.99 322.09 444.99 341.04 434.06Z" id="b4tCl31oM"></path><path d="M280.1 437.67C288.53 440.74 297.43 442.29 306.39 442.25C306.39 435.1 306.39 377.86 306.39 370.7C297.43 370.67 288.53 372.22 280.1 375.28C280.1 387.76 280.1 425.19 280.1 437.67Z" id="b292IOqusd"></path><path d="M306.39 370.69C306.39 377.84 306.39 435.08 306.39 442.24C318.92 442.24 331.48 439.56 341.04 434.05C350.6 428.53 355.26 421.39 355.25 414.21C355.25 412.16 355.25 395.78 355.25 393.73C351.86 387.65 346.97 382.54 341.04 378.88C331.48 373.36 318.92 370.64 306.39 370.69Z" id="a4aFyuVau"></path><path d="M355.25 393.75C355.25 409.23 333.53 421.77 306.73 421.77C279.93 421.77 258.2 409.23 258.2 393.75C258.2 378.28 279.93 365.73 306.73 365.73C333.53 365.73 355.25 378.28 355.25 393.75Z" id="e1kOcXnSSX"></path><path d="M309.09 407.17C310.65 408.05 312.62 407.57 313.59 406.07C315.06 403.75 326.87 385.25 328.35 382.94C329.29 381.45 328.67 380.54 326.94 380.9C322.62 381.82 288.12 389.17 283.8 390.09C282.12 390.4 281.97 391.48 283.49 392.36C288.61 395.32 306.53 405.69 309.09 407.17Z" id="e2I1CHw0jL"></path><path d="M379.58 468.39C378.23 467.61 367.36 461.33 366 460.54C365.38 460.23 364.98 459.6 364.97 458.91C364.96 458.19 365.36 457.53 366 457.2C366.97 456.64 374.74 452.17 375.71 451.61C376.19 451.34 376.75 451.2 377.31 451.21C377.87 451.2 378.43 451.34 378.93 451.61C379.85 452.05 380.24 453.15 379.8 454.07C379.62 454.45 379.31 454.76 378.93 454.94C378.48 455.2 376.21 456.51 372.12 458.88L374.41 460.16C378.1 458.03 380.15 456.85 380.56 456.61C381.56 456.07 382.78 456.07 383.78 456.61C384.7 457.07 385.08 458.18 384.62 459.1C384.44 459.47 384.15 459.76 383.78 459.94C383.46 460.13 381.84 461.07 378.92 462.76L381.21 464.04C386.06 461.24 388.76 459.68 389.3 459.37C389.79 459.1 390.34 458.96 390.9 458.97C391.46 458.96 392.02 459.1 392.51 459.38C393.43 459.82 393.82 460.92 393.38 461.84C393.2 462.22 392.89 462.53 392.51 462.71C391.54 463.27 383.78 467.75 382.81 468.31C382.32 468.59 381.77 468.72 381.21 468.71C380.62 468.8 380.07 468.66 379.58 468.39Z" id="c7sYJblgl"></path><path d="M348.54 486.31C347.19 485.53 336.32 479.25 334.96 478.46C334.34 478.15 333.94 477.52 333.93 476.83C333.92 476.11 334.32 475.45 334.96 475.12C335.64 474.73 341.07 471.6 341.75 471.21C344.59 469.74 347.96 469.74 350.8 471.21C350.99 471.32 352.54 472.22 352.73 472.33C354.58 473.08 355.47 475.18 354.73 477.03C354.36 477.94 353.64 478.66 352.73 479.03C352.47 479.18 351.19 479.93 348.89 481.28C350.64 482.29 351.61 482.86 351.81 482.97C352.45 483.29 352.86 483.95 352.86 484.67C352.83 485.37 352.43 485.99 351.81 486.31C351.32 486.58 350.77 486.72 350.21 486.71C349.58 486.72 349.03 486.58 348.54 486.31ZM344.32 478.72L349.52 475.71C348.34 475.04 347.69 474.66 347.56 474.59C346.75 474.2 345.81 474.2 345 474.59C344.74 474.74 343.44 475.49 341.09 476.84L344.32 478.72Z" id="emEoVzKUn"></path><path d="M364.06 477.35C362.7 476.57 351.83 470.29 350.48 469.5C349.86 469.19 349.46 468.56 349.44 467.87C349.44 467.15 349.84 466.49 350.48 466.16C351.16 465.77 356.59 462.64 357.27 462.25C360.11 460.78 363.48 460.78 366.31 462.25C366.5 462.36 368.06 463.26 368.26 463.37C368.94 463.74 369.52 464.27 369.95 464.92C370.1 465.15 370.22 465.39 370.32 465.65C370.8 465.69 371.28 465.76 371.75 465.86C372.56 466.02 373.34 466.32 374.07 466.73C374.36 466.89 376.69 468.24 376.99 468.4C377.62 468.73 378.02 469.37 378.04 470.08C378.02 470.79 377.62 471.43 376.99 471.74C376.5 472.02 375.95 472.16 375.39 472.15C374.82 472.17 374.26 472.02 373.76 471.74C373.47 471.58 371.14 470.23 370.85 470.07C370.46 469.86 370.02 469.76 369.57 469.77C369.13 469.76 368.69 469.86 368.29 470.07C368.03 470.22 366.72 470.97 364.35 472.32C366.11 473.33 367.09 473.9 367.28 474.01C367.92 474.33 368.33 474.98 368.32 475.7C368.3 476.4 367.9 477.04 367.27 477.35C366.78 477.62 366.23 477.76 365.67 477.75C365.11 477.76 364.55 477.62 364.06 477.35ZM359.85 469.76L365.06 466.75C363.88 466.08 363.23 465.7 363.1 465.63C362.29 465.25 361.35 465.25 360.54 465.63C360.28 465.78 359 466.53 356.7 467.88L359.85 469.76Z" id="a10FmexXbG"></path><path d="M392.19 457.74C391.58 457.43 391.18 456.81 391.14 456.12C391.15 455.63 391.35 455.17 391.69 454.84C391.12 454.93 390.54 454.98 389.95 454.98C388.37 455.01 386.81 454.62 385.42 453.86C385.32 453.81 384.55 453.37 384.45 453.31C382.6 452.56 381.71 450.44 382.46 448.59C382.83 447.69 383.55 446.97 384.45 446.6C384.83 446.38 387.9 444.6 388.29 444.38C391.12 442.91 394.49 442.91 397.32 444.38C397.96 444.69 398.36 445.33 398.37 446.04C398.37 446.52 398.17 446.99 397.82 447.32C398.41 447.23 399 447.19 399.59 447.19C401.17 447.15 402.73 447.52 404.11 448.28C404.21 448.34 404.98 448.79 405.08 448.84C406.93 449.59 407.82 451.69 407.08 453.54C406.71 454.45 405.99 455.17 405.08 455.54C404.7 455.76 401.63 457.56 401.24 457.78C399.85 458.53 398.29 458.89 396.71 458.84C395.13 458.88 393.57 458.5 392.19 457.74ZM394.09 454.02C394.54 454.05 394.97 454.19 395.37 454.41C395.76 454.62 396.2 454.71 396.65 454.69C397.09 454.71 397.53 454.61 397.93 454.41C398.18 454.26 399.46 453.51 401.77 452.16C401.18 451.81 400.85 451.62 400.78 451.58C400.39 451.38 399.95 451.28 399.5 451.29C399.06 451.27 398.61 451.38 398.22 451.58C397.96 451.73 396.68 452.48 394.38 453.82C394.22 453.93 394.13 453.99 394.09 454.02ZM388.63 450.48C389.03 450.69 389.47 450.79 389.91 450.78C390.36 450.79 390.8 450.69 391.19 450.48C391.45 450.33 392.73 449.59 395.03 448.24C395.33 448.1 395.49 448.02 395.52 448C395.07 447.97 394.63 447.84 394.24 447.62C393.43 447.24 392.49 447.24 391.68 447.62C391.42 447.77 390.14 448.51 387.84 449.86C388.26 450.19 388.53 450.4 388.63 450.48Z" id="a2ko25saV"></path><path d="M407.71 448.78C407.09 448.47 406.69 447.84 406.67 447.16C406.67 446.67 406.87 446.21 407.22 445.88C406.64 445.97 406.05 446.02 405.47 446.02C403.88 446.05 402.32 445.66 400.93 444.9C400.84 444.85 400.06 444.41 399.96 444.35C398.11 443.58 397.24 441.45 398.01 439.6C398.38 438.71 399.08 438.01 399.96 437.64C400.35 437.42 403.42 435.64 403.8 435.42C406.63 433.95 410.01 433.95 412.84 435.42C413.47 435.73 413.88 436.37 413.89 437.08C413.89 437.57 413.69 438.03 413.34 438.36C413.93 438.27 414.52 438.23 415.12 438.23C416.69 438.19 418.25 438.57 419.64 439.32C419.73 439.38 420.51 439.83 420.61 439.88C422.46 440.65 423.34 442.77 422.57 444.62C422.2 445.51 421.5 446.21 420.61 446.58C420.22 446.8 417.15 448.6 416.77 448.82C415.38 449.57 413.81 449.94 412.22 449.88C410.65 449.92 409.09 449.54 407.71 448.78ZM409.6 445.06C410.05 445.09 410.49 445.23 410.88 445.45C411.69 445.82 412.63 445.82 413.44 445.45C413.7 445.3 415 444.55 417.34 443.2C416.74 442.85 416.41 442.66 416.35 442.62C415.95 442.42 415.51 442.31 415.07 442.33C414.62 442.32 414.18 442.42 413.79 442.62C413.53 442.77 412.25 443.52 409.95 444.86C409.76 444.97 409.65 445.03 409.6 445.06ZM404.16 441.52C404.55 441.73 404.99 441.83 405.44 441.82C405.88 441.83 406.32 441.73 406.72 441.52C406.98 441.37 408.26 440.63 410.56 439.28C410.77 439.17 410.88 439.1 410.91 439.09C410.46 439.06 410.02 438.93 409.63 438.71C409.23 438.5 408.79 438.4 408.35 438.41C407.9 438.4 407.46 438.5 407.07 438.71C406.81 438.86 405.53 439.6 403.23 440.95C403.72 441.25 404.04 441.45 404.16 441.52Z" id="afpjvRIjM"></path><path d="M379.58 495.27C378.23 494.49 367.36 488.21 366 487.42C365.38 487.11 364.98 486.48 364.97 485.79C364.96 485.07 365.36 484.41 366 484.08C366.68 483.69 372.11 480.56 372.79 480.17C375.63 478.7 379 478.7 381.84 480.17C382.03 480.28 383.58 481.18 383.77 481.29C385.62 482.04 386.51 484.14 385.77 485.99C385.4 486.9 384.68 487.62 383.77 487.99C383.51 488.14 382.21 488.89 379.87 490.24C381.62 491.25 382.6 491.82 382.8 491.93C383.72 492.36 384.12 493.46 383.69 494.38C383.5 494.77 383.19 495.09 382.8 495.27C382.31 495.54 381.76 495.68 381.21 495.67C380.62 495.68 380.07 495.54 379.58 495.27ZM375.37 487.68L380.57 484.67C379.39 484 378.74 483.62 378.61 483.55C377.8 483.16 376.86 483.16 376.05 483.55C375.79 483.7 374.49 484.45 372.15 485.8L375.37 487.68Z" id="e1dBX8QB5e"></path><path d="M395.1 486.31C393.74 485.53 382.87 479.25 381.52 478.46C380.89 478.14 380.49 477.49 380.48 476.79C380.49 476.08 380.9 475.44 381.53 475.12C382.01 474.85 382.56 474.71 383.12 474.73C383.68 474.71 384.24 474.85 384.74 475.12C385.54 475.58 389.53 477.89 396.71 482.04C401.56 479.23 404.26 477.67 404.8 477.36C405.29 477.09 405.84 476.95 406.4 476.97C406.97 476.95 407.53 477.1 408.03 477.38C408.66 477.69 409.06 478.33 409.06 479.04C409.05 479.75 408.65 480.39 408.01 480.7C407.04 481.26 399.29 485.75 398.32 486.31C397.83 486.58 397.28 486.71 396.72 486.71C396.14 486.72 395.59 486.58 395.1 486.31Z" id="e1VbUn79a8"></path><path d="M410.62 477.35C409.56 476.73 401.02 471.8 399.95 471.18C398.1 470.42 397.22 468.3 397.99 466.45C398.35 465.56 399.06 464.85 399.95 464.49C400.33 464.26 403.4 462.47 403.79 462.25C406.62 460.78 409.99 460.78 412.83 462.25C413.89 462.86 422.43 467.79 423.5 468.4C424.14 468.73 424.54 469.39 424.54 470.11C424.52 470.81 424.12 471.44 423.49 471.74C423 472.02 422.46 472.16 421.9 472.15C421.33 472.16 420.77 472.02 420.28 471.74C419.99 471.58 418.59 470.77 416.06 469.31L410.88 472.32C412.64 473.33 413.62 473.9 413.81 474.01C414.73 474.45 415.12 475.55 414.68 476.47C414.5 476.85 414.19 477.16 413.81 477.34C413.33 477.61 412.78 477.76 412.22 477.75C411.66 477.76 411.11 477.62 410.62 477.35ZM406.41 469.76L411.61 466.75C410.43 466.08 409.78 465.7 409.65 465.63C409.26 465.42 408.82 465.32 408.37 465.33C407.93 465.32 407.49 465.42 407.09 465.63C406.83 465.77 405.53 466.51 403.2 467.84L406.41 469.76Z" id="c1p2HxxJPw"></path><path d="M428.08 467.26C427.16 466.82 426.78 465.71 427.22 464.78C427.4 464.41 427.71 464.11 428.08 463.92C428.41 463.74 430.03 462.8 432.95 461.12C432.05 460.6 431.55 460.31 431.45 460.25C431.12 460.59 430.74 460.88 430.32 461.11C429.94 461.33 426.87 463.12 426.48 463.35C423.65 464.82 420.28 464.82 417.45 463.35C416.96 463.07 413.08 460.82 412.6 460.54C411.68 460.09 411.3 458.98 411.75 458.06C411.93 457.69 412.23 457.4 412.6 457.22C413.09 456.94 413.65 456.8 414.22 456.81C414.79 456.8 415.34 456.94 415.83 457.22C416.32 457.5 420.2 459.73 420.68 460.01C421.08 460.21 421.52 460.32 421.96 460.3C422.41 460.31 422.85 460.21 423.24 460.01C423.5 459.86 424.78 459.11 427.08 457.75C424.17 456.07 422.55 455.14 422.22 454.95C421.6 454.63 421.21 454.01 421.18 453.31C421.19 452.6 421.58 451.94 422.21 451.61C422.7 451.33 423.27 451.2 423.83 451.21C424.4 451.2 424.95 451.33 425.45 451.61C426.51 452.23 435.04 457.15 436.11 457.77C437.96 458.51 438.85 460.62 438.1 462.46C437.74 463.37 437.02 464.09 436.11 464.46C435.63 464.74 431.83 466.98 431.36 467.26C430.87 467.54 430.32 467.68 429.76 467.67C429.11 467.68 428.57 467.54 428.08 467.26Z" id="a2cF7fKPf9"></path><path d="M346.28 481.28C349.18 482.95 350.79 483.88 351.12 484.07C351.35 484.17 351.51 484.39 351.53 484.65C351.5 484.89 351.34 485.1 351.12 485.2C350.51 485.5 349.79 485.5 349.18 485.2C347.83 484.41 336.96 478.14 335.6 477.35C335.37 477.26 335.22 477.05 335.21 476.8C335.22 476.55 335.37 476.33 335.6 476.24C336.28 475.85 341.71 472.71 342.39 472.32C344.83 471.07 347.72 471.07 350.16 472.32C350.35 472.43 351.9 473.32 352.09 473.43C353.33 473.86 353.99 475.2 353.56 476.44C353.32 477.13 352.78 477.68 352.09 477.91C352.09 477.91 350.15 479.04 346.28 481.28ZM348.25 473.43C347.04 472.83 345.62 472.83 344.41 473.43C344.02 473.66 342.08 474.78 338.59 476.8L344.41 480.15C347.9 478.14 349.85 477.02 350.23 476.8C350.69 476.61 351 476.17 351.03 475.67C351 475.18 350.69 474.75 350.23 474.56C349.84 474.33 348.65 473.66 348.25 473.43Z" id="a3bpx07yig"></path><path d="M371.48 467.11C372.17 467.25 372.82 467.49 373.43 467.84C373.72 468.01 376.05 469.35 376.35 469.52C376.58 469.61 376.73 469.83 376.76 470.08C376.76 470.3 376.61 470.48 376.35 470.63C376.05 470.79 375.71 470.87 375.37 470.87C375.03 470.88 374.7 470.8 374.4 470.63C374.11 470.46 371.78 469.12 371.49 468.95C370.9 468.63 370.23 468.47 369.55 468.49C368.88 468.47 368.21 468.63 367.62 468.95C367.23 469.18 365.29 470.3 361.79 472.32C364.7 473.99 366.32 474.92 366.64 475.11C366.91 475.28 367.05 475.46 367.04 475.69C367.03 475.92 366.9 476.08 366.63 476.24C366.34 476.4 366.01 476.48 365.67 476.47C365.33 476.47 365 476.4 364.7 476.24C363.34 475.45 352.47 469.18 351.12 468.39C350.89 468.3 350.74 468.08 350.72 467.84C350.73 467.59 350.89 467.37 351.12 467.28C351.8 466.89 357.23 463.75 357.91 463.36C360.35 462.11 363.24 462.11 365.67 463.36C365.86 463.47 367.42 464.36 367.62 464.47C368.13 464.74 368.56 465.13 368.9 465.6C369.15 465.99 369.26 466.46 369.2 466.92C369.97 466.89 370.73 466.96 371.48 467.11ZM363.74 464.47C362.53 463.88 361.11 463.88 359.9 464.47C359.51 464.7 357.57 465.82 354.09 467.84L359.9 471.19C363.39 469.18 365.33 468.06 365.72 467.84C366.19 467.65 366.5 467.21 366.53 466.71C366.5 466.22 366.18 465.78 365.72 465.6C365.32 465.37 364.13 464.7 363.74 464.47Z" id="e1RcIwYBSL"></path><path d="M370.04 458.6C369.92 458.65 369.85 458.76 369.84 458.88C369.85 459 369.93 459.11 370.04 459.16C370.42 459.39 373.49 461.18 373.88 461.4C374.19 461.54 374.54 461.54 374.85 461.4C375.48 461.04 380.52 458.12 381.15 457.75C381.44 457.59 381.78 457.51 382.12 457.52C382.46 457.52 382.8 457.6 383.1 457.77C383.37 457.92 383.5 458.1 383.49 458.32C383.47 458.56 383.32 458.78 383.09 458.88C382.46 459.24 377.42 462.15 376.79 462.52C376.64 462.56 376.55 462.73 376.6 462.88C376.63 462.98 376.7 463.05 376.79 463.08C377.18 463.3 380.25 465.09 380.63 465.32C380.78 465.4 380.95 465.44 381.12 465.43C381.29 465.44 381.45 465.4 381.59 465.32C382.42 464.84 389.02 461.03 389.85 460.56C390.14 460.39 390.47 460.31 390.81 460.33C391.15 460.32 391.49 460.4 391.8 460.56C392.02 460.65 392.18 460.87 392.19 461.12C392.17 461.37 392.01 461.58 391.78 461.67C390.81 462.23 383.05 466.72 382.08 467.28C381.47 467.58 380.75 467.58 380.15 467.28C378.79 466.49 367.92 460.22 366.57 459.43C366.34 459.34 366.18 459.13 366.17 458.88C366.18 458.63 366.34 458.41 366.57 458.32C367.54 457.76 375.3 453.27 376.27 452.71C376.88 452.41 377.6 452.41 378.21 452.71C378.45 452.8 378.6 453.02 378.61 453.27C378.6 453.51 378.48 453.72 378.28 453.84C376.63 454.79 370.86 458.12 370.04 458.6Z" id="e4oGapUiC"></path><path d="M396.66 446.73C396.05 447.03 395.33 447.03 394.72 446.73C394.12 446.41 393.46 446.25 392.78 446.27C392.11 446.24 391.43 446.4 390.84 446.73C390.45 446.95 387.38 448.73 387 448.95C386.38 449.18 386.06 449.86 386.28 450.48C386.4 450.81 386.66 451.07 387 451.19C387.1 451.25 387.87 451.7 387.97 451.76C389.18 452.37 390.61 452.37 391.81 451.76C392.2 451.53 395.27 449.75 395.65 449.53C398.09 448.3 400.97 448.3 403.41 449.53C403.51 449.59 404.28 450.04 404.38 450.09C405.3 450.48 405.92 451.34 405.99 452.33C405.92 453.31 405.32 454.17 404.43 454.57C404.05 454.8 400.98 456.59 400.59 456.81C398.15 458.04 395.27 458.04 392.84 456.81C392.61 456.71 392.45 456.5 392.43 456.25C392.44 456 392.6 455.79 392.82 455.7C393.43 455.38 394.16 455.38 394.77 455.7C395.98 456.3 397.4 456.3 398.61 455.7C398.99 455.47 402.06 453.68 402.45 453.46C403.07 453.24 403.39 452.55 403.16 451.94C403.04 451.6 402.78 451.34 402.45 451.22C402.35 451.16 401.57 450.71 401.48 450.66C400.27 450.05 398.84 450.05 397.64 450.66C397.25 450.88 394.18 452.67 393.8 452.9C392.62 453.54 391.3 453.86 389.96 453.83C388.62 453.86 387.29 453.53 386.12 452.9C386.02 452.84 385.24 452.39 385.14 452.33C383.91 451.91 383.25 450.56 383.67 449.32C383.91 448.63 384.45 448.09 385.14 447.85C385.53 447.63 388.6 445.85 388.98 445.63C391.42 444.38 394.3 444.38 396.74 445.63C396.93 445.74 397.06 445.94 397.07 446.16C397.05 446.41 396.89 446.63 396.66 446.73Z" id="f3rNC5mqDG"></path><path d="M412.24 437.59C411.94 437.75 411.6 437.83 411.26 437.82C410.92 437.84 410.59 437.76 410.29 437.59C409.69 437.27 409.02 437.11 408.35 437.13C407.67 437.11 407.01 437.27 406.41 437.59C406.03 437.82 402.96 439.6 402.57 439.82C402.12 440.02 401.81 440.45 401.77 440.95C401.8 441.44 402.11 441.88 402.57 442.06C402.67 442.12 403.45 442.57 403.55 442.62C404.14 442.95 404.8 443.11 405.48 443.1C406.16 443.11 406.83 442.95 407.42 442.62C407.81 442.4 410.88 440.62 411.26 440.4C413.7 439.17 416.58 439.17 419.02 440.4C419.12 440.45 419.9 440.9 419.99 440.96C420.91 441.35 421.52 442.21 421.59 443.2C421.51 444.18 420.9 445.05 419.99 445.44C419.61 445.66 416.54 447.46 416.15 447.68C413.71 448.91 410.84 448.91 408.4 447.68C408.17 447.58 408.02 447.36 408 447.12C408.02 446.87 408.17 446.66 408.4 446.57C408.69 446.4 409.03 446.31 409.37 446.32C409.71 446.31 410.04 446.39 410.34 446.55C411.55 447.15 412.97 447.15 414.18 446.55C414.57 446.33 417.64 444.54 418.02 444.31C418.48 444.13 418.8 443.7 418.83 443.2C418.8 442.7 418.49 442.26 418.02 442.07C417.93 442.02 417.15 441.57 417.05 441.51C416.46 441.19 415.79 441.03 415.12 441.05C414.44 441.03 413.77 441.19 413.17 441.51C412.79 441.73 409.72 443.53 409.33 443.75C408.16 444.4 406.83 444.72 405.49 444.68C404.15 444.71 402.83 444.38 401.65 443.75C401.55 443.69 400.78 443.24 400.68 443.19C399.44 442.76 398.78 441.42 399.21 440.18C399.44 439.49 399.99 438.94 400.68 438.71C401.06 438.48 404.13 436.7 404.52 436.48C406.95 435.23 409.84 435.23 412.28 436.48C412.48 436.59 412.62 436.8 412.63 437.03C412.62 437.28 412.47 437.5 412.24 437.59Z" id="aZn0MIWeL"></path><path d="M377.31 490.24C380.22 491.91 381.83 492.84 382.16 493.03C382.39 493.13 382.55 493.35 382.57 493.61C382.54 493.85 382.38 494.06 382.16 494.16C381.55 494.46 380.83 494.46 380.22 494.16C378.87 493.37 368 487.1 366.64 486.31C366.41 486.22 366.26 486.01 366.25 485.76C366.26 485.51 366.41 485.29 366.64 485.2C367.32 484.81 372.75 481.67 373.43 481.28C375.86 480.03 378.75 480.03 381.18 481.28C381.38 481.39 382.94 482.28 383.13 482.39C384.37 482.82 385.03 484.16 384.6 485.4C384.36 486.09 383.82 486.64 383.13 486.87C382.35 487.32 380.41 488.44 377.31 490.24ZM379.29 482.39C378.08 481.79 376.66 481.79 375.45 482.39C375.06 482.62 373.12 483.74 369.63 485.76L375.45 489.11C378.94 487.1 380.87 485.98 381.26 485.76C381.73 485.57 382.04 485.13 382.07 484.63C382.04 484.14 381.72 483.7 381.26 483.52C380.87 483.29 379.68 482.62 379.29 482.39Z" id="a1XlI9TL5C"></path><path d="M397.68 485.2C397.39 485.36 397.06 485.44 396.72 485.43C396.38 485.44 396.04 485.36 395.74 485.2C394.38 484.41 383.51 478.14 382.16 477.35C381.93 477.26 381.78 477.04 381.76 476.8C381.78 476.55 381.94 476.33 382.17 476.24C382.46 476.07 382.79 475.99 383.13 476.01C383.47 476 383.8 476.08 384.1 476.24C385.31 476.94 395.01 482.54 396.22 483.24C396.53 483.39 396.89 483.39 397.2 483.24C398.02 482.76 404.62 478.95 405.44 478.48C405.74 478.32 406.07 478.24 406.41 478.25C406.75 478.24 407.09 478.32 407.39 478.48C407.61 478.57 407.77 478.79 407.78 479.04C407.78 479.26 407.65 479.44 407.37 479.59C405.43 480.71 398.65 484.64 397.68 485.2Z" id="a1uJoKnVHd"></path><path d="M422.89 470.64C422.59 470.8 422.26 470.88 421.93 470.87C421.59 470.88 421.25 470.8 420.95 470.63C420.52 470.37 417.03 468.33 416.59 468.07C416.44 467.99 416.27 467.95 416.1 467.96C415.94 467.95 415.77 467.99 415.63 468.07C414.95 468.46 409.51 471.6 408.83 471.99C408.72 472.04 408.64 472.15 408.64 472.27C408.65 472.39 408.72 472.5 408.83 472.55C409.27 472.81 412.76 474.85 413.2 475.11C413.43 475.21 413.59 475.43 413.61 475.69C413.58 475.93 413.42 476.14 413.2 476.24C412.9 476.4 412.57 476.48 412.24 476.47C411.9 476.48 411.56 476.4 411.26 476.24C410.2 475.62 401.7 470.7 400.64 470.08C399.73 469.69 399.11 468.83 399.04 467.84C399.09 466.85 399.72 465.97 400.64 465.6C401.02 465.38 404.1 463.58 404.48 463.36C406.92 462.11 409.8 462.11 412.24 463.36C413.3 463.98 421.84 468.9 422.91 469.52C423.14 469.62 423.29 469.83 423.3 470.08C423.27 470.33 423.12 470.55 422.89 470.64ZM410.29 464.47C409.69 464.15 409.02 463.99 408.35 464.01C407.67 463.99 407.01 464.15 406.41 464.47C406.03 464.7 402.96 466.49 402.57 466.71C402.11 466.9 401.79 467.34 401.77 467.84C401.8 468.34 402.11 468.77 402.57 468.95C402.91 469.15 405.63 470.72 405.96 470.91C406.11 470.99 406.28 471.03 406.45 471.03C406.62 471.03 406.79 470.99 406.94 470.91C407.62 470.52 413.04 467.39 413.72 467C413.83 466.95 413.91 466.84 413.91 466.71C413.9 466.59 413.83 466.49 413.72 466.43C413.04 466.04 410.98 464.87 410.29 464.47Z" id="bmAaFOfx5"></path><path d="M435.51 458.88C436.42 459.26 437.05 460.13 437.12 461.12C437.04 462.11 436.42 462.97 435.51 463.36C435.02 463.64 431.14 465.87 430.66 466.15C430.36 466.32 430.02 466.4 429.68 466.39C429.35 466.4 429.02 466.31 428.72 466.15C428.5 466.06 428.34 465.85 428.31 465.6C428.33 465.35 428.49 465.13 428.72 465.04C429.21 464.76 433.08 462.51 433.56 462.23C434.02 462.05 434.34 461.62 434.37 461.12C434.34 460.62 434.03 460.18 433.56 459.99C433.32 459.85 431.35 458.71 431.1 458.57C430.79 459.18 430.29 459.68 429.68 459.99C429.3 460.22 426.23 462.01 425.84 462.23C423.41 463.48 420.52 463.48 418.09 462.23C417.6 461.95 413.72 459.71 413.24 459.43C413.01 459.34 412.86 459.12 412.84 458.88C412.85 458.63 413 458.41 413.24 458.32C413.85 458.01 414.57 458.01 415.18 458.32C415.67 458.6 419.55 460.84 420.03 461.12C420.62 461.44 421.29 461.6 421.96 461.58C422.64 461.6 423.31 461.44 423.91 461.12C424.29 460.9 427.37 459.1 427.75 458.88C428.22 458.69 428.53 458.25 428.56 457.75C428.53 457.26 428.21 456.82 427.75 456.64C427.27 456.36 423.38 454.12 422.9 453.84C422.67 453.74 422.52 453.53 422.5 453.29C422.5 453.04 422.65 452.81 422.89 452.72C423.5 452.42 424.22 452.42 424.83 452.72C424.83 452.72 424.83 452.72 424.83 452.72C430.53 456.01 434.08 458.06 435.51 458.88Z" id="a1VkOuVAe"></path><path d="M135.34 34.95C146.6 28.44 156.79 27.83 164.16 32.08C170.14 35.53 217.94 63.18 223.92 66.64C223.92 92.64 188.79 153.51 166.32 166.48C160.34 163.02 112.53 135.37 106.55 131.92C99.14 127.69 94.57 118.56 94.57 105.55C94.57 79.55 112.82 47.95 135.34 34.95Z" id="e5afU6TjoP"></path><path d="M193.92 70.18C205.16 63.71 215.33 63.08 222.71 67.3C230.08 71.53 234.69 80.64 234.69 93.7C234.69 119.69 216.44 151.3 193.92 164.31C182.66 170.82 172.45 171.42 165.07 167.14C157.68 162.87 153.16 153.75 153.16 140.8C153.16 114.8 171.4 83.2 193.92 70.18Z" id="kSOfeG7GF"></path><path d="M193.92 70.18C205.16 63.71 215.33 63.08 222.71 67.3C230.08 71.53 234.69 80.64 234.69 93.7C234.69 119.69 216.44 151.3 193.92 164.31C182.66 170.82 172.45 171.42 165.07 167.14C157.68 162.87 153.16 153.75 153.16 140.8C153.16 114.8 171.4 83.2 193.92 70.18Z" id="a8YsZSHsi"></path><path d="M154.88 126.13C153.76 130.94 153.18 135.86 153.16 140.8C153.16 153.78 157.71 162.91 165.07 167.17C172.43 171.43 182.66 170.84 193.92 164.34C198.17 161.84 202.14 158.87 205.73 155.49C195.56 149.62 165.05 132 154.88 126.13Z" id="bpcaawcSa"></path><path d="M320.08 219.17C319.16 231.05 314.64 239.5 311.63 242.12C311.12 260.53 301.93 266.44 301.93 266.44C301.93 266.44 303.48 318.92 305.5 331.97C308.95 354.42 312.08 360.13 310.53 367.21C309.02 374.11 297.52 377 288.2 371.94C278.22 366.54 274.52 348.61 270.77 331.97C266.57 313.36 263.09 294.72 263.09 294.72C254.28 292.33 240.28 292.8 232.61 290.75C224.95 288.7 222.72 286.41 216.46 277.77C210.2 269.13 192.88 251.07 187.79 242.79C182.69 234.51 181.39 224.55 181.16 205.67C180.99 192.59 179.55 182.8 179.16 169.74C179.16 168.78 179.1 167.81 179.08 166.8C179.08 164.02 179.08 161.1 179.08 157.96C176.49 156.47 155.75 144.47 153.15 142.98C153.15 142.28 153.15 141.57 153.15 140.85C153.15 127.21 158.2 112.01 166.23 98.76C173.5 86.8 183.24 76.43 193.92 70.25C196 69.04 198.17 67.98 200.41 67.1C209.63 72.67 221.53 79.6 230.48 84.1C231.37 84.54 232.69 85.17 234.05 85.82C236.17 86.85 238.44 87.94 239.48 88.49C250.05 94.09 252.47 102.28 259.83 109.25C265.69 114.79 316.72 159.91 324.93 166.39C333.13 172.86 330.37 184.55 327.68 199.97C325.95 209.91 324.93 215.45 320.08 219.17Z" id="b5X8LxqEH"></path><path d="M320.08 219.11C324.94 215.45 325.95 209.91 327.68 199.91C328.56 194.85 329.45 190.21 329.96 186C329.74 187.28 327.77 198.8 325.95 199.91C324.13 201.02 322.75 197.47 322.75 197.47C322.75 197.47 320.42 213.47 317.63 215.39C314.84 217.31 313.79 213.99 313.79 213.99C312.41 225.22 311.13 230.77 307.8 232.05C304.47 233.33 301.59 228.61 300.21 222.63C299.71 230.17 301.88 266.33 301.88 266.33C301.88 266.33 311.12 260.47 311.63 242.06C314.64 239.44 319.16 230.99 320.08 219.11Z" id="b12uNgoOhu"></path><path d="M190.94 120.83C188.05 124.72 185.71 128.98 183.99 133.5C177.75 149.98 179.12 157.82 179.12 157.82C176.53 156.33 155.78 144.33 153.19 142.84C153.19 142.14 153.19 141.43 153.19 140.71C153.19 129.92 156.34 118.17 161.64 107.17C167.5 109.91 185.08 118.1 190.94 120.83Z" id="b5v4MuEmRH"></path><path d="M288.47 347.42C286.91 349.89 291.53 364.62 294.87 368.4C299.15 373.11 310.58 372.65 310.91 364.75C311.24 356.85 306.39 343.58 306.39 343.58C300.16 341.09 290.04 344.95 288.47 347.42Z" id="bD4AylWft"></path><path d="M288.47 347.42C286.91 349.89 291.53 364.62 294.87 368.4C299.15 373.11 310.58 372.65 310.91 364.75C311.24 356.85 306.39 343.58 306.39 343.58C300.16 341.09 290.04 344.95 288.47 347.42Z" id="dbht4LWuU"></path><path d="M306.39 343.53C300.16 341.04 290.04 344.9 288.47 347.37C292.21 348.18 296.09 348.18 299.83 347.37C305.82 345.96 305.08 344.29 306.39 343.53Z" id="biYkeF5Xv"></path><path d="M179.12 157.88C179.12 145.79 183.99 133.56 183.99 133.56C183.99 133.56 177.31 138.21 175.03 155.52C175.85 155.99 178.3 157.4 179.12 157.88Z" id="a17nlIpjcq"></path><path d="M298.52 231.32C297.96 221.12 298.15 219.9 298.37 218.2C298.59 216.5 302.67 211.93 302.37 218.2C302.08 224.47 301.09 230.49 301.61 240.24C302.12 250 301.93 266.34 301.93 266.34C300.43 253.54 299.08 241.52 298.52 231.32Z" id="c35wwbWK5t"></path><path d="M298.52 231.32C297.96 221.12 298.15 219.9 298.37 218.2C298.59 216.5 302.67 211.93 302.37 218.2C302.08 224.47 301.09 230.49 301.61 240.24C302.12 250 301.93 266.34 301.93 266.34C300.43 253.54 299.08 241.52 298.52 231.32Z" id="brUzQDzrT"></path><path d="M299.55 272.01C299.41 271.78 299.24 271.57 299.03 271.4C297.02 269.63 294.48 268.58 291.8 268.43C289.75 268.24 287.68 268.35 285.66 268.76C282.43 269.41 278.84 270.55 277.35 273.77C277.22 273.98 277.19 274.24 277.27 274.47C277.47 274.83 278 274.73 278.39 274.57C281.59 273.33 284.98 272.63 288.41 272.5C290.09 272.46 291.78 272.53 293.45 272.69C295.21 273.01 297 273.15 298.79 273.11C299.06 273.1 299.32 272.99 299.51 272.79C299.58 272.69 299.63 272.56 299.64 272.44C299.63 272.29 299.6 272.15 299.55 272.01Z" id="a1zkO0VDIH"></path><path d="M291.7 282.61C290.62 282.89 289.51 283.07 288.4 283.16C287.31 283.23 286.22 283.23 285.13 283.16C284.49 283.16 283.85 283.16 283.23 283.16C282.85 283.1 282.48 283.06 282.1 283.03C281.89 283.03 281.69 283.03 281.47 283.03C281.25 283.03 281.04 283.65 281.24 283.84C282.72 285.28 284.63 286.18 286.68 286.4C287.92 286.52 289.17 286.52 290.41 286.4C292.81 286.17 295.95 285.5 297.66 283.66C298.62 282.5 296.74 280.86 295.68 281.2C294.4 281.64 293.12 282.24 291.7 282.61Z" id="e1u4lEsemC"></path><path d="M298.62 329.02C298.3 329.02 297.97 328.94 297.65 328.92C296.86 328.87 296.07 328.87 295.28 328.92C293.68 329 292.09 329.28 290.55 329.75C288.17 330.45 285.43 331.8 284.47 334.27C284.47 334.4 284.37 334.55 284.32 334.69C284.24 334.9 284.21 335.13 284.21 335.36C284.21 335.58 284.33 335.79 284.51 335.92C284.85 336.04 285.22 335.99 285.51 335.79C285.91 335.59 289.13 333.99 289.53 333.79C290.32 333.44 291.13 333.16 291.96 332.95C292.8 332.67 293.66 332.45 294.52 332.28C295.37 332.16 296.23 332.11 297.08 332.14C298.7 332.32 300.33 332.4 301.96 332.4C302.64 332.34 302.37 331.22 302.13 330.82C301.22 329.81 299.97 329.17 298.62 329.02Z" id="b2qKklUW"></path><path d="M231.23 274.69C230.15 274.75 229.08 274.96 228.06 275.3C224.52 276.65 221.83 279.6 220.83 283.25C220.82 283.28 220.82 283.31 220.83 283.34C221.75 284.46 222.77 285.5 223.87 286.45C223.92 286.31 223.96 286.17 223.99 286.03C224.42 283.55 225.61 281.27 227.39 279.5C228.69 278.26 230.06 277.09 231.49 275.99C231.67 275.87 231.82 275.71 231.94 275.52C232.06 275.33 232.06 275.08 231.94 274.89C231.68 274.72 231.45 274.66 231.23 274.69Z" id="a5nSzY8f7a"></path><path d="M232.59 290.65C233.28 290.83 234.02 290.98 234.8 291.14C235.16 290.52 235.42 289.84 235.56 289.14C235.9 287.4 236.05 285.63 235.98 283.87C236 282.88 235.68 281.92 235.08 281.14C234.98 281.02 234.85 280.91 234.7 280.95C234.55 280.99 234.48 281.22 234.47 281.4C234.28 284.29 233.31 287.07 231.67 289.46C231.49 289.71 231.33 289.97 231.21 290.25C231.48 290.33 232.45 290.61 232.59 290.65Z" id="a1UyBggn35"></path><path d="M301.09 191C302.43 195.09 301.76 199.58 299.29 203.1C298.32 204.28 297.11 202.37 296.88 198.67C296.89 195.06 295.57 191.57 293.18 188.86C290.41 186 289.83 185.41 291.06 184.96C295.46 183.35 300.25 188.2 301.09 191Z" id="b1cuf95eXB"></path><path d="M254.62 203.46C255.56 207.66 258.44 211.16 262.37 212.92C263.81 213.43 263.87 211.17 262.17 207.88C260.33 204.81 259.67 201.17 260.31 197.64C261.24 193.69 261.43 192.88 260.13 193.13C255.53 194 253.91 200.61 254.62 203.46Z" id="b7vD8gKmx6"></path><path d="M319 181.79C320.31 185.22 319.9 189.07 317.9 192.15C317.11 193.19 316.02 191.62 315.69 188.48C315.57 185.4 314.33 182.47 312.19 180.25C309.76 177.92 309.21 177.43 310.23 177C313.93 175.46 318.18 179.43 319 181.79Z" id="bGvDq9um8"></path><path d="M311.63 214.99C312 207.82 316.45 205.73 316.68 207.55C316.92 209.37 314.83 212.58 313.84 219.62C312.92 226.18 312.06 233.42 311.63 242.06C310.82 234.94 311.26 222.16 311.63 214.99Z" id="c2Zz97UKbw"></path><path d="M311.63 214.99C312 207.82 316.45 205.73 316.68 207.55C316.92 209.37 314.83 212.58 313.84 219.62C312.92 226.18 312.06 233.42 311.63 242.06C310.82 234.94 311.26 222.16 311.63 214.99Z" id="ccJYZpOYH"></path><path d="M242.11 292.07C249.16 293.04 256.9 294 263.09 294.63C263.09 293.08 262.21 286.04 262.21 286.04C257.38 282.15 243.85 283.78 243.85 283.78C242.81 286.42 242.22 289.23 242.11 292.07Z" id="aSjav3IDG"></path><path d="M242.11 292.07C249.16 293.04 256.9 294 263.09 294.63C263.09 293.08 262.21 286.04 262.21 286.04C257.38 282.15 243.85 283.78 243.85 283.78C242.81 286.42 242.22 289.23 242.11 292.07Z" id="bypuIZTOl"></path><path d="M245.26 292.49C245.24 289.53 244.77 286.59 243.85 283.78C242.81 286.42 242.22 289.23 242.11 292.07C242.74 292.15 244.95 292.45 245.26 292.49Z" id="bdLvtmI7o"></path><path d="M228.8 228.48C227.52 226.78 226.85 224.9 225.64 223.23C223.53 220.33 222.08 217.84 221.68 217.24C221.27 216.55 218.09 209.83 218.16 213.27C218.34 220.54 222.43 227.06 226.37 233.16C227.53 234.98 229.21 237 228.58 239.39C228.02 241.45 225.79 242.52 223.73 243.1C221.67 243.67 219.42 244.13 218.05 245.76C217.53 246.25 217.39 247.02 217.7 247.65C218.1 248.19 218.91 248.15 219.56 248.06C222.77 247.55 226.04 247.49 229.27 247.9C232.52 248.32 235.55 249.75 237.93 251.99C240.22 254.3 241.95 257.84 241.28 261.03C240.85 262.62 240.05 264.08 238.94 265.29C238.39 265.97 236.86 267.47 237.43 268.13C237.99 268.8 240.51 268.72 241.27 268.77C245.25 269.11 246.55 269.31 249.19 270.69C251.4 271.65 253.29 273.23 254.6 275.25C256.51 277.94 257.59 281.15 258.97 286.03C259.72 288.77 260.3 291.56 260.71 294.37C260.95 294.4 262.84 294.59 263.08 294.62C262.94 291.85 262.52 288.72 262.2 286.03C261.77 282.33 260.51 279.63 260.15 276.1C259.79 272.56 259.14 269.7 258.7 266.34C258.16 262.2 257.77 259.39 257.1 256.1C255.44 247.91 254.54 239.64 252.89 231.45C252.6 229.94 251.61 225.46 249.31 225.84C248.57 226.02 247.95 226.51 247.62 227.19C247.31 227.87 247.09 228.59 246.99 229.32C246.86 229.96 245.84 235.08 245.71 235.72C245.62 236.7 245.26 237.63 244.67 238.41C243.81 239.26 242.57 239.62 241.38 239.35C240.22 239.07 239.13 238.55 238.18 237.82C235.28 235.82 232.69 233.4 230.48 230.66C229.89 229.95 229.34 229.22 228.8 228.48Z" id="e3rm8daFuz"></path><path d="M262.21 286.03C260.76 274.84 258.37 260.21 256.49 248.49C253.84 232.23 253.93 219.05 251 219.05C247.85 219.05 247.71 226.16 249.16 234.47C250.06 239.59 251.07 246.31 252.77 254.53C253.03 256.05 253.18 257.58 253.24 259.12C253.46 260.54 252.74 261.93 251.46 262.57C250.57 262.91 249.64 263.1 248.69 263.13C244.61 263.5 240.37 264.12 236.94 266.37C236.6 266.57 236.29 266.84 236.06 267.16C235.82 267.49 235.77 267.91 235.92 268.29C236.38 269.25 239 268.97 239.86 268.92C241.82 268.79 243.7 268.49 245.68 268.3C250.1 267.85 255.21 269.34 258.19 276.56C260.67 285.9 263.09 294.62 263.09 294.62C263 292.57 262.63 289.25 262.21 286.03Z" id="b42gCXATfS"></path><path d="M262.21 286.03C260.76 274.84 258.37 260.21 256.49 248.49C253.84 232.23 253.93 219.05 251 219.05C247.85 219.05 247.71 226.16 249.16 234.47C250.06 239.59 251.07 246.31 252.77 254.53C253.03 256.05 253.18 257.58 253.24 259.12C253.46 260.54 252.74 261.93 251.46 262.57C250.57 262.91 249.64 263.1 248.69 263.13C244.61 263.5 240.37 264.12 236.94 266.37C236.6 266.57 236.29 266.84 236.06 267.16C235.82 267.49 235.77 267.91 235.92 268.29C236.38 269.25 239 268.97 239.86 268.92C241.82 268.79 243.7 268.49 245.68 268.3C250.1 267.85 255.21 269.34 258.19 276.56C260.67 285.9 263.09 294.62 263.09 294.62C263 292.57 262.63 289.25 262.21 286.03Z" id="aANs4HR8x"></path><path d="M262.52 361.24C261.16 360.46 250.29 354.18 248.93 353.4C248.32 353.08 247.92 352.45 247.9 351.76C247.9 351.04 248.3 350.39 248.93 350.05C249.61 349.66 255.05 346.53 255.73 346.14C258.56 344.67 261.93 344.67 264.77 346.14C264.96 346.25 266.52 347.15 266.71 347.26C267.4 347.63 267.98 348.17 268.4 348.81C268.55 349.04 268.68 349.29 268.77 349.54C269.26 349.58 269.74 349.65 270.21 349.75C271.02 349.92 271.8 350.21 272.52 350.62C272.58 350.65 272.83 350.83 273.3 351.18C273.94 351.66 274.41 352.33 274.63 353.1C274.71 353.35 274.59 352.96 274.67 353.22C274.88 353.94 274.81 354.72 274.48 355.4C274.13 356.13 273.72 356.62 273.26 356.89C272.51 357.33 270 358.78 265.74 361.24L264.98 360.56C268.3 357.2 269.97 355.5 269.99 355.48C270.18 355.27 270.22 355.08 270.18 354.92C270.13 354.76 269.96 354.61 269.83 354.52C269.75 354.46 269.13 354.08 267.98 353.4L262.81 356.21L265.74 357.9L269.99 355.48L271.35 356.67C267.83 359.61 265.96 361.13 265.74 361.24C265.25 361.51 264.69 361.65 264.13 361.64C263.56 361.65 263.01 361.51 262.52 361.24ZM258.3 353.65L263.51 350.64C262.34 349.97 261.69 349.59 261.56 349.52C260.74 349.14 259.81 349.14 259 349.52C258.74 349.67 257.46 350.42 255.16 351.77L258.3 353.65Z" id="c8Tlg6v2t"></path><path d="M231.53 380.09C230.17 379.31 219.31 373.03 217.95 372.25C217.33 371.92 216.93 371.28 216.92 370.57C216.93 369.86 217.33 369.22 217.96 368.91C218.45 368.63 219 368.5 219.55 368.51C220.12 368.5 220.68 368.63 221.18 368.91C221.98 369.37 225.96 371.67 233.15 375.82C238 373.01 240.7 371.46 241.24 371.15C241.72 370.87 242.28 370.74 242.84 370.75C243.4 370.74 243.97 370.88 244.46 371.16C245.09 371.47 245.49 372.12 245.5 372.82C245.49 373.53 245.08 374.17 244.45 374.49C243.48 375.05 235.73 379.53 234.76 380.09C234.27 380.36 233.72 380.5 233.16 380.49C232.57 380.5 232.02 380.37 231.53 380.09Z" id="e2t4bnFvIZ"></path><path d="M246.51 370.28C245.45 369.67 236.91 364.73 235.84 364.11C233.99 363.35 233.11 361.23 233.88 359.38C234.24 358.49 234.95 357.79 235.84 357.42C236.22 357.2 239.3 355.4 239.68 355.18C242.51 353.71 245.88 353.71 248.72 355.18C249.78 355.8 258.32 360.72 259.39 361.34C260.03 361.66 260.43 362.32 260.43 363.04C260.41 363.74 260.01 364.37 259.38 364.68C258.9 364.95 258.35 365.09 257.79 365.09C257.22 365.1 256.66 364.95 256.17 364.68C255.89 364.52 254.48 363.7 251.95 362.25L246.77 365.25C248.53 366.27 249.51 366.83 249.7 366.94C250.62 367.38 251.01 368.48 250.57 369.4C250.39 369.78 250.08 370.09 249.7 370.27C249.22 370.55 248.67 370.69 248.11 370.68C247.56 370.69 247 370.56 246.51 370.28ZM242.3 362.69L247.5 359.69C246.33 359.01 245.67 358.63 245.54 358.56C245.15 358.35 244.71 358.25 244.26 358.26C243.82 358.25 243.38 358.35 242.98 358.56C242.72 358.71 241.43 359.44 239.09 360.77L242.3 362.69Z" id="cfwMYMOFz"></path><path d="M189.6 404.12C188.25 403.33 177.38 397.05 176.02 396.27C175.4 395.95 175.01 395.33 174.99 394.63C174.99 393.92 175.39 393.26 176.02 392.93C176.7 392.54 182.14 389.4 182.82 389.01C185.65 387.54 189.02 387.54 191.86 389.01C192.05 389.12 193.61 390.03 193.8 390.14C194.48 390.51 195.06 391.04 195.49 391.69C195.64 391.92 195.77 392.16 195.86 392.42C196.34 392.45 196.82 392.52 197.3 392.62C198.11 392.79 198.89 393.08 199.61 393.49C199.66 393.52 199.92 393.71 200.39 394.05C201.03 394.53 201.5 395.2 201.72 395.97C201.79 396.22 201.68 395.83 201.76 396.09C201.97 396.82 201.9 397.6 201.57 398.28C201.22 399 200.81 399.5 200.35 399.77C199.6 400.2 197.09 401.65 192.83 404.12L192.07 403.44C195.39 400.07 197.06 398.38 197.08 398.35C197.26 398.15 197.31 397.96 197.27 397.79C197.22 397.63 197.05 397.49 196.92 397.39C196.84 397.33 196.22 396.96 195.07 396.27L189.9 399.09L192.83 400.78L197.08 398.35L198.44 399.55C194.92 402.48 193.05 404.01 192.83 404.12C192.34 404.39 191.78 404.53 191.22 404.51C190.65 404.52 190.1 404.39 189.6 404.12ZM185.39 396.53L190.6 393.52C189.43 392.84 188.77 392.47 188.64 392.39C187.83 392.02 186.9 392.02 186.08 392.39C185.83 392.54 184.55 393.29 182.24 394.64L185.39 396.53Z" id="b16DR3rH53"></path><path d="M207.92 393.36C206.56 392.57 195.69 386.29 194.34 385.51C193.71 385.2 193.31 384.57 193.3 383.87C193.29 383.15 193.7 382.49 194.34 382.17C195.01 381.78 200.44 378.64 201.12 378.25C203.96 376.79 207.33 376.79 210.17 378.25C210.36 378.36 211.91 379.27 212.1 379.38C213.95 380.12 214.85 382.23 214.1 384.08C213.73 384.99 213.01 385.71 212.1 386.07C211.85 386.22 210.57 386.97 208.26 388.33C210.01 389.34 210.99 389.9 211.18 390.02C211.83 390.34 212.23 391 212.23 391.72C212.2 392.41 211.8 393.04 211.18 393.36C210.69 393.63 210.14 393.76 209.58 393.75C208.96 393.77 208.41 393.63 207.92 393.36ZM203.69 385.77L208.89 382.76C207.71 382.08 207.06 381.71 206.93 381.63C206.12 381.25 205.18 381.25 204.37 381.63C204.11 381.78 202.81 382.53 200.47 383.88L203.69 385.77Z" id="b1vTbMc7oY"></path></defs><g><g><g><use xlink:href="#a20hHO20o2" opacity="1" fill="#f5f5f5" fill-opacity="1"></use><g><use xlink:href="#a20hHO20o2" opacity="1" fill-opacity="0" stroke="#000000" stroke-width="1" stroke-opacity="0"></use></g></g><g><use xlink:href="#a35WTqQDO7" opacity="1" fill="#e0e0e0" fill-opacity="1"></use><g><use xlink:href="#a35WTqQDO7" opacity="1" fill-opacity="0" stroke="#000000" stroke-width="1" stroke-opacity="0"></use></g></g><g><use xlink:href="#d1NkgJg5Gf" opacity="1" fill="#f0f0f0" fill-opacity="1"></use><g><use xlink:href="#d1NkgJg5Gf" opacity="1" fill-opacity="0" stroke="#f8f4f4" stroke-width="1" stroke-opacity="0"></use></g></g><g><use xlink:href="#c3mJXrUIq" opacity="1" fill="#f0f0f0" fill-opacity="1"></use><g><use xlink:href="#c3mJXrUIq" opacity="1" fill-opacity="0" stroke="#000000" stroke-width="1" stroke-opacity="0"></use></g></g><g><use xlink:href="#aM7Fw2ejd" opacity="1" fill="#ba68c8" fill-opacity="1"></use><g><use xlink:href="#aM7Fw2ejd" opacity="1" fill-opacity="0" stroke="#000000" stroke-width="1" stroke-opacity="0"></use></g></g><g><use xlink:href="#gd8Ut4BR3" opacity="1" fill="#459e05" fill-opacity="1"></use><g><use xlink:href="#gd8Ut4BR3" opacity="1" fill-opacity="0" stroke="#000000" stroke-width="1" stroke-opacity="0"></use></g></g><g><use xlink:href="#c8K4D6j3jU" opacity="1" fill="#ffffff" fill-opacity="1"></use><g><use xlink:href="#c8K4D6j3jU" opacity="1" fill-opacity="0" stroke="#000000" stroke-width="1" stroke-opacity="0"></use></g></g><g><use xlink:href="#a2owdm1akA" opacity="1" fill="#ba68c8" fill-opacity="1"></use><g><use xlink:href="#a2owdm1akA" opacity="1" fill-opacity="0" stroke="#000000" stroke-width="1" stroke-opacity="0"></use></g></g><g><use xlink:href="#bayhBDXe2n" opacity="1" fill="#38ce62" fill-opacity="1"></use><g><use xlink:href="#bayhBDXe2n" opacity="1" fill-opacity="0" stroke="#000000" stroke-width="1" stroke-opacity="0"></use></g></g><g><use xlink:href="#a5rd8wU3P" opacity="1" fill="#ffffff" fill-opacity="1"></use><g><use xlink:href="#a5rd8wU3P" opacity="1" fill-opacity="0" stroke="#000000" stroke-width="1" stroke-opacity="0"></use></g></g><g><use xlink:href="#b2anjoxjEy" opacity="1" fill="#ffffff" fill-opacity="1"></use><g><use xlink:href="#b2anjoxjEy" opacity="1" fill-opacity="0" stroke="#000000" stroke-width="1" stroke-opacity="0"></use></g></g><g><use xlink:href="#cNtaKBpZx" opacity="1" fill="#ba68c8" fill-opacity="1"></use><g><use xlink:href="#cNtaKBpZx" opacity="1" fill-opacity="0" stroke="#000000" stroke-width="1" stroke-opacity="0"></use></g></g><g><use xlink:href="#b7WTQ69Ty8" opacity="1" fill="#4bc807" fill-opacity="1"></use><g><use xlink:href="#b7WTQ69Ty8" opacity="1" fill-opacity="0" stroke="#000000" stroke-width="1" stroke-opacity="0"></use></g></g><g><use xlink:href="#catAnan3w" opacity="1" fill="#ffffff" fill-opacity="1"></use><g><use xlink:href="#catAnan3w" opacity="1" fill-opacity="0" stroke="#000000" stroke-width="1" stroke-opacity="0"></use></g></g><g><use xlink:href="#d4td3QiMZn" opacity="1" fill="#ba68c8" fill-opacity="1"></use><g><use xlink:href="#d4td3QiMZn" opacity="1" fill-opacity="0" stroke="#000000" stroke-width="1" stroke-opacity="0"></use></g></g><g><use xlink:href="#d9UMBWN52" opacity="1" fill="#247b2e" fill-opacity="1"></use><g><use xlink:href="#d9UMBWN52" opacity="1" fill-opacity="0" stroke="#000000" stroke-width="1" stroke-opacity="0"></use></g></g><g><use xlink:href="#bUCOiTdTX" opacity="1" fill="#ffffff" fill-opacity="1"></use><g><use xlink:href="#bUCOiTdTX" opacity="1" fill-opacity="0" stroke="#000000" stroke-width="1" stroke-opacity="0"></use></g></g><g><use xlink:href="#bjgtKEnv" opacity="1" fill="#ba68c8" fill-opacity="1"></use><g><use xlink:href="#bjgtKEnv" opacity="1" fill-opacity="0" stroke="#000000" stroke-width="1" stroke-opacity="0"></use></g></g><g><use xlink:href="#b1NsfKo0ny" opacity="1" fill="#b0a5a5" fill-opacity="1"></use><g><use xlink:href="#b1NsfKo0ny" opacity="1" fill-opacity="0" stroke="#000000" stroke-width="1" stroke-opacity="0"></use></g></g><g><use xlink:href="#dz5FOwjLF" opacity="1" fill="#b0a5a5" fill-opacity="1"></use><g><use xlink:href="#dz5FOwjLF" opacity="1" fill-opacity="0" stroke="#000000" stroke-width="1" stroke-opacity="0"></use></g></g><g><use xlink:href="#f3IFcOs8Y" opacity="1" fill="#ba68c8" fill-opacity="1"></use><g><use xlink:href="#f3IFcOs8Y" opacity="1" fill-opacity="0" stroke="#000000" stroke-width="1" stroke-opacity="0"></use></g></g><g><use xlink:href="#a1SjZwbZXm" opacity="1" fill="#c6bbbb" fill-opacity="1"></use><g><use xlink:href="#a1SjZwbZXm" opacity="1" fill-opacity="0" stroke="#000000" stroke-width="1" stroke-opacity="0"></use></g></g><g><use xlink:href="#b19a9pcdTK" opacity="1" fill="#37474f" fill-opacity="1"></use><g><use xlink:href="#b19a9pcdTK" opacity="1" fill-opacity="0" stroke="#000000" stroke-width="1" stroke-opacity="0"></use></g></g><g><use xlink:href="#kND8DAc7L" opacity="1" fill="#263238" fill-opacity="1"></use><g><use xlink:href="#kND8DAc7L" opacity="1" fill-opacity="0" stroke="#000000" stroke-width="1" stroke-opacity="0"></use></g></g><g><use xlink:href="#a2EyB3j3wX" opacity="1" fill="#5297b7" fill-opacity="1"></use><g><use xlink:href="#a2EyB3j3wX" opacity="1" fill-opacity="0" stroke="#000000" stroke-width="1" stroke-opacity="0"></use></g></g><g><use xlink:href="#d5LwDLGesy" opacity="1" fill="#37474f" fill-opacity="1"></use><g><use xlink:href="#d5LwDLGesy" opacity="1" fill-opacity="0" stroke="#000000" stroke-width="1" stroke-opacity="0"></use></g></g><g><use xlink:href="#c1VwEMOXy8" opacity="1" fill="#37474f" fill-opacity="1"></use><g><use xlink:href="#c1VwEMOXy8" opacity="1" fill-opacity="0" stroke="#000000" stroke-width="1" stroke-opacity="0"></use></g></g><g><use xlink:href="#i1OYBI4xS" opacity="1" fill="#37474f" fill-opacity="1"></use><g><use xlink:href="#i1OYBI4xS" opacity="1" fill-opacity="0" stroke="#000000" stroke-width="1" stroke-opacity="0"></use></g></g><g><use xlink:href="#bOUjMI7DM" opacity="1" fill="#37474f" fill-opacity="1"></use><g><use xlink:href="#bOUjMI7DM" opacity="1" fill-opacity="0" stroke="#000000" stroke-width="1" stroke-opacity="0"></use></g></g><g><use xlink:href="#a14tT36Xam" opacity="1" fill="#37474f" fill-opacity="1"></use><g><use xlink:href="#a14tT36Xam" opacity="1" fill-opacity="0" stroke="#000000" stroke-width="1" stroke-opacity="0"></use></g></g><g><use xlink:href="#bqanpghX0" opacity="1" fill="#ba68c8" fill-opacity="1"></use><g><use xlink:href="#bqanpghX0" opacity="1" fill-opacity="0" stroke="#000000" stroke-width="1" stroke-opacity="0"></use></g></g><g><use xlink:href="#dAKa0GXED" opacity="1" fill="#000000" fill-opacity="1"></use><g><use xlink:href="#dAKa0GXED" opacity="1" fill-opacity="0" stroke="#000000" stroke-width="1" stroke-opacity="0"></use></g></g><g><use xlink:href="#a29mTtiOBX" opacity="1" fill="#ba68c8" fill-opacity="1"></use><g><use xlink:href="#a29mTtiOBX" opacity="1" fill-opacity="0" stroke="#000000" stroke-width="1" stroke-opacity="0"></use></g></g><g><use xlink:href="#c2QOfFwNjG" opacity="1" fill="#000000" fill-opacity="1"></use><g><use xlink:href="#c2QOfFwNjG" opacity="1" fill-opacity="0" stroke="#000000" stroke-width="1" stroke-opacity="0"></use></g></g><g><use xlink:href="#b6qkoOjXV" opacity="1" fill="#ba68c8" fill-opacity="1"></use><g><use xlink:href="#b6qkoOjXV" opacity="1" fill-opacity="0" stroke="#000000" stroke-width="1" stroke-opacity="0"></use></g></g><g><use xlink:href="#aWu6CDabg" opacity="1" fill="#000000" fill-opacity="1"></use><g><use xlink:href="#aWu6CDabg" opacity="1" fill-opacity="0" stroke="#000000" stroke-width="1" stroke-opacity="0"></use></g></g><g><use xlink:href="#a187sM7k5U" opacity="1" fill="#ba68c8" fill-opacity="1"></use><g><use xlink:href="#a187sM7k5U" opacity="1" fill-opacity="0" stroke="#000000" stroke-width="1" stroke-opacity="0"></use></g></g><g><use xlink:href="#f4H7JPegI" opacity="1" fill="#000000" fill-opacity="1"></use><g><use xlink:href="#f4H7JPegI" opacity="1" fill-opacity="0" stroke="#000000" stroke-width="1" stroke-opacity="0"></use></g></g><g><use xlink:href="#i2JOjVUJxf" opacity="1" fill="#e0e0e0" fill-opacity="1"></use><g><use xlink:href="#i2JOjVUJxf" opacity="1" fill-opacity="0" stroke="#000000" stroke-width="1" stroke-opacity="0"></use></g></g><g><use xlink:href="#bcukOhYir" opacity="1" fill="#f0f0f0" fill-opacity="1"></use><g><use xlink:href="#bcukOhYir" opacity="1" fill-opacity="0" stroke="#000000" stroke-width="1" stroke-opacity="0"></use></g></g><g><use xlink:href="#a5tfZCZIa" opacity="1" fill="#ba68c8" fill-opacity="1"></use><g><use xlink:href="#a5tfZCZIa" opacity="1" fill-opacity="0" stroke="#000000" stroke-width="1" stroke-opacity="0"></use></g></g><g><use xlink:href="#b4tCl31oM" opacity="1" fill="#809aa5" fill-opacity="1"></use><g><use xlink:href="#b4tCl31oM" opacity="1" fill-opacity="0" stroke="#000000" stroke-width="1" stroke-opacity="0"></use></g></g><g><use xlink:href="#b292IOqusd" opacity="1" fill="#809aa5" fill-opacity="1"></use><g><use xlink:href="#b292IOqusd" opacity="1" fill-opacity="0" stroke="#000000" stroke-width="1" stroke-opacity="0"></use></g></g><g><use xlink:href="#a4aFyuVau" opacity="1" fill="#809aa5" fill-opacity="1"></use><g><use xlink:href="#a4aFyuVau" opacity="1" fill-opacity="0" stroke="#000000" stroke-width="1" stroke-opacity="0"></use></g></g><g><use xlink:href="#e1kOcXnSSX" opacity="1" fill="#1b60e6" fill-opacity="1"></use><g><use xlink:href="#e1kOcXnSSX" opacity="1" fill-opacity="0" stroke="#000000" stroke-width="1" stroke-opacity="0"></use></g></g><g><use xlink:href="#e2I1CHw0jL" opacity="1" fill="#fafafa" fill-opacity="1"></use><g><use xlink:href="#e2I1CHw0jL" opacity="1" fill-opacity="0" stroke="#000000" stroke-width="1" stroke-opacity="0"></use></g></g><g><use xlink:href="#c7sYJblgl" opacity="1" fill="#f9ce55" fill-opacity="1"></use><g><use xlink:href="#c7sYJblgl" opacity="1" fill-opacity="0" stroke="#000000" stroke-width="1" stroke-opacity="0"></use></g></g><g><use xlink:href="#emEoVzKUn" opacity="1" fill="#f9ce55" fill-opacity="1"></use><g><use xlink:href="#emEoVzKUn" opacity="1" fill-opacity="0" stroke="#000000" stroke-width="1" stroke-opacity="0"></use></g></g><g><use xlink:href="#a10FmexXbG" opacity="1" fill="#f9ce55" fill-opacity="1"></use><g><use xlink:href="#a10FmexXbG" opacity="1" fill-opacity="0" stroke="#000000" stroke-width="1" stroke-opacity="0"></use></g></g><g><use xlink:href="#a2ko25saV" opacity="1" fill="#f9ce55" fill-opacity="1"></use><g><use xlink:href="#a2ko25saV" opacity="1" fill-opacity="0" stroke="#000000" stroke-width="1" stroke-opacity="0"></use></g></g><g><use xlink:href="#afpjvRIjM" opacity="1" fill="#f9ce55" fill-opacity="1"></use><g><use xlink:href="#afpjvRIjM" opacity="1" fill-opacity="0" stroke="#000000" stroke-width="1" stroke-opacity="0"></use></g></g><g><use xlink:href="#e1dBX8QB5e" opacity="1" fill="#f9ce55" fill-opacity="1"></use><g><use xlink:href="#e1dBX8QB5e" opacity="1" fill-opacity="0" stroke="#000000" stroke-width="1" stroke-opacity="0"></use></g></g><g><use xlink:href="#e1VbUn79a8" opacity="1" fill="#f9ce55" fill-opacity="1"></use><g><use xlink:href="#e1VbUn79a8" opacity="1" fill-opacity="0" stroke="#000000" stroke-width="1" stroke-opacity="0"></use></g></g><g><use xlink:href="#c1p2HxxJPw" opacity="1" fill="#f9ce55" fill-opacity="1"></use><g><use xlink:href="#c1p2HxxJPw" opacity="1" fill-opacity="0" stroke="#000000" stroke-width="1" stroke-opacity="0"></use></g></g><g><use xlink:href="#a2cF7fKPf9" opacity="1" fill="#f9ce55" fill-opacity="1"></use><g><use xlink:href="#a2cF7fKPf9" opacity="1" fill-opacity="0" stroke="#000000" stroke-width="1" stroke-opacity="0"></use></g></g><g><use xlink:href="#a3bpx07yig" opacity="1" fill="#f9ce55" fill-opacity="1"></use><g><use xlink:href="#a3bpx07yig" opacity="1" fill-opacity="0" stroke="#000000" stroke-width="1" stroke-opacity="0"></use></g></g><g><use xlink:href="#e1RcIwYBSL" opacity="1" fill="#f9ce55" fill-opacity="1"></use><g><use xlink:href="#e1RcIwYBSL" opacity="1" fill-opacity="0" stroke="#000000" stroke-width="1" stroke-opacity="0"></use></g></g><g><use xlink:href="#e4oGapUiC" opacity="1" fill="#f9ce55" fill-opacity="1"></use><g><use xlink:href="#e4oGapUiC" opacity="1" fill-opacity="0" stroke="#000000" stroke-width="1" stroke-opacity="0"></use></g></g><g><use xlink:href="#f3rNC5mqDG" opacity="1" fill="#f9ce55" fill-opacity="1"></use><g><use xlink:href="#f3rNC5mqDG" opacity="1" fill-opacity="0" stroke="#000000" stroke-width="1" stroke-opacity="0"></use></g></g><g><use xlink:href="#aZn0MIWeL" opacity="1" fill="#f9ce55" fill-opacity="1"></use><g><use xlink:href="#aZn0MIWeL" opacity="1" fill-opacity="0" stroke="#000000" stroke-width="1" stroke-opacity="0"></use></g></g><g><use xlink:href="#a1XlI9TL5C" opacity="1" fill="#f9ce55" fill-opacity="1"></use><g><use xlink:href="#a1XlI9TL5C" opacity="1" fill-opacity="0" stroke="#000000" stroke-width="1" stroke-opacity="0"></use></g></g><g><use xlink:href="#a1uJoKnVHd" opacity="1" fill="#f9ce55" fill-opacity="1"></use><g><use xlink:href="#a1uJoKnVHd" opacity="1" fill-opacity="0" stroke="#000000" stroke-width="1" stroke-opacity="0"></use></g></g><g><use xlink:href="#bmAaFOfx5" opacity="1" fill="#f9ce55" fill-opacity="1"></use><g><use xlink:href="#bmAaFOfx5" opacity="1" fill-opacity="0" stroke="#000000" stroke-width="1" stroke-opacity="0"></use></g></g><g><use xlink:href="#a1VkOuVAe" opacity="1" fill="#f9ce55" fill-opacity="1"></use><g><use xlink:href="#a1VkOuVAe" opacity="1" fill-opacity="0" stroke="#000000" stroke-width="1" stroke-opacity="0"></use></g></g><g><use xlink:href="#e5afU6TjoP" opacity="1" fill="#dea2f2" fill-opacity="1"></use><g><use xlink:href="#e5afU6TjoP" opacity="1" fill-opacity="0" stroke="#000000" stroke-width="1" stroke-opacity="0"></use></g></g><g><use xlink:href="#kSOfeG7GF" opacity="1" fill="#ba68c8" fill-opacity="1"></use><g><use xlink:href="#kSOfeG7GF" opacity="1" fill-opacity="0" stroke="#000000" stroke-width="1" stroke-opacity="0"></use></g></g><g><use xlink:href="#a8YsZSHsi" opacity="1" fill="#ddcfcf" fill-opacity="1"></use><g><use xlink:href="#a8YsZSHsi" opacity="1" fill-opacity="0" stroke="#000000" stroke-width="1" stroke-opacity="0"></use></g></g><g><use xlink:href="#bpcaawcSa" opacity="1" fill="#a8acad" fill-opacity="1"></use><g><use xlink:href="#bpcaawcSa" opacity="1" fill-opacity="0" stroke="#000000" stroke-width="1" stroke-opacity="0"></use></g></g><g><use xlink:href="#b5X8LxqEH" opacity="1" fill="#eccfb0" fill-opacity="1"></use><g><use xlink:href="#b5X8LxqEH" opacity="1" fill-opacity="0" stroke="#000000" stroke-width="1" stroke-opacity="0"></use></g></g><g><use xlink:href="#b12uNgoOhu" opacity="1" fill="#d5ba9d" fill-opacity="1"></use><g><use xlink:href="#b12uNgoOhu" opacity="1" fill-opacity="0" stroke="#000000" stroke-width="1" stroke-opacity="0"></use></g></g><g><g><use xlink:href="#b5v4MuEmRH" opacity="1" fill-opacity="0" stroke="#000000" stroke-width="1" stroke-opacity="0"></use></g></g><g><use xlink:href="#bD4AylWft" opacity="1" fill="#ffa8a7" fill-opacity="1"></use><g><use xlink:href="#bD4AylWft" opacity="1" fill-opacity="0" stroke="#000000" stroke-width="1" stroke-opacity="0"></use></g></g><g><use xlink:href="#dbht4LWuU" opacity="1" fill="#ffffff" fill-opacity="1"></use><g><use xlink:href="#dbht4LWuU" opacity="1" fill-opacity="0" stroke="#000000" stroke-width="1" stroke-opacity="0"></use></g></g><g><use xlink:href="#biYkeF5Xv" opacity="1" fill="#d5ba9d" fill-opacity="1"></use><g><use xlink:href="#biYkeF5Xv" opacity="1" fill-opacity="0" stroke="#000000" stroke-width="1" stroke-opacity="0"></use></g></g><g><use xlink:href="#a17nlIpjcq" opacity="1" fill="#d5ba9d" fill-opacity="1"></use><g><use xlink:href="#a17nlIpjcq" opacity="1" fill-opacity="0" stroke="#000000" stroke-width="1" stroke-opacity="0"></use></g></g><g><use xlink:href="#c35wwbWK5t" opacity="1" fill="#ffa8a7" fill-opacity="1"></use><g><use xlink:href="#c35wwbWK5t" opacity="1" fill-opacity="0" stroke="#000000" stroke-width="1" stroke-opacity="0"></use></g></g><g><use xlink:href="#brUzQDzrT" opacity="1" fill="#ddbd9b" fill-opacity="1"></use><g><use xlink:href="#brUzQDzrT" opacity="1" fill-opacity="0" stroke="#000000" stroke-width="1" stroke-opacity="0"></use></g></g><g><use xlink:href="#a1zkO0VDIH" opacity="1" fill="#d5ba9d" fill-opacity="1"></use><g><use xlink:href="#a1zkO0VDIH" opacity="1" fill-opacity="0" stroke="#000000" stroke-width="1" stroke-opacity="0"></use></g></g><g><use xlink:href="#e1u4lEsemC" opacity="1" fill="#d5ba9d" fill-opacity="1"></use><g><use xlink:href="#e1u4lEsemC" opacity="1" fill-opacity="0" stroke="#000000" stroke-width="1" stroke-opacity="0"></use></g></g><g><use xlink:href="#b2qKklUW" opacity="1" fill="#d5ba9d" fill-opacity="1"></use><g><use xlink:href="#b2qKklUW" opacity="1" fill-opacity="0" stroke="#000000" stroke-width="1" stroke-opacity="0"></use></g></g><g><use xlink:href="#a5nSzY8f7a" opacity="1" fill="#d5ba9d" fill-opacity="1"></use><g><use xlink:href="#a5nSzY8f7a" opacity="1" fill-opacity="0" stroke="#000000" stroke-width="1" stroke-opacity="0"></use></g></g><g><use xlink:href="#a1UyBggn35" opacity="1" fill="#d5ba9d" fill-opacity="1"></use><g><use xlink:href="#a1UyBggn35" opacity="1" fill-opacity="0" stroke="#000000" stroke-width="1" stroke-opacity="0"></use></g></g><g><use xlink:href="#b1cuf95eXB" opacity="1" fill="#d5ba9d" fill-opacity="1"></use><g><use xlink:href="#b1cuf95eXB" opacity="1" fill-opacity="0" stroke="#000000" stroke-width="1" stroke-opacity="0"></use></g></g><g><use xlink:href="#b7vD8gKmx6" opacity="1" fill="#d5ba9d" fill-opacity="1"></use><g><use xlink:href="#b7vD8gKmx6" opacity="1" fill-opacity="0" stroke="#000000" stroke-width="1" stroke-opacity="0"></use></g></g><g><use xlink:href="#bGvDq9um8" opacity="1" fill="#d5ba9d" fill-opacity="1"></use><g><use xlink:href="#bGvDq9um8" opacity="1" fill-opacity="0" stroke="#000000" stroke-width="1" stroke-opacity="0"></use></g></g><g><use xlink:href="#c2Zz97UKbw" opacity="1" fill="#ffa8a7" fill-opacity="1"></use><g><use xlink:href="#c2Zz97UKbw" opacity="1" fill-opacity="0" stroke="#000000" stroke-width="1" stroke-opacity="0"></use></g></g><g><use xlink:href="#ccJYZpOYH" opacity="1" fill="#ddc0a1" fill-opacity="1"></use><g><use xlink:href="#ccJYZpOYH" opacity="1" fill-opacity="0" stroke="#000000" stroke-width="1" stroke-opacity="0"></use></g></g><g><use xlink:href="#aSjav3IDG" opacity="1" fill="#ffa8a7" fill-opacity="1"></use><g><use xlink:href="#aSjav3IDG" opacity="1" fill-opacity="0" stroke="#000000" stroke-width="1" stroke-opacity="0"></use></g></g><g><use xlink:href="#bypuIZTOl" opacity="1" fill="#ffffff" fill-opacity="1"></use><g><use xlink:href="#bypuIZTOl" opacity="1" fill-opacity="0" stroke="#000000" stroke-width="1" stroke-opacity="0"></use></g></g><g><use xlink:href="#bdLvtmI7o" opacity="1" fill="#d5ba9d" fill-opacity="1"></use><g><use xlink:href="#bdLvtmI7o" opacity="1" fill-opacity="0" stroke="#000000" stroke-width="1" stroke-opacity="0"></use></g></g><g><use xlink:href="#e3rm8daFuz" opacity="1" fill="#d5ba9d" fill-opacity="1"></use><g><use xlink:href="#e3rm8daFuz" opacity="1" fill-opacity="0" stroke="#000000" stroke-width="1" stroke-opacity="0"></use></g></g><g><use xlink:href="#b42gCXATfS" opacity="1" fill="#ffa8a7" fill-opacity="1"></use><g><use xlink:href="#b42gCXATfS" opacity="1" fill-opacity="0" stroke="#000000" stroke-width="1" stroke-opacity="0"></use></g></g><g><use xlink:href="#aANs4HR8x" opacity="1" fill="#c3aa8f" fill-opacity="1"></use><g><use xlink:href="#aANs4HR8x" opacity="1" fill-opacity="0" stroke="#000000" stroke-width="1" stroke-opacity="0"></use></g></g><g><use xlink:href="#c8Tlg6v2t" opacity="1" fill="#203bc8" fill-opacity="1"></use><g><use xlink:href="#c8Tlg6v2t" opacity="1" fill-opacity="0" stroke="#000000" stroke-width="1" stroke-opacity="0"></use></g></g><g><use xlink:href="#e2t4bnFvIZ" opacity="1" fill="#203bc8" fill-opacity="1"></use><g><use xlink:href="#e2t4bnFvIZ" opacity="1" fill-opacity="0" stroke="#000000" stroke-width="1" stroke-opacity="0"></use></g></g><g><use xlink:href="#cfwMYMOFz" opacity="1" fill="#203bc8" fill-opacity="1"></use><g><use xlink:href="#cfwMYMOFz" opacity="1" fill-opacity="0" stroke="#000000" stroke-width="1" stroke-opacity="0"></use></g></g><g><use xlink:href="#b16DR3rH53" opacity="1" fill="#203bc8" fill-opacity="1"></use><g><use xlink:href="#b16DR3rH53" opacity="1" fill-opacity="0" stroke="#000000" stroke-width="1" stroke-opacity="0"></use></g></g><g><use xlink:href="#b1vTbMc7oY" opacity="1" fill="#203bc8" fill-opacity="1"></use><g><use xlink:href="#b1vTbMc7oY" opacity="1" fill-opacity="0" stroke="#000000" stroke-width="1" stroke-opacity="0"></use></g></g></g></g></svg>