<?xml version="1.0" encoding="UTF-8" standalone="no"?>
<!DOCTYPE svg PUBLIC "-//W3C//DTD SVG 1.1//EN" "http://www.w3.org/Graphics/SVG/1.1/DTD/svg11.dtd">
<svg version="1.1" xmlns="http://www.w3.org/2000/svg" xmlns:xlink="http://www.w3.org/1999/xlink" preserveAspectRatio="xMidYMid meet" viewBox="0 0 640 640" width="640" height="640"><defs><path d="M640 489.47C640 489.47 640 489.47 640 489.47C640 489.66 640 489.77 640 489.79C640 489.79 640 489.79 640 489.79C256 489.79 42.67 489.79 0 489.79C0 489.79 0 489.79 0 489.79C0 489.6 0 489.49 0 489.47C0 489.47 0 489.47 0 489.47C384 489.47 597.33 489.47 640 489.47Z" id="bcICDbm4U"></path><path d="M569.93 504.13C569.93 504.13 569.93 504.13 569.93 504.13C569.93 504.32 569.93 504.43 569.93 504.45C569.93 504.45 569.93 504.45 569.93 504.45C530.84 504.45 509.12 504.45 504.78 504.45C504.78 504.45 504.78 504.45 504.78 504.45C504.78 504.26 504.78 504.15 504.78 504.13C504.78 504.13 504.78 504.13 504.78 504.13C543.87 504.13 565.59 504.13 569.93 504.13Z" id="a1yWsHzJT4"></path><path d="M127.58 500.34C127.58 500.34 127.58 500.34 127.58 500.34C127.58 500.53 127.58 500.64 127.58 500.66C127.58 500.66 127.58 500.66 127.58 500.66C91.32 500.66 71.18 500.66 67.15 500.66C67.15 500.66 67.15 500.66 67.15 500.66C67.15 500.47 67.15 500.36 67.15 500.34C67.15 500.34 67.15 500.34 67.15 500.34C103.41 500.34 123.55 500.34 127.58 500.34Z" id="aeokpLDYm"></path><path d="M509.44 498.19C509.44 498.19 509.44 498.19 509.44 498.19C509.44 498.38 509.44 498.49 509.44 498.51C509.44 498.51 509.44 498.51 509.44 498.51C494.7 498.51 486.51 498.51 484.88 498.51C484.88 498.51 484.88 498.51 484.88 498.51C484.88 498.32 484.88 498.21 484.88 498.19C484.88 498.19 484.88 498.19 484.88 498.19C499.61 498.19 507.8 498.19 509.44 498.19Z" id="d5RBG7C0u"></path><path d="M423.96 506.68C423.96 506.68 423.96 506.68 423.96 506.68C423.96 506.87 423.96 506.97 423.96 507C423.96 507 423.96 507 423.96 507C413.15 507 407.14 507 405.94 507C405.94 507 405.94 507 405.94 507C405.94 506.8 405.94 506.7 405.94 506.68C405.94 506.68 405.94 506.68 405.94 506.68C416.75 506.68 422.76 506.68 423.96 506.68Z" id="a1P99widu"></path><path d="M394.53 506.68C394.53 506.68 394.53 506.68 394.53 506.68C394.53 506.87 394.53 506.97 394.53 507C394.53 507 394.53 507 394.53 507C367.32 507 352.2 507 349.17 507C349.17 507 349.17 507 349.17 507C349.17 506.8 349.17 506.7 349.17 506.68C349.17 506.68 349.17 506.68 349.17 506.68C376.39 506.68 391.51 506.68 394.53 506.68Z" id="acLF9dal0"></path><path d="M322.83 501.27C322.83 501.27 322.83 501.27 322.83 501.27C322.83 501.47 322.83 501.57 322.83 501.59C322.83 501.59 322.83 501.59 322.83 501.59C279.06 501.59 254.74 501.59 249.88 501.59C249.88 501.59 249.88 501.59 249.88 501.59C249.88 501.4 249.88 501.29 249.88 501.27C249.88 501.27 249.88 501.27 249.88 501.27C293.65 501.27 317.97 501.27 322.83 501.27Z" id="ecO5QsTUv"></path><path d="M56.22 432.38C52.18 432.38 48.91 429.11 48.91 425.08C48.91 390.33 48.91 112.39 48.91 77.64C48.94 73.63 52.21 70.4 56.22 70.4C80.93 70.4 278.65 70.4 303.36 70.4C307.4 70.4 310.67 73.67 310.67 77.71C310.67 77.71 310.67 77.71 310.67 77.71C310.67 112.45 310.67 390.34 310.67 425.08C310.67 429.11 307.4 432.38 303.36 432.38C303.36 432.38 303.36 432.38 303.36 432.38C253.93 432.38 80.93 432.38 56.22 432.38ZM56.22 70.66C52.36 70.66 49.24 73.79 49.23 77.64C49.23 112.39 49.23 390.33 49.23 425.08C49.24 428.93 52.36 432.06 56.22 432.06C80.93 432.06 278.65 432.06 303.36 432.06C307.22 432.06 310.34 428.93 310.35 425.08C310.35 390.33 310.35 112.39 310.35 77.64C310.34 73.79 307.22 70.66 303.36 70.66C253.93 70.66 105.65 70.66 56.22 70.66Z" id="bvYAe30ZH"></path><path d="M333.07 432.38C329.04 432.38 325.77 429.11 325.76 425.08C325.76 390.33 325.76 112.39 325.76 77.64C325.8 73.64 329.06 70.41 333.07 70.4C357.79 70.4 555.52 70.4 580.24 70.4C584.24 70.41 587.48 73.64 587.52 77.64C587.52 112.39 587.52 390.33 587.52 425.08C587.52 429.1 584.26 432.37 580.24 432.38C580.24 432.38 357.79 432.38 333.07 432.38ZM333.07 70.66C329.21 70.66 326.09 73.79 326.08 77.64C326.08 112.39 326.08 390.33 326.08 425.08C326.09 428.93 329.21 432.06 333.07 432.06C357.79 432.06 555.52 432.06 580.24 432.06C584.09 432.06 587.22 428.93 587.23 425.08C587.23 390.33 587.23 112.39 587.23 77.64C587.22 73.79 584.09 70.66 580.24 70.66C530.8 70.66 382.5 70.66 333.07 70.66Z" id="b69QBA3wWC"></path><path d="M229.79 123.88C229.79 123.88 229.79 123.88 229.79 123.88C229.79 343.23 229.79 465.1 229.79 489.47C229.79 489.47 229.79 489.47 229.79 489.47C132.2 489.47 77.99 489.47 67.15 489.47C67.15 489.47 67.15 489.47 67.15 489.47C67.15 270.12 67.15 148.25 67.15 123.88C67.15 123.88 67.15 123.88 67.15 123.88C164.73 123.88 218.94 123.88 229.79 123.88Z" id="b3LZFzDh"></path><path d="M229.79 123.88C229.79 123.88 229.79 123.88 229.79 123.88C229.79 343.23 229.79 465.1 229.79 489.47C229.79 489.47 229.79 489.47 229.79 489.47C134.26 489.47 81.19 489.47 70.58 489.47C70.58 489.47 70.58 489.47 70.58 489.47C70.58 270.12 70.58 148.25 70.58 123.88C70.58 123.88 70.58 123.88 70.58 123.88C166.1 123.88 219.17 123.88 229.79 123.88Z" id="b1p2Q2SchZ"></path><path d="M221.23 481.18C221.23 481.18 221.23 481.18 221.23 481.18C137.35 481.18 90.75 481.18 81.43 481.18C81.43 481.18 81.43 481.18 81.43 481.18C81.43 271.77 81.43 155.44 81.43 132.17C81.43 132.17 81.43 132.17 81.43 132.17C165.31 132.17 211.91 132.17 221.23 132.17C221.23 132.17 221.23 132.17 221.23 132.17C221.23 341.58 221.23 457.91 221.23 481.18Z" id="a1zqv5rlm"></path><path d="M195.43 193.43L104.93 193.43C104.93 184.52 104.93 179.56 104.93 178.57C104.93 164.2 116.59 152.55 130.96 152.55C134.8 152.55 165.57 152.55 169.42 152.55C183.79 152.56 195.43 164.21 195.43 178.57C195.43 178.57 195.43 183.53 195.43 193.43Z" id="b9QEjkFYH"></path><path d="M206.35 446.23C206.35 455.07 201.93 459.48 193.1 459.48C141.61 459.48 113 459.48 107.28 459.48C98.44 459.48 94.03 455.07 94.03 446.23C94.03 412.1 94.03 393.14 94.03 389.35C94.03 380.52 98.44 376.1 107.28 376.1C158.77 376.1 187.38 376.1 193.1 376.1C201.93 376.1 206.35 380.52 206.35 389.35C206.35 423.48 206.35 442.44 206.35 446.23Z" id="a1YxrqyjG"></path><path d="M107.26 359.8C98.43 359.8 94.02 355.38 94.02 346.55C94.02 275.59 94.02 236.17 94.02 228.29C94.02 219.46 98.43 215.04 107.26 215.04C121.1 215.04 128.78 215.04 130.32 215.04C139.15 215.04 143.56 219.46 143.56 228.29C143.56 299.24 143.56 338.66 143.56 346.55C143.56 355.38 139.15 359.8 130.32 359.8C116.49 359.8 108.8 359.8 107.26 359.8Z" id="bNogEC8Rp"></path><path d="M170.05 359.8C161.22 359.8 156.8 355.38 156.8 346.55C156.8 275.59 156.8 236.17 156.8 228.29C156.8 219.46 161.22 215.04 170.05 215.04C183.88 215.04 191.56 215.04 193.1 215.04C201.93 215.04 206.35 219.46 206.35 228.29C206.35 299.24 206.35 338.66 206.35 346.55C206.35 355.38 201.93 359.8 193.1 359.8C179.27 359.8 171.58 359.8 170.05 359.8Z" id="cPUGOxzGL"></path><path d="M203.74 299.29C208.33 299.29 212.04 295.57 212.04 290.98C212.04 286.39 208.33 282.68 203.74 282.68C199.15 282.68 195.43 286.39 195.43 290.98C195.43 290.98 195.43 290.98 195.43 290.98C195.43 295.57 199.15 299.29 203.74 299.29Z" id="bcJjhkbDs"></path><path d="M220.07 481.18C220.07 481.18 220.07 481.18 220.07 481.18C218.56 481.18 217.72 481.18 217.55 481.18C217.55 481.18 217.55 481.18 217.55 481.18C217.55 271.77 217.55 155.44 217.55 132.17C217.55 132.17 217.55 132.17 217.55 132.17C219.06 132.17 219.9 132.17 220.07 132.17C220.07 132.17 220.07 132.17 220.07 132.17C220.07 341.58 220.07 457.91 220.07 481.18Z" id="aeU9cavJJ"></path><path d="M544.87 334.28C544.87 334.28 544.87 334.28 544.87 334.28C544.87 427.4 544.87 479.13 544.87 489.47C544.87 489.47 544.87 489.47 544.87 489.47C523.68 489.47 511.91 489.47 509.56 489.47C509.56 489.47 509.56 489.47 509.56 489.47C509.56 396.36 509.56 344.63 509.56 334.28C509.56 334.28 509.56 334.28 509.56 334.28C530.74 334.28 542.52 334.28 544.87 334.28Z" id="e3qoj9NXY9"></path><path d="M544.86 489.47L544.86 468.04L517.88 468.04L531.69 489.47L531.69 489.47L544.86 489.47Z" id="abQnD5Lag"></path><path d="M480.04 334.28C480.04 334.28 480.04 334.28 480.04 334.28C480.04 427.4 480.04 479.13 480.04 489.47C480.04 489.47 480.04 489.47 480.04 489.47C458.85 489.47 447.08 489.47 444.72 489.47C444.72 489.47 444.72 489.47 444.72 489.47C444.72 396.36 444.72 344.63 444.72 334.28C444.72 334.28 444.72 334.28 444.72 334.28C465.91 334.28 477.68 334.28 480.04 334.28Z" id="armfAhUEp"></path><path d="M544.86 334.28C544.86 334.28 544.86 334.28 544.86 334.28C544.86 422.97 544.86 472.24 544.86 482.1C544.86 482.1 544.86 482.1 544.86 482.1C499.06 482.1 473.62 482.1 468.53 482.1C468.53 482.1 468.53 482.1 468.53 482.1C468.53 393.41 468.53 344.14 468.53 334.28C468.53 334.28 468.53 334.28 468.53 334.28C514.33 334.28 539.77 334.28 544.86 334.28Z" id="fmVU9VBT3"></path><path d="M468.53 489.47L468.53 468.04L495.53 468.04L481.72 489.47L481.72 489.47L468.53 489.47Z" id="h4whMhWOkf"></path><path d="M534.64 389.36C534.64 389.36 534.64 389.36 534.64 389.36C534.64 411.56 534.64 423.89 534.64 426.36C534.64 426.36 534.64 426.36 534.64 426.36C501.11 426.36 482.48 426.36 478.76 426.36C478.76 426.36 478.76 426.36 478.76 426.36C478.76 404.16 478.76 391.83 478.76 389.36C478.76 389.36 478.76 389.36 478.76 389.36C512.29 389.36 530.92 389.36 534.64 389.36Z" id="a17lwhf7N6"></path><path d="M534.64 434.25C534.64 434.25 534.64 434.25 534.64 434.25C534.64 456.45 534.64 468.78 534.64 471.24C534.64 471.24 534.64 471.24 534.64 471.24C501.11 471.24 482.48 471.24 478.76 471.24C478.76 471.24 478.76 471.24 478.76 471.24C478.76 449.05 478.76 436.72 478.76 434.25C478.76 434.25 478.76 434.25 478.76 434.25C512.29 434.25 530.92 434.25 534.64 434.25Z" id="e9313h807"></path><path d="M514.91 386.15C514.91 387.46 514.91 388.18 514.91 388.33C514.91 391.08 512.68 393.31 509.93 393.31C509.29 393.31 504.17 393.31 503.53 393.31C500.78 393.31 498.55 391.08 498.55 388.33C498.55 388.18 498.55 387.46 498.55 386.15L514.91 386.15Z" id="drt8MhTwB"></path><path d="M534.64 344.46C534.64 344.46 534.64 344.46 534.64 344.46C534.64 366.66 534.64 378.99 534.64 381.45C534.64 381.45 534.64 381.45 534.64 381.45C501.11 381.45 482.48 381.45 478.76 381.45C478.76 381.45 478.76 381.45 478.76 381.45C478.76 359.26 478.76 346.93 478.76 344.46C478.76 344.46 478.76 344.46 478.76 344.46C512.29 344.46 530.92 344.46 534.64 344.46Z" id="a3y8tVgfCM"></path><path d="M514.91 341.26C514.91 342.57 514.91 343.29 514.91 343.44C514.91 346.19 512.68 348.42 509.93 348.42C509.29 348.42 504.17 348.42 503.53 348.42C500.78 348.42 498.55 346.19 498.55 343.44C498.55 343.29 498.55 342.57 498.55 341.26L514.91 341.26Z" id="b6jF8EjY"></path><path d="M514.91 431.05C514.91 432.36 514.91 433.08 514.91 433.23C514.91 435.98 512.68 438.21 509.93 438.21C509.29 438.21 504.17 438.21 503.53 438.21C500.78 438.21 498.55 435.98 498.55 433.23C498.55 433.08 498.55 432.36 498.55 431.05L514.91 431.05Z" id="jy7tsNWKC"></path><path d="M260.44 489.47L261.3 313.08L308.43 329.36L308.43 489.47L308.43 489.47L260.44 489.47Z" id="bwY7GcYiw"></path><path d="M266.97 489.47L260.44 302.08L398.89 302.08L405.43 489.47L405.43 489.47L266.97 489.47Z" id="c2zdyvjbQ"></path><path d="M271.31 489.47L264.78 302.08L408.84 302.08L415.39 489.47L415.39 489.47L271.31 489.47Z" id="b24nNhZEhi"></path><path d="M280.32 325.24C280.21 320.71 283.78 316.95 288.3 316.84C288.35 316.84 288.39 316.84 288.44 316.84C298.33 316.84 377.46 316.84 387.35 316.84C391.38 316.8 394.69 320 394.8 324.02C395.3 338.25 399.27 452.09 399.77 466.32C399.88 470.84 396.3 474.59 391.77 474.7C391.73 474.7 391.69 474.7 391.64 474.7C381.75 474.7 302.65 474.7 292.76 474.7C288.74 474.74 285.42 471.54 285.31 467.52C284.31 439.06 280.82 339.46 280.32 325.24Z" id="exJuJ1Cde"></path><path d="M534.41 105.96C534.41 105.96 534.41 105.96 534.41 105.96C534.41 183.92 534.41 227.23 534.41 235.89C534.41 235.89 534.41 235.89 534.41 235.89C383.29 235.89 299.34 235.89 282.55 235.89C282.55 235.89 282.55 235.89 282.55 235.89C282.55 157.93 282.55 114.62 282.55 105.96C282.55 105.96 282.55 105.96 282.55 105.96C433.67 105.96 517.62 105.96 534.41 105.96Z" id="e69zxRMe56"></path><path d="M540.47 105.96C540.47 105.96 540.47 105.96 540.47 105.96C540.47 183.92 540.47 227.23 540.47 235.89C540.47 235.89 540.47 235.89 540.47 235.89C387.41 235.89 302.38 235.89 285.38 235.89C285.38 235.89 285.38 235.89 285.38 235.89C285.38 157.93 285.38 114.62 285.38 105.96C285.38 105.96 285.38 105.96 285.38 105.96C438.43 105.96 523.46 105.96 540.47 105.96Z" id="c1rmpHzquG"></path><path d="M534.41 235.9C534.41 235.9 534.41 235.9 534.41 235.9C534.41 237.69 534.41 238.68 534.41 238.87C534.41 238.87 534.41 238.87 534.41 238.87C383.29 238.87 299.34 238.87 282.55 238.87C282.55 238.87 282.55 238.87 282.55 238.87C282.55 237.09 282.55 236.1 282.55 235.9C282.55 235.9 282.55 235.9 282.55 235.9C433.67 235.9 517.62 235.9 534.41 235.9Z" id="anWzQRj6X"></path><path d="M550.55 235.9C550.55 235.9 550.55 235.9 550.55 235.9C550.55 237.69 550.55 238.68 550.55 238.87C550.55 238.87 550.55 238.87 550.55 238.87C397.5 238.87 312.47 238.87 295.46 238.87C295.46 238.87 295.46 238.87 295.46 238.87C295.46 237.09 295.46 236.1 295.46 235.9C295.46 235.9 295.46 235.9 295.46 235.9C448.52 235.9 533.55 235.9 550.55 235.9Z" id="b2uRwcMvWR"></path><path d="M531.98 227.42C531.98 227.42 531.98 227.42 531.98 227.42C389.1 227.42 309.73 227.42 293.85 227.42C293.85 227.42 293.85 227.42 293.85 227.42C293.85 159.63 293.85 121.96 293.85 114.43C293.85 114.43 293.85 114.43 293.85 114.43C436.73 114.43 516.11 114.43 531.98 114.43C531.98 114.43 531.98 114.43 531.98 114.43C531.98 182.22 531.98 219.89 531.98 227.42Z" id="b1hc403mdK"></path><path d="M359.09 114.44L395.9 114.44L372.31 227.43L335.5 227.43L335.5 227.43L359.09 114.44Z" id="awF3abig"></path><path d="M297.18 218.38C297.18 208.54 297.18 129.79 297.18 119.95C297.18 119.62 297.45 119.35 297.78 119.35C298.11 119.35 298.38 119.62 298.38 119.95C298.38 129.79 298.38 208.54 298.38 218.38C298.38 218.71 298.11 218.98 297.78 218.98C297.45 218.98 297.18 218.71 297.18 218.38Z" id="a2Hcg5UvO"></path><path d="M403.81 114.44L418.16 114.44L394.57 227.43L380.22 227.43L380.22 227.43L403.81 114.44Z" id="csFXOHiJv"></path><path d="M531.99 227.42C531.99 227.42 531.99 227.42 531.99 227.42C531.35 227.42 530.99 227.42 530.92 227.42C530.92 227.42 530.92 227.42 530.92 227.42C530.92 159.63 530.92 121.96 530.92 114.43C530.92 114.43 530.92 114.43 530.92 114.43C531.56 114.43 531.92 114.43 531.99 114.43C531.99 114.43 531.99 114.43 531.99 114.43C531.99 182.22 531.99 219.89 531.99 227.42Z" id="j2IC3UFvKt"></path><path d="M290.61 127.22L289.83 117.73L541.68 117.73L542.46 127.22L542.46 127.22L290.61 127.22Z" id="e2OlqHrr01"></path><path d="M290.61 132.57L289.83 123.08L541.68 123.08L542.46 132.57L542.46 132.57L290.61 132.57Z" id="b5hC52UTyk"></path><path d="M290.61 137.92L289.83 128.44L541.68 128.44L542.46 137.92L542.46 137.92L290.61 137.92Z" id="bYzvlMXYh"></path><path d="M290.61 143.27L289.83 133.79L541.68 133.79L542.46 143.27L542.46 143.27L290.61 143.27Z" id="b6kTTcPWrS"></path><path d="M290.61 148.62L289.83 139.14L541.68 139.14L542.46 148.62L542.46 148.62L290.61 148.62Z" id="c4NqA8dmrJ"></path><path d="M290.61 153.97L289.83 144.49L541.68 144.49L542.46 153.97L542.46 153.97L290.61 153.97Z" id="b3fLj62z30"></path><path d="M568.18 532.79C568.18 540.79 457.07 547.28 320 547.28C182.93 547.28 71.82 540.79 71.82 532.79C71.82 524.78 182.93 518.3 320 518.3C457.07 518.3 568.18 524.78 568.18 532.79Z" id="a1wcmoCY1d"></path><path d="M243.01 157.06C243.78 149.66 236.38 139.37 225.09 145.04C213.8 150.71 220.06 164.11 220.06 164.11C220.06 164.11 213.9 187.47 224.37 194.83C232.72 200.65 250.76 195.55 248.03 187.3C245.29 179.06 259.69 178.92 255.56 170.24C251.43 161.56 242.24 164.45 243.01 157.06Z" id="b1csqHFQwD"></path><path d="M248.69 193.74C248.56 193.74 248.44 193.66 248.4 193.54C245.43 185.65 249.45 181.86 252.99 178.52C255.8 175.88 258.21 173.61 256.93 169.75C255.44 165.27 252.26 164.13 249.47 163.12C246.68 162.11 244.24 161.23 244.47 157.32C244.56 152.83 242.35 148.61 238.6 146.12C236.11 144.55 231.97 143.32 226.44 146.39C226.29 146.48 226.09 146.42 226.01 146.27C225.92 146.11 225.98 145.92 226.14 145.83C230.67 143.27 235.21 143.27 238.94 145.59C242.9 148.17 245.23 152.63 245.09 157.36C244.89 160.79 247 161.55 249.68 162.48C252.35 163.42 255.92 164.74 257.52 169.51C258.94 173.75 256.24 176.28 253.43 178.96C249.86 182.31 246.17 185.79 248.99 193.27C249.05 193.44 248.96 193.62 248.79 193.69C248.77 193.7 248.71 193.73 248.69 193.74Z" id="g36QpkOw4R"></path><path d="M196.44 230.99C196.08 231.63 195.87 231.99 195.57 232.45C195.49 232.58 194.82 233.6 194.74 233.73C194.18 234.56 193.59 235.35 192.99 236.15C191.77 237.73 190.47 239.24 189.08 240.67C186.25 243.58 183.03 246.11 179.53 248.18C175.89 250.32 171.9 251.8 167.74 252.53C165.63 252.9 163.49 253.05 161.34 252.99C160.28 252.99 159.23 252.92 158.2 252.76C158.14 252.76 157.88 252.73 157.41 252.67L157.02 252.67C156.71 252.62 156.54 252.59 156.51 252.58C155.81 252.46 155.13 252.29 154.47 252.07C152.24 251.27 150.16 250.1 148.33 248.61C146.74 247.34 145.26 245.94 143.88 244.44C141.36 241.64 139.07 238.65 137.04 235.48C135.03 232.37 133.2 229.21 131.51 226.01C129.82 222.81 128.28 219.61 126.89 216.13C127.42 215.86 131.68 213.7 132.21 213.43C134.08 216.28 136.05 219.21 138.05 222C140.04 224.79 142.11 227.58 144.27 230.2C146.35 232.76 148.59 235.19 150.99 237.47C152.09 238.49 153.27 239.43 154.51 240.28C155.47 240.96 156.54 241.48 157.67 241.82C157.85 241.87 158.03 241.9 158.22 241.91C158.25 241.91 158.42 241.91 158.72 241.91C159.04 241.91 159.22 241.91 159.26 241.91C159.97 241.95 160.68 241.95 161.4 241.91C162.81 241.84 164.21 241.65 165.59 241.34C168.38 240.67 171.04 239.55 173.47 238.03C176.01 236.41 178.33 234.47 180.39 232.27C181.46 231.15 182.47 229.98 183.42 228.76C183.9 228.16 184.35 227.48 184.78 226.91C184.82 226.84 185.04 226.53 185.42 225.97L185.93 225.18C191.54 228.28 195.04 230.21 196.44 230.99Z" id="b2t3AnnQX"></path><path d="M183.32 225.33C184.56 227.23 194.51 242.38 195.75 244.28C195.75 244.28 201.06 238.57 202.5 232.18C203.98 225.52 204.04 217.52 196.74 217.88C185.97 218.41 186 223.84 183.32 225.33Z" id="aOfNI8fB"></path><path d="M132.76 215.13L132.19 204.89C126.2 209.35 122.87 211.83 122.2 212.33C122.2 212.33 124.67 217.6 129.42 218.73C129.87 218.25 130.98 217.05 132.76 215.13Z" id="aTuSOyLtE"></path><path d="M119.55 203.69L122.2 212.33L132.19 204.89L125.98 196.8L125.98 196.8L119.55 203.69Z" id="a7gUqVJpo"></path><path d="M241.95 521.43L236.02 494.35L247.65 493.24L253.57 520.32L253.57 520.32L241.95 521.43Z" id="j4hSPbdxl"></path><path d="M351.44 493.07L330.88 475.2L339.87 467.37L360.42 485.25L360.42 485.25L351.44 493.07Z" id="avzJxp5wn"></path><path d="M354.92 479.63C355.19 479.24 355.71 479.11 356.13 479.33C357.06 479.83 364.45 483.79 365.38 484.29C366.26 484.81 366.55 485.95 366.03 486.83C365.99 486.9 365.94 486.97 365.89 487.04C363.02 490.73 361.46 492.36 357.93 497.08C355.75 499.97 351.35 506.69 348.35 510.68C345.36 514.68 341.3 511.96 342.2 510.08C346.23 501.45 346.44 496.4 346.25 492.34C346.22 491.62 346.44 490.91 346.88 490.33C348.49 488.19 354.11 480.7 354.92 479.63Z" id="e1oTKfqOOB"></path><path d="M254.46 517.93C254.98 517.93 255.43 518.27 255.56 518.77C255.87 519.88 258.31 528.72 258.61 529.83C258.87 530.76 258.34 531.72 257.41 531.98C257.25 532.03 257.08 532.05 256.91 532.04C252.02 531.96 249.64 531.67 243.48 531.67C239.71 531.67 229.93 532.07 224.7 532.07C219.48 532.07 218.52 526.95 220.65 526.44C230.12 524.34 235.58 521.45 238.57 518.68C239.09 518.2 239.77 517.93 240.49 517.93C243.28 517.93 253.07 517.93 254.46 517.93Z" id="a3xKMxyAsS"></path><path d="M239.08 508.31L250.96 508.31L247.65 493.24L236.03 494.35L236.03 494.35L239.08 508.31Z" id="dfqGNVBUw"></path><path d="M330.88 475.21L341.48 484.42L350.46 476.58L339.87 467.38L339.87 467.38L330.88 475.21Z" id="cn4S1caxx"></path><path d="M211.53 287.17C216.17 285.89 253.29 275.65 257.93 274.37C252.36 255.82 249.38 244.25 248.58 203.24C241.73 203.69 234.92 204.64 228.21 206.08C221.06 207.52 214.02 209.47 207.14 211.9C198.3 215.17 188.57 220.16 188.57 220.16C193.16 233.56 183.62 223.56 211.53 287.17Z" id="e9UI6iBoA"></path><path d="M220.16 183.04C220.54 190.14 222.37 202.85 228.26 206.08C228.26 206.08 232.91 227.48 215.92 249.19C198 233.45 207.19 211.9 207.19 211.9C214.3 208.06 212.68 202.5 210.02 197.63C212.05 194.71 218.13 185.96 220.16 183.04Z" id="a1QkSQvE7N"></path><path d="M216.98 251.22C197.27 234.46 207.38 211.52 207.38 211.52C207.38 211.52 209.99 214.75 215.21 221.21C223.4 215.22 228.52 209.92 230.54 205.32C227.83 214.5 235.65 228.11 216.98 251.22Z" id="a29Zsg5UUz"></path><path d="M216.52 219.84C216.52 219.84 226.07 216.37 233.16 218.93C233.79 215.09 234.69 207 231.68 204.85C230.45 204.89 229.27 205.29 228.26 205.99C225.91 208.76 218.87 217.07 216.52 219.84Z" id="hpVfwI6Hz"></path><path d="M201.31 224.64C200.86 220.8 201.15 214.4 204.25 212.21C205.33 211.66 206.51 211.31 207.72 211.17C209.21 214.44 211.25 217.41 213.76 219.98C213.76 219.98 207.5 218.52 201.31 224.64Z" id="c4r17lx5vP"></path><path d="M219.01 184.6C219.92 188.66 219.97 192.87 219.14 196.94C218.55 199.76 215.49 201.82 212.08 203.02C211.68 201.1 210.97 199.26 209.98 197.57C211.79 194.97 217.2 187.19 219.01 184.6Z" id="a5qE1lgIM"></path><path d="M208.35 190.54C214.75 190.3 223.08 182.2 222.04 174.91C220.49 163.99 204.9 152.01 199.87 158.92C189.86 172.67 199.77 190.92 208.35 190.54Z" id="d4jI2n3T5J"></path><path d="M220.24 196.35C210.16 204.22 196.62 199.1 195.53 187.2C194.56 176.49 198.63 159.48 210.6 156.25C218.87 153.88 227.5 158.66 229.87 166.93C230.59 169.46 230.67 172.13 230.08 174.69C227.7 186.21 226.93 191.12 220.24 196.35Z" id="b16mffFrG"></path><path d="M234.24 169.69C237.98 169.69 239.13 163.96 235.52 158.77C230.67 151.91 220.9 152.04 220.16 156.89C219.69 160.27 226.56 169.77 234.24 169.69Z" id="c2qJmWga4O"></path><path d="M229.15 180.26C235.62 180.16 236.83 165.4 232.04 159.86C222.72 149.02 205.62 150.68 204.43 159.08C203.6 164.95 215.95 180.48 229.15 180.26Z" id="b14lNeYG0J"></path><path d="M226.15 185.96C229.27 183.83 231.77 175.63 225.4 176.92C221.36 177.74 223.71 183.19 226.15 185.96Z" id="g11AwvNBp"></path><path d="M192.93 153.18C199.9 154.18 214.27 144.68 220.19 156.7C224.35 165.12 214.78 163.94 214.78 163.94C205.15 167.95 195.69 157.71 192.93 153.18Z" id="b4v0feK1Xu"></path><path d="M192.42 160.68C198.21 159.58 207.04 148.3 214.96 156.07C220.53 161.59 212.63 163.24 212.63 163.24C206.08 168.95 195.83 163.52 192.42 160.68Z" id="b8LQ4MaMt"></path><path d="M228.97 188.71C226.41 190.27 224.33 188.19 224.42 185.34C224.5 182.78 225.95 178.94 228.85 178.48C230.9 178.21 232.78 179.65 233.05 181.69C233.13 182.27 233.07 182.85 232.88 183.4C232.32 185.61 230.91 187.52 228.97 188.71Z" id="d2NvX3sa7z"></path><path d="M211.53 287.1C211.53 287.1 206.73 380.24 213.39 415.4C220.31 451.98 233.37 504.26 233.37 504.26C235.58 504.15 253.25 503.29 255.46 503.18C255.46 503.18 247.21 436.86 245.22 408.59C242.53 369.63 245.48 277.7 245.48 277.7C238.69 279.58 218.32 285.22 211.53 287.1Z" id="bg09ukBII"></path><path d="M211.53 287.1C211.53 287.1 206.73 380.24 213.39 415.4C220.31 451.98 233.37 504.26 233.37 504.26C235.58 504.15 253.25 503.29 255.46 503.18C255.46 503.18 247.21 436.86 245.22 408.59C242.53 369.63 245.48 277.7 245.48 277.7C238.69 279.58 218.32 285.22 211.53 287.1Z" id="h34SIDLQoe"></path><path d="M237.93 307.96C236.72 326.13 239.42 346.91 244.13 357.21C244.17 341.76 244.4 326.08 244.65 312.74C241.41 304.12 238.5 299.37 237.93 307.96Z" id="asghEj77t"></path><path d="M231.83 505.47L228.85 496.27L256.14 494.13L257.01 504.26L257.01 504.26L231.83 505.47Z" id="axmZbuqGH"></path><path d="M223.78 283.71C223.78 283.71 250.32 359.8 268.42 401.8C283.03 435.74 336.5 483.15 336.5 483.15C337.76 482.1 347.87 473.71 349.13 472.67C349.13 472.67 310.94 418.62 300.83 395.61C268.44 321.93 278.05 290.73 257.93 274.27C251.1 276.15 230.61 281.82 223.78 283.71Z" id="aqg1tvn4s"></path><path d="M223.78 283.71C223.78 283.71 250.32 359.8 268.42 401.8C283.03 435.74 336.5 483.15 336.5 483.15C337.76 482.1 347.87 473.71 349.13 472.67C349.13 472.67 310.94 418.62 300.83 395.61C268.44 321.93 278.05 290.73 257.93 274.27C251.1 276.15 230.61 281.82 223.78 283.71Z" id="fmAsXlJhK"></path><path d="M336.01 484.79L329.09 479.68L345.74 465.75L350.16 472.55L350.16 472.55L336.01 484.79Z" id="j2EOcLCdj7"></path><path d="M261.08 274.92C261.32 275.19 261.08 275.62 260.49 275.76C255.63 277.11 216.72 287.88 211.85 289.23C211.44 289.34 211.05 289.23 210.94 288.99C210.8 288.58 209.62 285.38 209.47 284.98C209.37 284.7 209.68 284.35 210.14 284.22C214.84 282.92 252.43 272.53 257.13 271.23C257.4 271.13 257.7 271.18 257.93 271.36C258.56 272.07 260.77 274.56 261.08 274.92Z" id="e2Nv63N9hw"></path><path d="M254.25 277.98C254.5 277.98 254.66 277.73 254.59 277.58C254.4 277.06 252.83 272.9 252.63 272.38C252.63 272.23 252.33 272.17 252.08 272.23C251.96 272.26 250.93 272.54 250.8 272.58C250.56 272.65 250.39 272.83 250.46 272.99C250.65 273.51 252.22 277.66 252.42 278.18C252.45 278.34 252.71 278.4 252.97 278.34C253.22 278.26 254.12 278.01 254.25 277.98Z" id="a3yTOAfyYM"></path><path d="M254.25 277.98C254.5 277.98 254.66 277.73 254.59 277.58C254.4 277.06 252.83 272.9 252.63 272.38C252.63 272.23 252.33 272.17 252.08 272.23C251.96 272.26 250.93 272.54 250.8 272.58C250.56 272.65 250.39 272.83 250.46 272.99C250.65 273.51 252.22 277.66 252.42 278.18C252.45 278.34 252.71 278.4 252.97 278.34C253.22 278.26 254.12 278.01 254.25 277.98Z" id="fzZm4pzPM"></path><path d="M216.77 288.35C217.02 288.28 217.18 288.1 217.11 287.95C216.92 287.43 215.35 283.27 215.16 282.75C215.16 282.6 214.85 282.53 214.6 282.6C214.48 282.63 213.45 282.91 213.32 282.94C213.08 283.02 212.92 283.2 212.98 283.35C213.18 283.87 214.74 288.03 214.94 288.55C215.04 288.7 215.23 288.77 215.49 288.7C215.74 288.63 216.64 288.38 216.77 288.35Z" id="f1CF8trSH"></path><path d="M216.77 288.35C217.02 288.28 217.18 288.1 217.11 287.95C216.92 287.43 215.35 283.27 215.16 282.75C215.16 282.6 214.85 282.53 214.6 282.6C214.48 282.63 213.45 282.91 213.32 282.94C213.08 283.02 212.92 283.2 212.98 283.35C213.18 283.87 214.74 288.03 214.94 288.55C215.04 288.7 215.23 288.77 215.49 288.7C215.74 288.63 216.64 288.38 216.77 288.35Z" id="jOF3s3Daj"></path><path d="M235.52 283.16C235.78 283.1 235.93 282.92 235.87 282.76C235.67 282.25 234.1 278.09 233.91 277.57C233.91 277.41 233.6 277.35 233.36 277.41C233.23 277.45 232.2 277.73 232.08 277.76C231.83 277.84 231.67 278.02 231.73 278.17C231.93 278.69 233.49 282.85 233.69 283.37C233.72 283.52 233.97 283.58 234.24 283.52C234.5 283.45 235.39 283.2 235.52 283.16Z" id="b3EnhKbLfh"></path><path d="M235.52 283.16C235.78 283.1 235.93 282.92 235.87 282.76C235.67 282.25 234.1 278.09 233.91 277.57C233.91 277.41 233.6 277.35 233.36 277.41C233.23 277.45 232.2 277.73 232.08 277.76C231.83 277.84 231.67 278.02 231.73 278.17C231.93 278.69 233.49 282.85 233.69 283.37C233.72 283.52 233.97 283.58 234.24 283.52C234.5 283.45 235.39 283.2 235.52 283.16Z" id="aCBGMlWT8"></path><path d="M211.26 173.96C211.88 174.06 212.25 174.9 212.1 175.84C211.95 176.79 211.32 177.47 210.71 177.37C210.1 177.27 209.72 176.43 209.87 175.48C210.03 174.54 210.65 173.86 211.26 173.96Z" id="e113DmWEyk"></path><path d="M200.09 176.08C199.48 176.01 199.09 175.17 199.22 174.22C199.35 173.27 199.97 172.58 200.59 172.66C201.2 172.74 201.59 173.56 201.45 174.5C201.32 175.44 200.7 176.14 200.09 176.08Z" id="fb0Svy1nSO"></path><path d="M198.68 171.88C198.68 171.88 199.59 173.72 200.84 172.8C200.41 172.62 198.9 171.97 198.68 171.88Z" id="a1xtTuCVqQ"></path><path d="M204.03 176.46C202.88 178.51 201.46 180.4 199.81 182.08C200.69 182.89 201.88 183.27 203.07 183.12C203.26 181.79 203.84 177.79 204.03 176.46Z" id="bA0xHj2R"></path><path d="M205.61 186.93C205.63 186.78 205.77 186.67 205.92 186.69C205.92 186.69 205.92 186.69 205.93 186.69C208.31 187.02 210.72 186.21 212.42 184.5C212.53 184.39 212.7 184.39 212.81 184.5C212.92 184.6 212.92 184.77 212.82 184.88C212.82 184.88 212.81 184.88 212.81 184.88C211 186.75 208.39 187.64 205.81 187.26C205.78 187.25 205.75 187.23 205.73 187.2C205.64 187.15 205.58 187.04 205.61 186.93Z" id="b1y1SwC0HV"></path><path d="M216.37 171.21C215.72 169.96 214.5 169.1 213.09 168.92C212.8 168.91 212.57 168.66 212.58 168.36C212.58 168.35 212.58 168.34 212.58 168.33C212.61 168.02 212.88 167.79 213.18 167.81C214.95 168.01 216.51 169.07 217.34 170.65C217.49 170.92 217.39 171.26 217.12 171.41C216.95 171.51 216.73 171.51 216.56 171.4C216.48 171.36 216.41 171.29 216.37 171.21Z" id="cqEpbknDc"></path><path d="M197.04 168.96C196.83 168.74 196.83 168.39 197.04 168.17C198.2 166.78 199.96 166.02 201.77 166.14C202.06 166.18 202.27 166.45 202.23 166.75C202.23 166.75 202.23 166.76 202.23 166.77C202.18 167.08 201.9 167.3 201.59 167.26C200.16 167.18 198.78 167.79 197.88 168.9C197.67 169.1 197.35 169.13 197.12 168.96C197.1 168.96 197.05 168.96 197.04 168.96Z" id="h1HnOtqfjK"></path><path d="M252.68 209.47C254.95 212.12 257.51 214.96 260.06 217.6C262.6 220.24 265.18 222.87 267.94 225.34C273.2 230.28 278.96 234.64 285.15 238.35C286.62 239.2 288.13 239.97 289.69 240.65C290.97 241.22 292.32 241.6 293.71 241.78C296.77 242.09 299.87 241.71 302.77 240.67C306.04 239.53 309.16 237.99 312.05 236.08C313.54 235.1 315.03 234.07 316.48 232.97C317.93 231.87 319.36 230.66 320.61 229.54C321.07 229.93 324.7 233 325.16 233.38C323.95 235.04 322.63 236.62 321.22 238.12C319.83 239.62 318.36 241.03 316.81 242.37C313.63 245.15 310.09 247.48 306.28 249.32C302.11 251.33 297.53 252.31 292.9 252.16C290.46 252.07 288.04 251.59 285.75 250.75C283.75 250.01 281.79 249.16 279.88 248.19C272.69 244.39 266 239.71 259.97 234.24C256.97 231.59 254.05 228.89 251.32 226.02C249.95 224.59 248.59 223.14 247.26 221.66C245.93 220.17 244.7 218.71 243.32 217.05C245.19 215.53 250.81 210.99 252.68 209.47Z" id="b1p7x1CwiG"></path><path d="M322.56 235.62L329.27 230.27C324.15 226.78 321.31 224.84 320.74 224.45C320.74 224.45 316.8 229.57 317.96 234.34C318.58 234.51 320.11 234.94 322.56 235.62Z" id="e22zOh0bTI"></path><path d="M328.36 219.14L320.78 224.45L329.31 230.27L334.64 224.19L334.64 224.19L328.36 219.14Z" id="b6gNfDIjtl"></path><path d="M256.61 208.26C255.77 210.27 248.98 226.39 248.13 228.4C248.13 228.4 240.37 223.65 240.81 217.14C241.24 210.42 242.87 203.01 248.58 203.14C253.58 203.26 255.01 207.23 256.61 208.26Z" id="bbzeFCoEf"></path><path d="M342.78 495.74C342.53 495.52 342.41 495.17 342.49 494.84C342.84 493.36 346.84 491.83 347.3 491.66C347.4 491.62 347.52 491.65 347.6 491.72C347.65 491.82 347.65 491.94 347.6 492.03C346.96 493.48 345.66 495.95 344.19 496.24C343.82 496.32 343.44 496.24 343.13 496.04C343.01 495.95 342.89 495.85 342.78 495.74ZM343.01 495C342.98 495.15 343.03 495.31 343.16 495.4C343.39 495.68 343.75 495.81 344.12 495.76C344.93 495.54 345.93 494.34 346.88 492.44C345.27 493.09 343.22 494.18 343.01 495Z" id="c1dndN2fSa"></path><path d="M342.09 491.96C341.78 491.59 341.78 491.04 342.09 490.68C342.32 490.3 342.69 490.03 343.12 489.95C344.79 489.57 347.49 491.56 347.61 491.65C347.69 491.71 347.73 491.8 347.72 491.9C347.71 492.01 347.64 492.09 347.55 492.12C346.41 492.67 343.5 492.9 342.35 492.16C342.26 492.1 342.17 492.03 342.09 491.96ZM343.17 490.51C342.89 490.55 342.66 490.72 342.53 490.97C342.35 491.28 342.43 491.43 342.53 491.53C343.07 492.13 345.4 492.19 346.79 491.8C345.69 491 344.45 490.55 343.17 490.51Z" id="e14QYdiAwG"></path><path d="M231.5 519.58C231.07 519.26 230.81 518.77 230.8 518.23C230.76 517.94 230.89 517.64 231.14 517.48C232.42 516.61 237.17 518.76 238.12 519.22C238.26 519.28 238.34 519.44 238.28 519.58C238.25 519.66 238.19 519.72 238.12 519.74C236.85 520.04 235.55 520.21 234.24 520.23C233.28 520.3 232.33 520.07 231.5 519.58ZM231.46 517.94C231.38 517.99 231.33 518.09 231.35 518.2C231.36 518.57 231.54 518.91 231.85 519.13C232.67 519.74 234.6 519.83 237.09 519.37C235.51 518.6 233.81 518.07 232.06 517.81C231.82 517.8 231.63 517.84 231.46 517.94Z" id="dWi6cvgAQ"></path><path d="M237.96 519.74C236.39 519.09 233.2 516.54 233.38 515.23C233.38 514.93 233.63 514.57 234.34 514.48C237.11 514.15 238.3 519.21 238.35 519.42C238.37 519.52 238.34 519.63 238.26 519.69C238.21 519.73 238.14 519.75 238.08 519.74C238.06 519.74 237.98 519.74 237.96 519.74ZM234.41 515.02C234.11 515.02 233.96 515.14 233.95 515.28C233.84 516.04 236.03 518.05 237.64 518.94C237.25 517.73 236.25 515.02 234.57 515.02C234.58 515.02 234.43 515.02 234.41 515.02Z" id="aAI4cSdTx"></path><path d="M209.32 173.15C209.32 173.15 210.23 175.03 211.48 174.08C211.05 173.89 209.53 173.24 209.32 173.15Z" id="b3DM2cJIib"></path><path d="M306.65 532.79C294.17 532.79 287.94 526.55 287.94 514.07C287.94 302.45 287.94 184.88 287.94 161.37C287.94 148.89 294.17 142.66 306.65 142.66C395.03 142.66 444.13 142.66 453.95 142.66C466.43 142.66 472.67 148.89 472.67 161.37C472.67 372.99 472.67 490.56 472.67 514.07C472.67 526.55 466.43 532.79 453.95 532.79C365.57 532.79 316.47 532.79 306.65 532.79Z" id="bebBSmfzR"></path><path d="M289.1 260.79C286.76 260.79 285.59 259.62 285.59 257.28C285.59 230.06 285.59 214.94 285.59 211.92C285.59 209.58 286.76 208.41 289.1 208.41C290.61 208.41 291.44 208.41 291.61 208.41C293.95 208.41 295.12 209.58 295.12 211.92C295.12 239.13 295.12 254.26 295.12 257.28C295.12 259.62 293.95 260.79 291.61 260.79C290.1 260.79 289.27 260.79 289.1 260.79Z" id="a1kAl7VnBw"></path><path d="M471.91 233.98C469.7 233.98 468.59 232.88 468.59 230.67C468.59 219.3 468.59 212.99 468.59 211.72C468.59 209.51 469.7 208.41 471.91 208.41C473.64 208.41 474.61 208.41 474.8 208.41C477.01 208.41 478.11 209.51 478.11 211.72C478.11 223.09 478.11 229.41 478.11 230.67C478.11 232.88 477.01 233.98 474.8 233.98C473.06 233.98 472.1 233.98 471.91 233.98Z" id="a10aeH0pwb"></path><path d="M473.05 267.79C470.84 267.79 469.73 266.68 469.73 264.47C469.73 253.11 469.73 246.79 469.73 245.53C469.73 243.32 470.84 242.21 473.05 242.21C474.79 242.21 475.75 242.21 475.94 242.21C478.15 242.21 479.26 243.32 479.26 245.53C479.26 256.9 479.26 263.21 479.26 264.47C479.26 266.68 478.15 267.79 475.94 267.79C474.21 267.79 473.24 267.79 473.05 267.79Z" id="eEwpqZAhM"></path><path d="M310.54 532.79C298.07 532.79 291.83 526.55 291.83 514.07C291.83 302.45 291.83 184.88 291.83 161.37C291.83 148.89 298.07 142.66 310.54 142.66C398.92 142.66 448.02 142.66 457.84 142.66C470.32 142.66 476.56 148.89 476.56 161.37C476.56 372.99 476.56 490.56 476.56 514.07C476.56 526.55 470.32 532.79 457.84 532.79C369.46 532.79 320.36 532.79 310.54 532.79Z" id="o1ucAW2sQ"></path><path d="M310.54 532.79C298.07 532.79 291.83 526.55 291.83 514.07C291.83 302.45 291.83 184.88 291.83 161.37C291.83 148.89 298.07 142.66 310.54 142.66C398.92 142.66 448.02 142.66 457.84 142.66C470.32 142.66 476.56 148.89 476.56 161.37C476.56 372.99 476.56 490.56 476.56 514.07C476.56 526.55 470.32 532.79 457.84 532.79C369.46 532.79 320.36 532.79 310.54 532.79Z" id="akvw6J3RQ"></path><path d="M384.18 498.46C378.36 498.46 373.64 503.17 373.64 508.99C373.64 514.81 378.36 519.53 384.18 519.53C390 519.53 394.71 514.81 394.71 508.99C394.71 503.17 390 498.46 384.18 498.46Z" id="dih28zQub"></path><path d="M296.28 490.7C296.28 490.7 296.28 490.7 296.28 490.7C296.28 299.75 296.28 193.67 296.28 172.45C296.28 172.45 296.28 172.45 296.28 172.45C401.77 172.45 460.38 172.45 472.1 172.45C472.1 172.45 472.1 172.45 472.1 172.45C472.1 363.4 472.1 469.48 472.1 490.7C472.1 490.7 472.1 490.7 472.1 490.7C366.61 490.7 308 490.7 296.28 490.7Z" id="a2m0A8zGSQ"></path><path d="M410.73 230.13C414.33 230.13 416.13 231.93 416.13 235.53C416.13 267.38 416.13 285.08 416.13 288.61C416.13 292.22 414.33 294.02 410.73 294.02C378.88 294.02 361.18 294.02 357.64 294.02C354.04 294.02 352.24 292.22 352.24 288.61C352.24 256.77 352.24 239.07 352.24 235.53C352.24 231.93 354.04 230.13 357.64 230.13C389.49 230.13 407.19 230.13 410.73 230.13Z" id="dpO4Qm39l"></path><path d="M363.89 230.13C363.89 230.13 363.89 230.13 363.89 230.13C363.89 243.96 363.89 251.64 363.89 253.17C363.89 253.17 363.89 253.17 363.89 253.17C363.12 253.17 362.7 253.17 362.61 253.17C362.61 253.17 362.61 253.17 362.61 253.17C362.61 239.35 362.61 231.67 362.61 230.13C362.61 230.13 362.61 230.13 362.61 230.13C363.38 230.13 363.81 230.13 363.89 230.13Z" id="dtKPYw8oc"></path><path d="M360.99 254.8C360.99 253.55 362 252.53 363.25 252.53C364.5 252.53 365.52 253.55 365.52 254.8C365.52 254.8 365.52 254.8 365.52 254.8C365.51 256.05 364.5 257.06 363.25 257.06C362 257.06 360.99 256.05 360.99 254.8ZM362.27 254.8C362.27 255.34 362.71 255.78 363.25 255.78C363.8 255.78 364.24 255.34 364.24 254.8C364.24 254.8 364.24 254.8 364.24 254.8C364.24 254.25 363.8 253.81 363.25 253.81C363.25 253.81 363.25 253.81 363.25 253.81C362.71 253.81 362.27 254.25 362.27 254.8Z" id="dpfz5VAlv"></path><path d="M367.74 272.67C367.74 271.41 368.75 270.38 370.01 270.37C371.27 270.37 372.29 271.38 372.3 272.64C372.3 272.65 372.3 272.66 372.3 272.67C372.3 273.92 371.29 274.93 370.04 274.93C368.78 274.94 367.75 273.92 367.74 272.67ZM369.02 272.65C369.02 273.2 369.46 273.66 370.01 273.66C370.56 273.67 371.01 273.23 371.02 272.68C371.02 272.67 371.02 272.67 371.02 272.67C371.03 272.12 370.59 271.67 370.05 271.67C370.04 271.67 370.04 271.67 370.04 271.67C369.48 271.66 369.03 272.1 369.02 272.65Z" id="c50iQpfMDc"></path><path d="M395.81 287.32C395.81 286.07 396.83 285.06 398.08 285.06C399.33 285.06 400.35 286.07 400.35 287.32C400.35 287.32 400.35 287.32 400.35 287.32C400.35 288.57 399.33 289.59 398.08 289.59C396.83 289.59 395.81 288.57 395.81 287.32ZM397.09 287.32C397.09 287.87 397.54 288.31 398.08 288.31C398.08 288.31 398.08 288.31 398.08 288.31C398.62 288.31 399.07 287.87 399.07 287.32C399.07 286.78 398.62 286.34 398.08 286.34C397.54 286.34 397.09 286.78 397.09 287.32Z" id="b67oVKzE3b"></path><path d="M374.78 259.48C374.78 258.23 375.8 257.22 377.05 257.22C378.3 257.22 379.32 258.23 379.32 259.48C379.32 259.48 379.32 259.48 379.32 259.48C379.32 260.73 378.3 261.75 377.05 261.75C375.8 261.75 374.78 260.73 374.78 259.48ZM376.06 259.48C376.06 260.03 376.51 260.47 377.05 260.47C377.59 260.47 378.04 260.03 378.04 259.48C378.04 258.94 377.59 258.5 377.05 258.5C377.05 258.5 377.05 258.5 377.05 258.5C376.51 258.5 376.06 258.94 376.06 259.48Z" id="i3HFfJwet6"></path><path d="M362.38 294.02L362.38 264.61L369.4 257.6L369.4 230.13L370.68 230.13L370.68 258.12L363.66 265.14L363.66 294.02L363.66 294.02L362.38 294.02Z" id="aP0E3Imvp"></path><path d="M376.41 294.02L376.41 274.02L383.42 267.01L383.42 230.13L384.7 230.13L384.7 267.53L377.69 274.55L377.69 294.02L377.69 294.02L376.41 294.02Z" id="bObu162yt"></path><path d="M397.45 285.7L397.45 260.4L390.44 253.39L390.44 230.13L391.72 230.13L391.72 252.85L398.73 259.87L398.73 285.7L398.73 285.7L397.45 285.7Z" id="a5aIp3D7dy"></path><path d="M402.84 265.54C402.84 264.28 403.86 263.27 405.11 263.27C406.36 263.27 407.37 264.28 407.37 265.54C407.37 265.54 407.37 265.54 407.37 265.54C407.37 266.79 406.36 267.8 405.11 267.8C403.86 267.8 402.84 266.79 402.84 265.54ZM404.12 265.54C404.12 266.08 404.56 266.52 405.11 266.52C405.11 266.52 405.11 266.52 405.11 266.52C405.65 266.52 406.09 266.08 406.09 265.54C406.09 264.99 405.65 264.55 405.11 264.55C405.11 264.55 405.11 264.55 405.11 264.55C404.56 264.55 404.12 264.99 404.12 265.54Z" id="gFc7Q10cc"></path><path d="M404.47 263.91L404.47 260.4L397.45 253.39L397.45 230.13L398.73 230.13L398.73 252.85L405.75 259.87L405.75 263.91L405.75 263.91L404.47 263.91Z" id="f1T87AkJNz"></path><path d="M377.69 230.13C377.69 230.13 377.69 230.13 377.69 230.13C377.69 246.77 377.69 256.01 377.69 257.86C377.69 257.86 377.69 257.86 377.69 257.86C376.92 257.86 376.49 257.86 376.41 257.86C376.41 257.86 376.41 257.86 376.41 257.86C376.41 241.22 376.41 231.98 376.41 230.13C376.41 230.13 376.41 230.13 376.41 230.13C377.18 230.13 377.6 230.13 377.69 230.13Z" id="fXhflDk0e"></path><path d="M370.68 274.29C370.68 274.29 370.68 274.29 370.68 274.29C370.68 286.13 370.68 292.71 370.68 294.03C370.68 294.03 370.68 294.03 370.68 294.03C369.91 294.03 369.48 294.03 369.4 294.03C369.4 294.03 369.4 294.03 369.4 294.03C369.4 282.19 369.4 275.61 369.4 274.29C369.4 274.29 369.4 274.29 369.4 274.29C370.16 274.29 370.59 274.29 370.68 274.29Z" id="aBG2WH5dX"></path><path d="M381.8 278.52C381.8 277.26 382.81 276.25 384.06 276.25C385.32 276.25 386.33 277.26 386.33 278.52C386.33 278.52 386.33 278.52 386.33 278.52C386.33 279.77 385.32 280.78 384.06 280.78C382.81 280.78 381.8 279.77 381.8 278.52ZM383.08 278.52C383.08 279.06 383.52 279.5 384.06 279.5C384.61 279.5 385.05 279.06 385.05 278.52C385.05 277.97 384.61 277.53 384.06 277.53C383.52 277.53 383.08 277.97 383.08 278.52Z" id="b2cKNiFzj3"></path><path d="M384.7 280.14C384.7 280.14 384.7 280.14 384.7 280.14C384.7 288.47 384.7 293.09 384.7 294.02C384.7 294.02 384.7 294.02 384.7 294.02C383.94 294.02 383.51 294.02 383.42 294.02C383.42 294.02 383.42 294.02 383.42 294.02C383.42 285.69 383.42 281.07 383.42 280.14C383.42 280.14 383.42 280.14 383.42 280.14C384.19 280.14 384.62 280.14 384.7 280.14Z" id="d7lBhl6A8"></path><path d="M402.84 273.4C402.84 272.14 403.86 271.13 405.11 271.13C406.36 271.13 407.37 272.14 407.37 273.4C407.37 273.4 407.37 273.4 407.37 273.4C407.37 274.65 406.36 275.66 405.11 275.66C403.86 275.66 402.84 274.65 402.84 273.4ZM404.12 273.4C404.12 273.94 404.56 274.38 405.11 274.38C405.11 274.38 405.11 274.38 405.11 274.38C405.65 274.38 406.09 273.94 406.09 273.4C406.09 272.85 405.65 272.41 405.11 272.41C404.56 272.41 404.12 272.85 404.12 273.4Z" id="e5jD0fxwJD"></path><path d="M405.75 275.02C405.75 275.02 405.75 275.02 405.75 275.02C405.75 286.42 405.75 292.75 405.75 294.02C405.75 294.02 405.75 294.02 405.75 294.02C404.98 294.02 404.55 294.02 404.47 294.02C404.47 294.02 404.47 294.02 404.47 294.02C404.47 282.62 404.47 276.29 404.47 275.02C404.47 275.02 404.47 275.02 404.47 275.02C405.24 275.02 405.66 275.02 405.75 275.02Z" id="dY1mJfVPI"></path><path d="M397.7 248.68L404.47 241.89L404.47 230.13L405.75 230.13L405.75 242.43L398.59 249.59L398.59 249.59L397.7 248.68Z" id="k1wEZjLVbQ"></path><path d="M388.81 266.21C388.81 264.96 389.83 263.95 391.08 263.95C392.33 263.95 393.34 264.96 393.34 266.21C393.34 266.22 393.34 266.23 393.34 266.24C393.33 267.48 392.32 268.48 391.08 268.48C389.83 268.48 388.81 267.47 388.81 266.21ZM390.09 266.21C390.09 266.76 390.53 267.2 391.08 267.2C391.08 267.2 391.08 267.2 391.08 267.2C391.62 267.2 392.06 266.76 392.06 266.21C392.06 265.67 391.62 265.23 391.08 265.23C390.53 265.23 390.09 265.67 390.09 266.21Z" id="b5ZcsETw9"></path><path d="M391.72 267.84C391.72 267.84 391.72 267.84 391.72 267.84C391.72 283.55 391.72 292.27 391.72 294.02C391.72 294.02 391.72 294.02 391.72 294.02C390.95 294.02 390.52 294.02 390.44 294.02C390.44 294.02 390.44 294.02 390.44 294.02C390.44 278.31 390.44 269.59 390.44 267.84C390.44 267.84 390.44 267.84 390.44 267.84C391.21 267.84 391.63 267.84 391.72 267.84Z" id="cqYSMWnn1"></path><path d="M442.76 388.68L325.61 388.68L325.61 366.35L442.76 366.35L442.76 388.68ZM326.89 387.4L441.48 387.4L441.48 367.63L326.89 367.63L326.89 387.4Z" id="b20jM8iP8R"></path><path d="M336.38 370.74C336.38 370.74 336.38 370.74 336.38 370.74C336.38 378.87 336.38 383.39 336.38 384.29C336.38 384.29 336.38 384.29 336.38 384.29C332.22 384.29 329.91 384.29 329.45 384.29C329.45 384.29 329.45 384.29 329.45 384.29C329.45 376.16 329.45 371.64 329.45 370.74C329.45 370.74 329.45 370.74 329.45 370.74C333.61 370.74 335.92 370.74 336.38 370.74Z" id="dst39mkSz"></path><path d="M345.46 370.74C345.46 370.74 345.46 370.74 345.46 370.74C345.46 378.87 345.46 383.39 345.46 384.29C345.46 384.29 345.46 384.29 345.46 384.29C341.3 384.29 338.98 384.29 338.52 384.29C338.52 384.29 338.52 384.29 338.52 384.29C338.52 376.16 338.52 371.64 338.52 370.74C338.52 370.74 338.52 370.74 338.52 370.74C342.68 370.74 345 370.74 345.46 370.74Z" id="k1R90fjkIc"></path><path d="M354.52 370.74C354.52 370.74 354.52 370.74 354.52 370.74C354.52 378.87 354.52 383.39 354.52 384.29C354.52 384.29 354.52 384.29 354.52 384.29C350.36 384.29 348.05 384.29 347.58 384.29C347.58 384.29 347.58 384.29 347.58 384.29C347.58 376.16 347.58 371.64 347.58 370.74C347.58 370.74 347.58 370.74 347.58 370.74C351.75 370.74 354.06 370.74 354.52 370.74Z" id="b2TtdbhR4y"></path><path d="M363.6 370.74C363.6 370.74 363.6 370.74 363.6 370.74C363.6 378.87 363.6 383.39 363.6 384.29C363.6 384.29 363.6 384.29 363.6 384.29C359.43 384.29 357.12 384.29 356.66 384.29C356.66 384.29 356.66 384.29 356.66 384.29C356.66 376.16 356.66 371.64 356.66 370.74C356.66 370.74 356.66 370.74 356.66 370.74C360.82 370.74 363.13 370.74 363.6 370.74Z" id="e1AgLdstDk"></path><path d="M372.67 370.74C372.67 370.74 372.67 370.74 372.67 370.74C372.67 378.87 372.67 383.39 372.67 384.29C372.67 384.29 372.67 384.29 372.67 384.29C368.51 384.29 366.2 384.29 365.73 384.29C365.73 384.29 365.73 384.29 365.73 384.29C365.73 376.16 365.73 371.64 365.73 370.74C365.73 370.74 365.73 370.74 365.73 370.74C369.9 370.74 372.21 370.74 372.67 370.74Z" id="a2aqBo5MDi"></path><path d="M381.73 370.74C381.73 370.74 381.73 370.74 381.73 370.74C381.73 378.87 381.73 383.39 381.73 384.29C381.73 384.29 381.73 384.29 381.73 384.29C377.57 384.29 375.26 384.29 374.8 384.29C374.8 384.29 374.8 384.29 374.8 384.29C374.8 376.16 374.8 371.64 374.8 370.74C374.8 370.74 374.8 370.74 374.8 370.74C378.96 370.74 381.27 370.74 381.73 370.74Z" id="b1TSNzq99x"></path><path d="M390.81 370.74C390.81 370.74 390.81 370.74 390.81 370.74C390.81 378.87 390.81 383.39 390.81 384.29C390.81 384.29 390.81 384.29 390.81 384.29C386.65 384.29 384.33 384.29 383.87 384.29C383.87 384.29 383.87 384.29 383.87 384.29C383.87 376.16 383.87 371.64 383.87 370.74C383.87 370.74 383.87 370.74 383.87 370.74C388.03 370.74 390.35 370.74 390.81 370.74Z" id="b3A7SEWamM"></path><path d="M346.46 339.83L349.85 339.83L349.85 348.16L355.15 348.16L355.15 350.86L346.46 350.86L346.46 339.83Z" id="l9uofbVYpw"></path><path d="M360.71 339.64C361.04 339.61 361.36 339.6 361.69 339.64C363.24 339.54 364.77 340.07 365.91 341.12C366.95 342.23 367.49 343.72 367.4 345.24C367.44 346.33 367.22 347.42 366.75 348.4C366.33 349.22 365.68 349.88 364.88 350.32C363.93 350.81 362.88 351.05 361.82 351.01C360.76 351.05 359.71 350.84 358.75 350.41C357.91 350.01 357.22 349.35 356.76 348.54C356.23 347.56 355.97 346.45 356.01 345.33C355.73 342.46 357.84 339.91 360.71 339.64ZM360.03 347.72C360.91 348.66 362.39 348.7 363.32 347.81C363.35 347.78 363.38 347.75 363.4 347.72C363.88 346.96 364.1 346.06 364.01 345.16C364.07 344.36 363.85 343.55 363.38 342.89C362.95 342.41 362.32 342.14 361.68 342.17C361.04 342.14 360.43 342.41 360.03 342.9C359.54 343.62 359.32 344.48 359.4 345.34C359.33 346.18 359.55 347.02 360.03 347.72Z" id="b17iiTMzit"></path><path d="M375.46 349L371.62 349L371.08 350.82L367.62 350.82L371.75 339.83L375.45 339.83L379.58 350.82L376.03 350.82L375.46 349ZM374.76 346.64L373.54 342.68L372.34 346.64L374.76 346.64Z" id="c46kFdUOu"></path><path d="M380.7 339.83C383.72 339.83 385.4 339.83 385.74 339.83C386.57 339.8 387.39 339.94 388.16 340.24C388.75 340.49 389.27 340.89 389.67 341.4C390.08 341.92 390.38 342.52 390.54 343.16C390.72 343.85 390.81 344.57 390.81 345.29C390.85 346.22 390.72 347.14 390.41 348.02C390.17 348.64 389.79 349.19 389.3 349.64C388.87 350.06 388.34 350.37 387.76 350.53C387.1 350.71 386.42 350.81 385.74 350.82C385.4 350.82 383.72 350.82 380.7 350.82L380.7 339.83ZM384.09 342.32L384.09 348.33C384.59 348.33 384.87 348.33 384.92 348.33C385.44 348.36 385.96 348.28 386.44 348.08C386.77 347.9 387.02 347.61 387.15 347.26C387.35 346.65 387.44 346 387.4 345.36C387.49 344.52 387.29 343.67 386.83 342.96C386.33 342.48 385.64 342.25 384.95 342.32C384.83 342.32 384.55 342.32 384.09 342.32Z" id="a145hkYNVy"></path><path d="M392.73 339.83L396.13 339.83L396.13 350.82L392.73 350.82L392.73 339.83Z" id="bZZ51DqO0"></path><path d="M398.6 339.83L401.77 339.83L405.91 345.91L405.91 339.83L409.11 339.83L409.11 350.82L405.91 350.82L401.79 344.78L401.79 350.82L398.6 350.82L398.6 339.83Z" id="fpteqZWG"></path><path d="M416.9 346.88L416.9 344.59L422.14 344.59C422.14 347.4 422.14 348.96 422.14 349.27C421.33 349.86 420.43 350.34 419.48 350.68C418.59 350.94 417.66 351.07 416.73 351.05C415.63 351.09 414.53 350.86 413.54 350.39C412.72 349.93 412.05 349.24 411.64 348.39C411.17 347.45 410.93 346.42 410.96 345.37C410.93 344.28 411.18 343.2 411.7 342.23C412.19 341.35 412.95 340.64 413.86 340.21C414.81 339.81 415.84 339.63 416.87 339.67C417.79 339.64 418.71 339.75 419.6 340.01C420.18 340.21 420.7 340.56 421.11 341.03C421.53 341.55 421.84 342.15 422 342.8C421.68 342.85 419.05 343.32 418.73 343.37C418.61 342.99 418.36 342.66 418.04 342.43C417.65 342.18 417.21 342.07 416.76 342.09C416.07 342.06 415.41 342.35 414.96 342.87C414.47 343.59 414.24 344.46 414.31 345.33C414.22 346.24 414.46 347.14 414.98 347.89C415.45 348.41 416.14 348.7 416.84 348.66C417.21 348.66 417.58 348.6 417.93 348.49C418.35 348.34 418.75 348.15 419.12 347.93C419.12 347.86 419.12 347.51 419.12 346.88L416.9 346.88Z" id="cDPKRBLj"></path><path d="M385.98 414.02C385.98 414.02 385.98 414.02 385.98 414.02C385.98 428.05 385.98 435.84 385.98 437.4C385.98 437.4 385.98 437.4 385.98 437.4C383.68 437.4 382.4 437.4 382.14 437.4C382.14 437.4 382.14 437.4 382.14 437.4C382.14 423.37 382.14 415.58 382.14 414.02C382.14 414.02 382.14 414.02 382.14 414.02C384.45 414.02 385.73 414.02 385.98 414.02Z" id="eDWjLIMoY"></path><path d="M391.8 428.2L384.06 436.52L376.33 428.2L374.64 429.76L384.06 439.9L393.48 429.76L393.48 429.76L391.8 428.2Z" id="aTQHjxpeo"></path><path d="M399.72 443.38C399.72 443.38 399.72 443.38 399.72 443.38C399.72 445.68 399.72 446.96 399.72 447.22C399.72 447.22 399.72 447.22 399.72 447.22C380.93 447.22 370.48 447.22 368.4 447.22C368.4 447.22 368.4 447.22 368.4 447.22C368.4 444.92 368.4 443.64 368.4 443.38C368.4 443.38 368.4 443.38 368.4 443.38C387.19 443.38 397.63 443.38 399.72 443.38Z" id="a25It1pTbU"></path><path d="M405.48 155.75C403.56 155.74 402 157.29 402 159.21C401.99 161.12 403.54 162.68 405.45 162.69C405.46 162.69 405.47 162.69 405.48 162.69C407.39 162.69 408.93 161.14 408.93 159.23C408.94 157.32 407.39 155.76 405.48 155.75Z" id="a2ucJmTTe8"></path><path d="M393.52 155.76C395.83 155.76 396.98 156.92 396.98 159.22C396.98 159.23 396.98 159.23 396.98 159.23C396.98 161.54 395.83 162.69 393.52 162.69C376.26 162.69 366.67 162.69 364.75 162.69C362.44 162.69 361.29 161.54 361.29 159.23C361.29 159.22 361.29 159.22 361.29 159.22C361.29 156.92 362.44 155.76 364.75 155.76C382.01 155.76 391.6 155.76 393.52 155.76Z" id="d4ev5LECQ"></path></defs><g><g><g><use xlink:href="#bcICDbm4U" opacity="1" fill="#ebebeb" fill-opacity="1"></use><g><use xlink:href="#bcICDbm4U" opacity="1" fill-opacity="0" stroke="#000000" stroke-width="1" stroke-opacity="0"></use></g></g><g><use xlink:href="#a1yWsHzJT4" opacity="1" fill="#ebebeb" fill-opacity="1"></use><g><use xlink:href="#a1yWsHzJT4" opacity="1" fill-opacity="0" stroke="#000000" stroke-width="1" stroke-opacity="0"></use></g></g><g><use xlink:href="#aeokpLDYm" opacity="1" fill="#ebebeb" fill-opacity="1"></use><g><use xlink:href="#aeokpLDYm" opacity="1" fill-opacity="0" stroke="#000000" stroke-width="1" stroke-opacity="0"></use></g></g><g><use xlink:href="#d5RBG7C0u" opacity="1" fill="#ebebeb" fill-opacity="1"></use><g><use xlink:href="#d5RBG7C0u" opacity="1" fill-opacity="0" stroke="#000000" stroke-width="1" stroke-opacity="0"></use></g></g><g><use xlink:href="#a1P99widu" opacity="1" fill="#ebebeb" fill-opacity="1"></use><g><use xlink:href="#a1P99widu" opacity="1" fill-opacity="0" stroke="#000000" stroke-width="1" stroke-opacity="0"></use></g></g><g><use xlink:href="#acLF9dal0" opacity="1" fill="#ebebeb" fill-opacity="1"></use><g><use xlink:href="#acLF9dal0" opacity="1" fill-opacity="0" stroke="#000000" stroke-width="1" stroke-opacity="0"></use></g></g><g><use xlink:href="#ecO5QsTUv" opacity="1" fill="#ebebeb" fill-opacity="1"></use><g><use xlink:href="#ecO5QsTUv" opacity="1" fill-opacity="0" stroke="#000000" stroke-width="1" stroke-opacity="0"></use></g></g><g><use xlink:href="#bvYAe30ZH" opacity="1" fill="#ebebeb" fill-opacity="1"></use><g><use xlink:href="#bvYAe30ZH" opacity="1" fill-opacity="0" stroke="#000000" stroke-width="1" stroke-opacity="0"></use></g></g><g><use xlink:href="#b69QBA3wWC" opacity="1" fill="#ebebeb" fill-opacity="1"></use><g><use xlink:href="#b69QBA3wWC" opacity="1" fill-opacity="0" stroke="#000000" stroke-width="1" stroke-opacity="0"></use></g></g><g><use xlink:href="#b3LZFzDh" opacity="1" fill="#f0f0f0" fill-opacity="1"></use><g><use xlink:href="#b3LZFzDh" opacity="1" fill-opacity="0" stroke="#000000" stroke-width="1" stroke-opacity="0"></use></g></g><g><use xlink:href="#b1p2Q2SchZ" opacity="1" fill="#f5f5f5" fill-opacity="1"></use><g><use xlink:href="#b1p2Q2SchZ" opacity="1" fill-opacity="0" stroke="#000000" stroke-width="1" stroke-opacity="0"></use></g></g><g><use xlink:href="#a1zqv5rlm" opacity="1" fill="#ebebeb" fill-opacity="1"></use><g><use xlink:href="#a1zqv5rlm" opacity="1" fill-opacity="0" stroke="#000000" stroke-width="1" stroke-opacity="0"></use></g></g><g><use xlink:href="#b9QEjkFYH" opacity="1" fill="#fafafa" fill-opacity="1"></use><g><use xlink:href="#b9QEjkFYH" opacity="1" fill-opacity="0" stroke="#000000" stroke-width="1" stroke-opacity="0"></use></g></g><g><use xlink:href="#a1YxrqyjG" opacity="1" fill="#f0f0f0" fill-opacity="1"></use><g><use xlink:href="#a1YxrqyjG" opacity="1" fill-opacity="0" stroke="#000000" stroke-width="1" stroke-opacity="0"></use></g></g><g><use xlink:href="#bNogEC8Rp" opacity="1" fill="#f0f0f0" fill-opacity="1"></use><g><use xlink:href="#bNogEC8Rp" opacity="1" fill-opacity="0" stroke="#000000" stroke-width="1" stroke-opacity="0"></use></g></g><g><use xlink:href="#cPUGOxzGL" opacity="1" fill="#f0f0f0" fill-opacity="1"></use><g><use xlink:href="#cPUGOxzGL" opacity="1" fill-opacity="0" stroke="#000000" stroke-width="1" stroke-opacity="0"></use></g></g><g><use xlink:href="#bcJjhkbDs" opacity="1" fill="#ffffff" fill-opacity="1"></use><g><use xlink:href="#bcJjhkbDs" opacity="1" fill-opacity="0" stroke="#000000" stroke-width="1" stroke-opacity="0"></use></g></g><g><use xlink:href="#aeU9cavJJ" opacity="1" fill="#f0f0f0" fill-opacity="1"></use><g><use xlink:href="#aeU9cavJJ" opacity="1" fill-opacity="0" stroke="#000000" stroke-width="1" stroke-opacity="0"></use></g></g><g><use xlink:href="#e3qoj9NXY9" opacity="1" fill="#e6e6e6" fill-opacity="1"></use><g><use xlink:href="#e3qoj9NXY9" opacity="1" fill-opacity="0" stroke="#000000" stroke-width="1" stroke-opacity="0"></use></g></g><g><use xlink:href="#abQnD5Lag" opacity="1" fill="#ebebeb" fill-opacity="1"></use><g><use xlink:href="#abQnD5Lag" opacity="1" fill-opacity="0" stroke="#000000" stroke-width="1" stroke-opacity="0"></use></g></g><g><use xlink:href="#armfAhUEp" opacity="1" fill="#e6e6e6" fill-opacity="1"></use><g><use xlink:href="#armfAhUEp" opacity="1" fill-opacity="0" stroke="#000000" stroke-width="1" stroke-opacity="0"></use></g></g><g><use xlink:href="#fmVU9VBT3" opacity="1" fill="#ebebeb" fill-opacity="1"></use><g><use xlink:href="#fmVU9VBT3" opacity="1" fill-opacity="0" stroke="#000000" stroke-width="1" stroke-opacity="0"></use></g></g><g><use xlink:href="#h4whMhWOkf" opacity="1" fill="#ebebeb" fill-opacity="1"></use><g><use xlink:href="#h4whMhWOkf" opacity="1" fill-opacity="0" stroke="#000000" stroke-width="1" stroke-opacity="0"></use></g></g><g><use xlink:href="#a17lwhf7N6" opacity="1" fill="#fafafa" fill-opacity="1"></use><g><use xlink:href="#a17lwhf7N6" opacity="1" fill-opacity="0" stroke="#000000" stroke-width="1" stroke-opacity="0"></use></g></g><g><use xlink:href="#e9313h807" opacity="1" fill="#fafafa" fill-opacity="1"></use><g><use xlink:href="#e9313h807" opacity="1" fill-opacity="0" stroke="#000000" stroke-width="1" stroke-opacity="0"></use></g></g><g><use xlink:href="#drt8MhTwB" opacity="1" fill="#ebebeb" fill-opacity="1"></use><g><use xlink:href="#drt8MhTwB" opacity="1" fill-opacity="0" stroke="#000000" stroke-width="1" stroke-opacity="0"></use></g></g><g><use xlink:href="#a3y8tVgfCM" opacity="1" fill="#fafafa" fill-opacity="1"></use><g><use xlink:href="#a3y8tVgfCM" opacity="1" fill-opacity="0" stroke="#000000" stroke-width="1" stroke-opacity="0"></use></g></g><g><use xlink:href="#b6jF8EjY" opacity="1" fill="#ebebeb" fill-opacity="1"></use><g><use xlink:href="#b6jF8EjY" opacity="1" fill-opacity="0" stroke="#000000" stroke-width="1" stroke-opacity="0"></use></g></g><g><use xlink:href="#jy7tsNWKC" opacity="1" fill="#ebebeb" fill-opacity="1"></use><g><use xlink:href="#jy7tsNWKC" opacity="1" fill-opacity="0" stroke="#000000" stroke-width="1" stroke-opacity="0"></use></g></g><g><use xlink:href="#bwY7GcYiw" opacity="1" fill="#ebebeb" fill-opacity="1"></use><g><use xlink:href="#bwY7GcYiw" opacity="1" fill-opacity="0" stroke="#000000" stroke-width="1" stroke-opacity="0"></use></g></g><g><use xlink:href="#c2zdyvjbQ" opacity="1" fill="#e0e0e0" fill-opacity="1"></use><g><use xlink:href="#c2zdyvjbQ" opacity="1" fill-opacity="0" stroke="#000000" stroke-width="1" stroke-opacity="0"></use></g></g><g><use xlink:href="#b24nNhZEhi" opacity="1" fill="#f5f5f5" fill-opacity="1"></use><g><use xlink:href="#b24nNhZEhi" opacity="1" fill-opacity="0" stroke="#000000" stroke-width="1" stroke-opacity="0"></use></g></g><g><use xlink:href="#exJuJ1Cde" opacity="1" fill="#ffffff" fill-opacity="1"></use><g><use xlink:href="#exJuJ1Cde" opacity="1" fill-opacity="0" stroke="#000000" stroke-width="1" stroke-opacity="0"></use></g></g><g><use xlink:href="#e69zxRMe56" opacity="1" fill="#e6e6e6" fill-opacity="1"></use><g><use xlink:href="#e69zxRMe56" opacity="1" fill-opacity="0" stroke="#000000" stroke-width="1" stroke-opacity="0"></use></g></g><g><use xlink:href="#c1rmpHzquG" opacity="1" fill="#f0f0f0" fill-opacity="1"></use><g><use xlink:href="#c1rmpHzquG" opacity="1" fill-opacity="0" stroke="#000000" stroke-width="1" stroke-opacity="0"></use></g></g><g><use xlink:href="#anWzQRj6X" opacity="1" fill="#e6e6e6" fill-opacity="1"></use><g><use xlink:href="#anWzQRj6X" opacity="1" fill-opacity="0" stroke="#000000" stroke-width="1" stroke-opacity="0"></use></g></g><g><use xlink:href="#b2uRwcMvWR" opacity="1" fill="#f0f0f0" fill-opacity="1"></use><g><use xlink:href="#b2uRwcMvWR" opacity="1" fill-opacity="0" stroke="#000000" stroke-width="1" stroke-opacity="0"></use></g></g><g><use xlink:href="#b1hc403mdK" opacity="1" fill="#fafafa" fill-opacity="1"></use><g><use xlink:href="#b1hc403mdK" opacity="1" fill-opacity="0" stroke="#000000" stroke-width="1" stroke-opacity="0"></use></g></g><g><use xlink:href="#awF3abig" opacity="1" fill="#ffffff" fill-opacity="1"></use><g><use xlink:href="#awF3abig" opacity="1" fill-opacity="0" stroke="#000000" stroke-width="1" stroke-opacity="0"></use></g></g><g><use xlink:href="#a2Hcg5UvO" opacity="1" fill="#f0f0f0" fill-opacity="1"></use><g><use xlink:href="#a2Hcg5UvO" opacity="1" fill-opacity="0" stroke="#000000" stroke-width="1" stroke-opacity="0"></use></g></g><g><use xlink:href="#csFXOHiJv" opacity="1" fill="#ffffff" fill-opacity="1"></use><g><use xlink:href="#csFXOHiJv" opacity="1" fill-opacity="0" stroke="#000000" stroke-width="1" stroke-opacity="0"></use></g></g><g><use xlink:href="#j2IC3UFvKt" opacity="1" fill="#e6e6e6" fill-opacity="1"></use><g><use xlink:href="#j2IC3UFvKt" opacity="1" fill-opacity="0" stroke="#000000" stroke-width="1" stroke-opacity="0"></use></g></g><g><use xlink:href="#e2OlqHrr01" opacity="1" fill="#ebebeb" fill-opacity="1"></use><g><use xlink:href="#e2OlqHrr01" opacity="1" fill-opacity="0" stroke="#000000" stroke-width="1" stroke-opacity="0"></use></g></g><g><use xlink:href="#b5hC52UTyk" opacity="1" fill="#ebebeb" fill-opacity="1"></use><g><use xlink:href="#b5hC52UTyk" opacity="1" fill-opacity="0" stroke="#000000" stroke-width="1" stroke-opacity="0"></use></g></g><g><use xlink:href="#bYzvlMXYh" opacity="1" fill="#ebebeb" fill-opacity="1"></use><g><use xlink:href="#bYzvlMXYh" opacity="1" fill-opacity="0" stroke="#000000" stroke-width="1" stroke-opacity="0"></use></g></g><g><use xlink:href="#b6kTTcPWrS" opacity="1" fill="#ebebeb" fill-opacity="1"></use><g><use xlink:href="#b6kTTcPWrS" opacity="1" fill-opacity="0" stroke="#000000" stroke-width="1" stroke-opacity="0"></use></g></g><g><use xlink:href="#c4NqA8dmrJ" opacity="1" fill="#ebebeb" fill-opacity="1"></use><g><use xlink:href="#c4NqA8dmrJ" opacity="1" fill-opacity="0" stroke="#000000" stroke-width="1" stroke-opacity="0"></use></g></g><g><use xlink:href="#b3fLj62z30" opacity="1" fill="#ebebeb" fill-opacity="1"></use><g><use xlink:href="#b3fLj62z30" opacity="1" fill-opacity="0" stroke="#000000" stroke-width="1" stroke-opacity="0"></use></g></g><g><use xlink:href="#a1wcmoCY1d" opacity="1" fill="#f5f5f5" fill-opacity="1"></use><g><use xlink:href="#a1wcmoCY1d" opacity="1" fill-opacity="0" stroke="#000000" stroke-width="1" stroke-opacity="0"></use></g></g><g><use xlink:href="#b1csqHFQwD" opacity="1" fill="#263238" fill-opacity="1"></use><g><use xlink:href="#b1csqHFQwD" opacity="1" fill-opacity="0" stroke="#000000" stroke-width="1" stroke-opacity="0"></use></g></g><g><use xlink:href="#g36QpkOw4R" opacity="1" fill="#263238" fill-opacity="1"></use><g><use xlink:href="#g36QpkOw4R" opacity="1" fill-opacity="0" stroke="#000000" stroke-width="1" stroke-opacity="0"></use></g></g><g><use xlink:href="#b2t3AnnQX" opacity="1" fill="#d1867f" fill-opacity="1"></use><g><use xlink:href="#b2t3AnnQX" opacity="1" fill-opacity="0" stroke="#000000" stroke-width="1" stroke-opacity="0"></use></g></g><g><use xlink:href="#aOfNI8fB" opacity="1" fill="#3e80a1" fill-opacity="1"></use><g><use xlink:href="#aOfNI8fB" opacity="1" fill-opacity="0" stroke="#000000" stroke-width="1" stroke-opacity="0"></use></g></g><g><use xlink:href="#aTuSOyLtE" opacity="1" fill="#ce8a84" fill-opacity="1"></use><g><use xlink:href="#aTuSOyLtE" opacity="1" fill-opacity="0" stroke="#000000" stroke-width="1" stroke-opacity="0"></use></g></g><g><use xlink:href="#a7gUqVJpo" opacity="1" fill="#d1867f" fill-opacity="1"></use><g><use xlink:href="#a7gUqVJpo" opacity="1" fill-opacity="0" stroke="#000000" stroke-width="1" stroke-opacity="0"></use></g></g><g><use xlink:href="#j4hSPbdxl" opacity="1" fill="#d1867f" fill-opacity="1"></use><g><use xlink:href="#j4hSPbdxl" opacity="1" fill-opacity="0" stroke="#000000" stroke-width="1" stroke-opacity="0"></use></g></g><g><use xlink:href="#avzJxp5wn" opacity="1" fill="#b55b52" fill-opacity="1"></use><g><use xlink:href="#avzJxp5wn" opacity="1" fill-opacity="0" stroke="#000000" stroke-width="1" stroke-opacity="0"></use></g></g><g><use xlink:href="#e1oTKfqOOB" opacity="1" fill="#263238" fill-opacity="1"></use><g><use xlink:href="#e1oTKfqOOB" opacity="1" fill-opacity="0" stroke="#000000" stroke-width="1" stroke-opacity="0"></use></g></g><g><use xlink:href="#a3xKMxyAsS" opacity="1" fill="#263238" fill-opacity="1"></use><g><use xlink:href="#a3xKMxyAsS" opacity="1" fill-opacity="0" stroke="#000000" stroke-width="1" stroke-opacity="0"></use></g></g><g><use xlink:href="#dfqGNVBUw" opacity="1" fill="#9c7171" fill-opacity="1"></use><g><use xlink:href="#dfqGNVBUw" opacity="1" fill-opacity="0" stroke="#000000" stroke-width="1" stroke-opacity="0"></use></g></g><g><use xlink:href="#cn4S1caxx" opacity="1" fill="#000000" fill-opacity="1"></use><g><use xlink:href="#cn4S1caxx" opacity="1" fill-opacity="0" stroke="#000000" stroke-width="1" stroke-opacity="0"></use></g></g><g><use xlink:href="#e9UI6iBoA" opacity="1" fill="#3b86ab" fill-opacity="1"></use><g><use xlink:href="#e9UI6iBoA" opacity="1" fill-opacity="0" stroke="#000000" stroke-width="1" stroke-opacity="0"></use></g></g><g><use xlink:href="#a1QkSQvE7N" opacity="1" fill="#d1867f" fill-opacity="1"></use><g><use xlink:href="#a1QkSQvE7N" opacity="1" fill-opacity="0" stroke="#000000" stroke-width="1" stroke-opacity="0"></use></g></g><g><use xlink:href="#a29Zsg5UUz" opacity="1" fill="#f5f5f5" fill-opacity="1"></use><g><use xlink:href="#a29Zsg5UUz" opacity="1" fill-opacity="0" stroke="#000000" stroke-width="1" stroke-opacity="0"></use></g></g><g><use xlink:href="#hpVfwI6Hz" opacity="1" fill="#ffffff" fill-opacity="1"></use><g><use xlink:href="#hpVfwI6Hz" opacity="1" fill-opacity="0" stroke="#000000" stroke-width="1" stroke-opacity="0"></use></g></g><g><use xlink:href="#c4r17lx5vP" opacity="1" fill="#ffffff" fill-opacity="1"></use><g><use xlink:href="#c4r17lx5vP" opacity="1" fill-opacity="0" stroke="#000000" stroke-width="1" stroke-opacity="0"></use></g></g><g><use xlink:href="#a5qE1lgIM" opacity="1" fill="#a75151" fill-opacity="1"></use><g><use xlink:href="#a5qE1lgIM" opacity="1" fill-opacity="0" stroke="#000000" stroke-width="1" stroke-opacity="0"></use></g></g><g><use xlink:href="#d4jI2n3T5J" opacity="1" fill="#263238" fill-opacity="1"></use><g><use xlink:href="#d4jI2n3T5J" opacity="1" fill-opacity="0" stroke="#000000" stroke-width="1" stroke-opacity="0"></use></g></g><g><use xlink:href="#b16mffFrG" opacity="1" fill="#d1867f" fill-opacity="1"></use><g><use xlink:href="#b16mffFrG" opacity="1" fill-opacity="0" stroke="#000000" stroke-width="1" stroke-opacity="0"></use></g></g><g><use xlink:href="#c2qJmWga4O" opacity="1" fill="#d6eff2" fill-opacity="1"></use><g><use xlink:href="#c2qJmWga4O" opacity="1" fill-opacity="0" stroke="#000000" stroke-width="1" stroke-opacity="0"></use></g></g><g><use xlink:href="#b14lNeYG0J" opacity="1" fill="#263238" fill-opacity="1"></use><g><use xlink:href="#b14lNeYG0J" opacity="1" fill-opacity="0" stroke="#000000" stroke-width="1" stroke-opacity="0"></use></g></g><g><use xlink:href="#g11AwvNBp" opacity="1" fill="#263238" fill-opacity="1"></use><g><use xlink:href="#g11AwvNBp" opacity="1" fill-opacity="0" stroke="#000000" stroke-width="1" stroke-opacity="0"></use></g></g><g><use xlink:href="#b4v0feK1Xu" opacity="1" fill="#263238" fill-opacity="1"></use><g><use xlink:href="#b4v0feK1Xu" opacity="1" fill-opacity="0" stroke="#000000" stroke-width="1" stroke-opacity="0"></use></g></g><g><use xlink:href="#b8LQ4MaMt" opacity="1" fill="#263238" fill-opacity="1"></use><g><use xlink:href="#b8LQ4MaMt" opacity="1" fill-opacity="0" stroke="#000000" stroke-width="1" stroke-opacity="0"></use></g></g><g><use xlink:href="#d2NvX3sa7z" opacity="1" fill="#da8f88" fill-opacity="1"></use><g><use xlink:href="#d2NvX3sa7z" opacity="1" fill-opacity="0" stroke="#000000" stroke-width="1" stroke-opacity="0"></use></g></g><g><use xlink:href="#bg09ukBII" opacity="1" fill="#1551d7" fill-opacity="1"></use><g><use xlink:href="#bg09ukBII" opacity="1" fill-opacity="0" stroke="#000000" stroke-width="1" stroke-opacity="0"></use></g></g><g><use xlink:href="#h34SIDLQoe" opacity="1" fill="#8c567f" fill-opacity="1"></use><g><use xlink:href="#h34SIDLQoe" opacity="1" fill-opacity="0" stroke="#000000" stroke-width="1" stroke-opacity="0"></use></g></g><g><use xlink:href="#asghEj77t" opacity="1" fill="#6c4162" fill-opacity="1"></use><g><use xlink:href="#asghEj77t" opacity="1" fill-opacity="0" stroke="#000000" stroke-width="1" stroke-opacity="0"></use></g></g><g><use xlink:href="#axmZbuqGH" opacity="1" fill="#6c4162" fill-opacity="1"></use><g><use xlink:href="#axmZbuqGH" opacity="1" fill-opacity="0" stroke="#000000" stroke-width="1" stroke-opacity="0"></use></g></g><g><use xlink:href="#aqg1tvn4s" opacity="1" fill="#1551d7" fill-opacity="1"></use><g><use xlink:href="#aqg1tvn4s" opacity="1" fill-opacity="0" stroke="#000000" stroke-width="1" stroke-opacity="0"></use></g></g><g><use xlink:href="#fmAsXlJhK" opacity="1" fill="#8c567f" fill-opacity="1"></use><g><use xlink:href="#fmAsXlJhK" opacity="1" fill-opacity="0" stroke="#000000" stroke-width="1" stroke-opacity="0"></use></g></g><g><use xlink:href="#j2EOcLCdj7" opacity="1" fill="#1551d7" fill-opacity="1"></use><g><use xlink:href="#j2EOcLCdj7" opacity="1" fill-opacity="0" stroke="#000000" stroke-width="1" stroke-opacity="0"></use></g></g><g><use xlink:href="#e2Nv63N9hw" opacity="1" fill="#c283cc" fill-opacity="1"></use><g><use xlink:href="#e2Nv63N9hw" opacity="1" fill-opacity="0" stroke="#000000" stroke-width="1" stroke-opacity="0"></use></g></g><g><use xlink:href="#a3yTOAfyYM" opacity="1" fill="#1551d7" fill-opacity="1"></use><g><use xlink:href="#a3yTOAfyYM" opacity="1" fill-opacity="0" stroke="#000000" stroke-width="1" stroke-opacity="0"></use></g></g><g><use xlink:href="#fzZm4pzPM" opacity="1" fill="#000000" fill-opacity="1"></use><g><use xlink:href="#fzZm4pzPM" opacity="1" fill-opacity="0" stroke="#000000" stroke-width="1" stroke-opacity="0"></use></g></g><g><use xlink:href="#f1CF8trSH" opacity="1" fill="#1551d7" fill-opacity="1"></use><g><use xlink:href="#f1CF8trSH" opacity="1" fill-opacity="0" stroke="#000000" stroke-width="1" stroke-opacity="0"></use></g></g><g><use xlink:href="#jOF3s3Daj" opacity="1" fill="#000000" fill-opacity="1"></use><g><use xlink:href="#jOF3s3Daj" opacity="1" fill-opacity="0" stroke="#000000" stroke-width="1" stroke-opacity="0"></use></g></g><g><use xlink:href="#b3EnhKbLfh" opacity="1" fill="#1551d7" fill-opacity="1"></use><g><use xlink:href="#b3EnhKbLfh" opacity="1" fill-opacity="0" stroke="#000000" stroke-width="1" stroke-opacity="0"></use></g></g><g><use xlink:href="#aCBGMlWT8" opacity="1" fill="#000000" fill-opacity="1"></use><g><use xlink:href="#aCBGMlWT8" opacity="1" fill-opacity="0" stroke="#000000" stroke-width="1" stroke-opacity="0"></use></g></g><g><use xlink:href="#e113DmWEyk" opacity="1" fill="#263238" fill-opacity="1"></use><g><use xlink:href="#e113DmWEyk" opacity="1" fill-opacity="0" stroke="#000000" stroke-width="1" stroke-opacity="0"></use></g></g><g><use xlink:href="#fb0Svy1nSO" opacity="1" fill="#263238" fill-opacity="1"></use><g><use xlink:href="#fb0Svy1nSO" opacity="1" fill-opacity="0" stroke="#000000" stroke-width="1" stroke-opacity="0"></use></g></g><g><use xlink:href="#a1xtTuCVqQ" opacity="1" fill="#263238" fill-opacity="1"></use><g><use xlink:href="#a1xtTuCVqQ" opacity="1" fill-opacity="0" stroke="#000000" stroke-width="1" stroke-opacity="0"></use></g></g><g><use xlink:href="#bA0xHj2R" opacity="1" fill="#c66960" fill-opacity="1"></use><g><use xlink:href="#bA0xHj2R" opacity="1" fill-opacity="0" stroke="#000000" stroke-width="1" stroke-opacity="0"></use></g></g><g><use xlink:href="#b1y1SwC0HV" opacity="1" fill="#263238" fill-opacity="1"></use><g><use xlink:href="#b1y1SwC0HV" opacity="1" fill-opacity="0" stroke="#000000" stroke-width="1" stroke-opacity="0"></use></g></g><g><use xlink:href="#cqEpbknDc" opacity="1" fill="#263238" fill-opacity="1"></use><g><use xlink:href="#cqEpbknDc" opacity="1" fill-opacity="0" stroke="#000000" stroke-width="1" stroke-opacity="0"></use></g></g><g><use xlink:href="#h1HnOtqfjK" opacity="1" fill="#263238" fill-opacity="1"></use><g><use xlink:href="#h1HnOtqfjK" opacity="1" fill-opacity="0" stroke="#000000" stroke-width="1" stroke-opacity="0"></use></g></g><g><use xlink:href="#b1p7x1CwiG" opacity="1" fill="#d1867f" fill-opacity="1"></use><g><use xlink:href="#b1p7x1CwiG" opacity="1" fill-opacity="0" stroke="#000000" stroke-width="1" stroke-opacity="0"></use></g></g><g><use xlink:href="#e22zOh0bTI" opacity="1" fill="#b55b52" fill-opacity="1"></use><g><use xlink:href="#e22zOh0bTI" opacity="1" fill-opacity="0" stroke="#000000" stroke-width="1" stroke-opacity="0"></use></g></g><g><use xlink:href="#b6gNfDIjtl" opacity="1" fill="#b55b52" fill-opacity="1"></use><g><use xlink:href="#b6gNfDIjtl" opacity="1" fill-opacity="0" stroke="#000000" stroke-width="1" stroke-opacity="0"></use></g></g><g><use xlink:href="#bbzeFCoEf" opacity="1" fill="#3e80a1" fill-opacity="1"></use><g><use xlink:href="#bbzeFCoEf" opacity="1" fill-opacity="0" stroke="#000000" stroke-width="1" stroke-opacity="0"></use></g></g><g><use xlink:href="#c1dndN2fSa" opacity="1" fill="#1551d7" fill-opacity="1"></use><g><use xlink:href="#c1dndN2fSa" opacity="1" fill-opacity="0" stroke="#000000" stroke-width="1" stroke-opacity="0"></use></g></g><g><use xlink:href="#e14QYdiAwG" opacity="1" fill="#1551d7" fill-opacity="1"></use><g><use xlink:href="#e14QYdiAwG" opacity="1" fill-opacity="0" stroke="#000000" stroke-width="1" stroke-opacity="0"></use></g></g><g><use xlink:href="#dWi6cvgAQ" opacity="1" fill="#1551d7" fill-opacity="1"></use><g><use xlink:href="#dWi6cvgAQ" opacity="1" fill-opacity="0" stroke="#000000" stroke-width="1" stroke-opacity="0"></use></g></g><g><use xlink:href="#aAI4cSdTx" opacity="1" fill="#1551d7" fill-opacity="1"></use><g><use xlink:href="#aAI4cSdTx" opacity="1" fill-opacity="0" stroke="#000000" stroke-width="1" stroke-opacity="0"></use></g></g><g><use xlink:href="#b3DM2cJIib" opacity="1" fill="#263238" fill-opacity="1"></use><g><use xlink:href="#b3DM2cJIib" opacity="1" fill-opacity="0" stroke="#000000" stroke-width="1" stroke-opacity="0"></use></g></g><g><use xlink:href="#bebBSmfzR" opacity="1" fill="#57a1d7" fill-opacity="1"></use><g><use xlink:href="#bebBSmfzR" opacity="1" fill-opacity="0" stroke="#000000" stroke-width="1" stroke-opacity="0"></use></g></g><g><use xlink:href="#a1kAl7VnBw" opacity="1" fill="#838ea7" fill-opacity="1"></use><g><use xlink:href="#a1kAl7VnBw" opacity="1" fill-opacity="0" stroke="#000000" stroke-width="1" stroke-opacity="0"></use></g></g><g><use xlink:href="#a10aeH0pwb" opacity="1" fill="#838ea7" fill-opacity="1"></use><g><use xlink:href="#a10aeH0pwb" opacity="1" fill-opacity="0" stroke="#000000" stroke-width="1" stroke-opacity="0"></use></g></g><g><use xlink:href="#eEwpqZAhM" opacity="1" fill="#838ea7" fill-opacity="1"></use><g><use xlink:href="#eEwpqZAhM" opacity="1" fill-opacity="0" stroke="#000000" stroke-width="1" stroke-opacity="0"></use></g></g><g><use xlink:href="#o1ucAW2sQ" opacity="1" fill="#1551d7" fill-opacity="1"></use><g><use xlink:href="#o1ucAW2sQ" opacity="1" fill-opacity="0" stroke="#000000" stroke-width="1" stroke-opacity="0"></use></g></g><g><use xlink:href="#akvw6J3RQ" opacity="1" fill="#87c1ec" fill-opacity="1"></use><g><use xlink:href="#akvw6J3RQ" opacity="1" fill-opacity="0" stroke="#000000" stroke-width="1" stroke-opacity="0"></use></g></g><g><use xlink:href="#dih28zQub" opacity="1" fill="#838ea7" fill-opacity="1"></use><g><use xlink:href="#dih28zQub" opacity="1" fill-opacity="0" stroke="#000000" stroke-width="1" stroke-opacity="0"></use></g></g><g><use xlink:href="#a2m0A8zGSQ" opacity="1" fill="#e9f6f6" fill-opacity="1"></use><g><use xlink:href="#a2m0A8zGSQ" opacity="1" fill-opacity="0" stroke="#000000" stroke-width="1" stroke-opacity="0"></use></g></g><g><use xlink:href="#dpO4Qm39l" opacity="1" fill="#1551d7" fill-opacity="1"></use><g><use xlink:href="#dpO4Qm39l" opacity="1" fill-opacity="0" stroke="#000000" stroke-width="1" stroke-opacity="0"></use></g></g><g><use xlink:href="#dtKPYw8oc" opacity="1" fill="#ffffff" fill-opacity="1"></use><g><use xlink:href="#dtKPYw8oc" opacity="1" fill-opacity="0" stroke="#000000" stroke-width="1" stroke-opacity="0"></use></g></g><g><use xlink:href="#dpfz5VAlv" opacity="1" fill="#ffffff" fill-opacity="1"></use><g><use xlink:href="#dpfz5VAlv" opacity="1" fill-opacity="0" stroke="#000000" stroke-width="1" stroke-opacity="0"></use></g></g><g><use xlink:href="#c50iQpfMDc" opacity="1" fill="#ffffff" fill-opacity="1"></use><g><use xlink:href="#c50iQpfMDc" opacity="1" fill-opacity="0" stroke="#000000" stroke-width="1" stroke-opacity="0"></use></g></g><g><use xlink:href="#b67oVKzE3b" opacity="1" fill="#ffffff" fill-opacity="1"></use><g><use xlink:href="#b67oVKzE3b" opacity="1" fill-opacity="0" stroke="#000000" stroke-width="1" stroke-opacity="0"></use></g></g><g><use xlink:href="#i3HFfJwet6" opacity="1" fill="#ffffff" fill-opacity="1"></use><g><use xlink:href="#i3HFfJwet6" opacity="1" fill-opacity="0" stroke="#000000" stroke-width="1" stroke-opacity="0"></use></g></g><g><use xlink:href="#aP0E3Imvp" opacity="1" fill="#ffffff" fill-opacity="1"></use><g><use xlink:href="#aP0E3Imvp" opacity="1" fill-opacity="0" stroke="#000000" stroke-width="1" stroke-opacity="0"></use></g></g><g><use xlink:href="#bObu162yt" opacity="1" fill="#ffffff" fill-opacity="1"></use><g><use xlink:href="#bObu162yt" opacity="1" fill-opacity="0" stroke="#000000" stroke-width="1" stroke-opacity="0"></use></g></g><g><use xlink:href="#a5aIp3D7dy" opacity="1" fill="#ffffff" fill-opacity="1"></use><g><use xlink:href="#a5aIp3D7dy" opacity="1" fill-opacity="0" stroke="#000000" stroke-width="1" stroke-opacity="0"></use></g></g><g><use xlink:href="#gFc7Q10cc" opacity="1" fill="#ffffff" fill-opacity="1"></use><g><use xlink:href="#gFc7Q10cc" opacity="1" fill-opacity="0" stroke="#000000" stroke-width="1" stroke-opacity="0"></use></g></g><g><use xlink:href="#f1T87AkJNz" opacity="1" fill="#ffffff" fill-opacity="1"></use><g><use xlink:href="#f1T87AkJNz" opacity="1" fill-opacity="0" stroke="#000000" stroke-width="1" stroke-opacity="0"></use></g></g><g><use xlink:href="#fXhflDk0e" opacity="1" fill="#ffffff" fill-opacity="1"></use><g><use xlink:href="#fXhflDk0e" opacity="1" fill-opacity="0" stroke="#000000" stroke-width="1" stroke-opacity="0"></use></g></g><g><use xlink:href="#aBG2WH5dX" opacity="1" fill="#ffffff" fill-opacity="1"></use><g><use xlink:href="#aBG2WH5dX" opacity="1" fill-opacity="0" stroke="#000000" stroke-width="1" stroke-opacity="0"></use></g></g><g><use xlink:href="#b2cKNiFzj3" opacity="1" fill="#ffffff" fill-opacity="1"></use><g><use xlink:href="#b2cKNiFzj3" opacity="1" fill-opacity="0" stroke="#000000" stroke-width="1" stroke-opacity="0"></use></g></g><g><use xlink:href="#d7lBhl6A8" opacity="1" fill="#ffffff" fill-opacity="1"></use><g><use xlink:href="#d7lBhl6A8" opacity="1" fill-opacity="0" stroke="#000000" stroke-width="1" stroke-opacity="0"></use></g></g><g><use xlink:href="#e5jD0fxwJD" opacity="1" fill="#ffffff" fill-opacity="1"></use><g><use xlink:href="#e5jD0fxwJD" opacity="1" fill-opacity="0" stroke="#000000" stroke-width="1" stroke-opacity="0"></use></g></g><g><use xlink:href="#dY1mJfVPI" opacity="1" fill="#ffffff" fill-opacity="1"></use><g><use xlink:href="#dY1mJfVPI" opacity="1" fill-opacity="0" stroke="#000000" stroke-width="1" stroke-opacity="0"></use></g></g><g><use xlink:href="#k1wEZjLVbQ" opacity="1" fill="#ffffff" fill-opacity="1"></use><g><use xlink:href="#k1wEZjLVbQ" opacity="1" fill-opacity="0" stroke="#000000" stroke-width="1" stroke-opacity="0"></use></g></g><g><use xlink:href="#b5ZcsETw9" opacity="1" fill="#ffffff" fill-opacity="1"></use><g><use xlink:href="#b5ZcsETw9" opacity="1" fill-opacity="0" stroke="#000000" stroke-width="1" stroke-opacity="0"></use></g></g><g><use xlink:href="#cqYSMWnn1" opacity="1" fill="#ffffff" fill-opacity="1"></use><g><use xlink:href="#cqYSMWnn1" opacity="1" fill-opacity="0" stroke="#000000" stroke-width="1" stroke-opacity="0"></use></g></g><g><use xlink:href="#b20jM8iP8R" opacity="1" fill="#1551d7" fill-opacity="1"></use><g><use xlink:href="#b20jM8iP8R" opacity="1" fill-opacity="0" stroke="#000000" stroke-width="1" stroke-opacity="0"></use></g></g><g><use xlink:href="#dst39mkSz" opacity="1" fill="#1551d7" fill-opacity="1"></use><g><use xlink:href="#dst39mkSz" opacity="1" fill-opacity="0" stroke="#000000" stroke-width="1" stroke-opacity="0"></use></g></g><g><use xlink:href="#k1R90fjkIc" opacity="1" fill="#1551d7" fill-opacity="1"></use><g><use xlink:href="#k1R90fjkIc" opacity="1" fill-opacity="0" stroke="#000000" stroke-width="1" stroke-opacity="0"></use></g></g><g><use xlink:href="#b2TtdbhR4y" opacity="1" fill="#1551d7" fill-opacity="1"></use><g><use xlink:href="#b2TtdbhR4y" opacity="1" fill-opacity="0" stroke="#000000" stroke-width="1" stroke-opacity="0"></use></g></g><g><use xlink:href="#e1AgLdstDk" opacity="1" fill="#1551d7" fill-opacity="1"></use><g><use xlink:href="#e1AgLdstDk" opacity="1" fill-opacity="0" stroke="#000000" stroke-width="1" stroke-opacity="0"></use></g></g><g><use xlink:href="#a2aqBo5MDi" opacity="1" fill="#1551d7" fill-opacity="1"></use><g><use xlink:href="#a2aqBo5MDi" opacity="1" fill-opacity="0" stroke="#000000" stroke-width="1" stroke-opacity="0"></use></g></g><g><use xlink:href="#b1TSNzq99x" opacity="1" fill="#1551d7" fill-opacity="1"></use><g><use xlink:href="#b1TSNzq99x" opacity="1" fill-opacity="0" stroke="#000000" stroke-width="1" stroke-opacity="0"></use></g></g><g><use xlink:href="#b3A7SEWamM" opacity="1" fill="#1551d7" fill-opacity="1"></use><g><use xlink:href="#b3A7SEWamM" opacity="1" fill-opacity="0" stroke="#000000" stroke-width="1" stroke-opacity="0"></use></g></g><g><use xlink:href="#l9uofbVYpw" opacity="1" fill="#1551d7" fill-opacity="1"></use><g><use xlink:href="#l9uofbVYpw" opacity="1" fill-opacity="0" stroke="#000000" stroke-width="1" stroke-opacity="0"></use></g></g><g><use xlink:href="#b17iiTMzit" opacity="1" fill="#1551d7" fill-opacity="1"></use><g><use xlink:href="#b17iiTMzit" opacity="1" fill-opacity="0" stroke="#000000" stroke-width="1" stroke-opacity="0"></use></g></g><g><use xlink:href="#c46kFdUOu" opacity="1" fill="#1551d7" fill-opacity="1"></use><g><use xlink:href="#c46kFdUOu" opacity="1" fill-opacity="0" stroke="#000000" stroke-width="1" stroke-opacity="0"></use></g></g><g><use xlink:href="#a145hkYNVy" opacity="1" fill="#1551d7" fill-opacity="1"></use><g><use xlink:href="#a145hkYNVy" opacity="1" fill-opacity="0" stroke="#000000" stroke-width="1" stroke-opacity="0"></use></g></g><g><use xlink:href="#bZZ51DqO0" opacity="1" fill="#1551d7" fill-opacity="1"></use><g><use xlink:href="#bZZ51DqO0" opacity="1" fill-opacity="0" stroke="#000000" stroke-width="1" stroke-opacity="0"></use></g></g><g><use xlink:href="#fpteqZWG" opacity="1" fill="#1551d7" fill-opacity="1"></use><g><use xlink:href="#fpteqZWG" opacity="1" fill-opacity="0" stroke="#000000" stroke-width="1" stroke-opacity="0"></use></g></g><g><use xlink:href="#cDPKRBLj" opacity="1" fill="#1551d7" fill-opacity="1"></use><g><use xlink:href="#cDPKRBLj" opacity="1" fill-opacity="0" stroke="#000000" stroke-width="1" stroke-opacity="0"></use></g></g><g><use xlink:href="#eDWjLIMoY" opacity="1" fill="#1551d7" fill-opacity="1"></use><g><use xlink:href="#eDWjLIMoY" opacity="1" fill-opacity="0" stroke="#000000" stroke-width="1" stroke-opacity="0"></use></g></g><g><use xlink:href="#aTQHjxpeo" opacity="1" fill="#1551d7" fill-opacity="1"></use><g><use xlink:href="#aTQHjxpeo" opacity="1" fill-opacity="0" stroke="#000000" stroke-width="1" stroke-opacity="0"></use></g></g><g><use xlink:href="#a25It1pTbU" opacity="1" fill="#1551d7" fill-opacity="1"></use><g><use xlink:href="#a25It1pTbU" opacity="1" fill-opacity="0" stroke="#000000" stroke-width="1" stroke-opacity="0"></use></g></g><g><use xlink:href="#a2ucJmTTe8" opacity="1" fill="#838ea7" fill-opacity="1"></use><g><use xlink:href="#a2ucJmTTe8" opacity="1" fill-opacity="0" stroke="#000000" stroke-width="1" stroke-opacity="0"></use></g></g><g><use xlink:href="#d4ev5LECQ" opacity="1" fill="#838ea7" fill-opacity="1"></use><g><use xlink:href="#d4ev5LECQ" opacity="1" fill-opacity="0" stroke="#5c7dc6" stroke-width="1" stroke-opacity="0"></use></g></g></g></g></svg>